<?xml version="1.0" standalone="no"?><!DOCTYPE svg PUBLIC "-//W3C//DTD SVG 1.1//EN" "http://www.w3.org/Graphics/SVG/1.1/DTD/svg11.dtd"><svg height="1560" node-id="1" sillyvg="true" template-height="1560" template-width="2340" version="1.1" viewBox="0 0 2340 1560" width="2340" xmlns="http://www.w3.org/2000/svg" xmlns:xlink="http://www.w3.org/1999/xlink"><defs node-id="81"></defs><path d="M 1824.14 885.46 C 1824.14 917.22 1798.40 942.96 1766.64 942.96 C 1734.88 942.96 1709.14 917.22 1709.14 885.46 C 1709.14 853.71 1734.88 827.96 1766.64 827.96 C 1798.40 827.96 1824.14 853.71 1824.14 885.46 Z" fill="#fbb040" fill-rule="nonzero" node-id="84" stroke="none" target-height="115" target-width="115" target-x="1709.14" target-y="827.96"></path><path d="M 559.00 1178.50 C 559.00 1178.50 566.66 1086.84 701.00 1045.50 C 857.00 997.50 923.00 1097.50 923.00 1097.50 L 797.00 1192.50 Z" fill="#fbb040" fill-rule="nonzero" node-id="86" stroke="none" target-height="195" target-width="364" target-x="559" target-y="997.5"></path><path d="M 2093.64 1231.46 L 391.64 1231.46 C 391.64 1231.46 492.64 1090.46 746.64 1138.46 C 823.64 1036.46 1099.64 953.46 1180.64 1166.46 C 1389.64 1034.46 2008.64 961.46 2093.64 1231.46 Z" fill="#ffffff" fill-rule="nonzero" node-id="88" stroke="#1a1a1a" stroke-linecap="round" stroke-width="2" target-height="277.99994" target-width="1701.9999" target-x="391.64" target-y="953.46"></path><path d="M 776.14 741.96 L 581.14 1277.96 L 564.14 1277.96 L 761.14 741.96 L 776.14 741.96 Z" fill="#ffffff" fill-rule="nonzero" node-id="90" stroke="#1a1a1a" stroke-linecap="round" stroke-width="2" target-height="535.99994" target-width="212" target-x="564.14" target-y="741.96"></path><path d="M 939.14 741.96 L 1134.14 1277.96 L 1151.14 1277.96 L 954.14 741.96 L 939.14 741.96 Z" fill="#ffffff" fill-rule="nonzero" node-id="92" stroke="#1a1a1a" stroke-linecap="round" stroke-width="2" target-height="535.99994" target-width="212" target-x="939.14" target-y="741.96"></path><path d="M 474.64 308.25 L 1191.72 308.25 L 1191.72 827.46 L 474.64 827.46 Z" fill="#ffffff" fill-rule="nonzero" node-id="94" stroke="#1a1a1a" stroke-linecap="round" stroke-width="2" target-height="519.21" target-width="717.07996" target-x="474.64" target-y="308.25"></path><path d="M 500.64 343.25 L 1157.72 343.25 L 1157.72 795.46 L 500.64 795.46 Z" fill="#ffffff" fill-rule="nonzero" node-id="96" stroke="#1a1a1a" stroke-linecap="round" stroke-width="2" target-height="452.21002" target-width="657.07996" target-x="500.64" target-y="343.25"></path><path d="M 498.64 336.25 L 1166.72 336.25 L 1166.72 800.46 L 498.64 800.46 Z" fill="#ffffff" fill-rule="nonzero" node-id="98" stroke="#1a1a1a" stroke-linecap="round" stroke-width="2" target-height="464.21002" target-width="668.07996" target-x="498.64" target-y="336.25"></path><path d="M 1090.14 423.96 L 576.14 423.96" fill="#ffffff" fill-rule="nonzero" node-id="100" stroke="#1a1a1a" stroke-linecap="round" stroke-width="2" target-height="0" target-width="514" target-x="576.14" target-y="423.96"></path><path d="M 1089.64 474.96 L 575.64 474.96" fill="#ffffff" fill-rule="nonzero" node-id="102" stroke="#1a1a1a" stroke-linecap="round" stroke-width="2" target-height="0" target-width="514" target-x="575.64" target-y="474.96"></path><path d="M 1089.14 525.96 L 575.14 525.96" fill="#ffffff" fill-rule="nonzero" node-id="104" stroke="#1a1a1a" stroke-linecap="round" stroke-width="2" target-height="0" target-width="514" target-x="575.14" target-y="525.96"></path><path d="M 1088.64 576.96 L 574.64 576.96" fill="#ffffff" fill-rule="nonzero" node-id="106" stroke="#1a1a1a" stroke-linecap="round" stroke-width="2" target-height="0" target-width="514" target-x="574.64" target-y="576.96"></path><path d="M 1088.14 627.96 L 574.14 627.96" fill="#ffffff" fill-rule="nonzero" node-id="108" stroke="#1a1a1a" stroke-linecap="round" stroke-width="2" target-height="0" target-width="514" target-x="574.14" target-y="627.96"></path><path d="M 1087.64 678.96 L 573.64 678.96" fill="#ffffff" fill-rule="nonzero" node-id="110" stroke="#1a1a1a" stroke-linecap="round" stroke-width="2" target-height="0" target-width="514" target-x="573.64" target-y="678.96"></path><path d="M 1087.14 729.96 L 573.14 729.96" fill="#ffffff" fill-rule="nonzero" node-id="112" stroke="#1a1a1a" stroke-linecap="round" stroke-width="2" target-height="0" target-width="514" target-x="573.14" target-y="729.96"></path><g node-id="288"><path d="M 975.96 723.46 L 975.32 723.46 L 971.91 723.15 L 968.79 722.29 L 965.89 720.91 L 963.27 719.06 L 961.05 716.83 L 959.19 714.21 L 957.81 711.32 L 956.96 708.19 L 956.64 704.79 L 956.64 634.14 L 956.96 630.73 L 957.81 627.61 L 959.19 624.71 L 961.05 622.09 L 963.27 619.87 L 965.89 618.01 L 968.79 616.63 L 971.91 615.78 L 975.32 615.46 L 975.96 615.46 L 979.37 615.78 L 982.50 616.63 L 985.39 618.01 L 988.01 619.87 L 990.24 622.09 L 992.09 624.71 L 993.47 627.61 L 994.32 630.73 L 994.64 634.14 L 994.64 704.79 L 994.32 708.19 L 993.47 711.32 L 992.09 714.21 L 990.24 716.83 L 988.01 719.06 L 985.39 720.91 L 982.50 722.29 L 979.37 723.15 L 975.96 723.46 Z" fill="#3f3325" fill-rule="nonzero" group-id="1" node-id="116" stroke="#1a1a1a" stroke-linecap="round" stroke-width="1" target-height="108" target-width="38" target-x="956.64" target-y="615.46"></path></g><g node-id="289"><path d="M 880.64 723.46 L 880.64 723.46 L 877.17 723.14 L 874.00 722.27 L 871.05 720.87 L 868.39 718.98 L 866.12 716.72 L 864.24 714.05 L 862.83 711.11 L 861.96 707.93 L 861.64 704.46 L 861.64 554.46 L 861.96 551.00 L 862.83 547.82 L 864.24 544.87 L 866.12 542.21 L 868.39 539.95 L 871.05 538.06 L 874.00 536.65 L 877.17 535.79 L 880.64 535.46 L 880.64 535.46 L 884.11 535.79 L 887.29 536.65 L 890.23 538.06 L 892.90 539.95 L 895.16 542.21 L 897.05 544.87 L 898.45 547.82 L 899.32 551.00 L 899.64 554.46 L 899.64 704.46 L 899.32 707.93 L 898.45 711.11 L 897.05 714.05 L 895.16 716.72 L 892.90 718.98 L 890.23 720.87 L 887.29 722.27 L 884.11 723.14 L 880.64 723.46 Z" fill="#3f3325" fill-rule="nonzero" group-id="2" node-id="121" stroke="#1a1a1a" stroke-linecap="round" stroke-width="1" target-height="188" target-width="38" target-x="861.64" target-y="535.46"></path></g><g node-id="290"><path d="M 785.64 723.46 L 785.64 723.46 L 782.17 723.14 L 779.00 722.27 L 776.05 720.87 L 773.39 718.98 L 771.12 716.72 L 769.24 714.05 L 767.83 711.11 L 766.96 707.93 L 766.64 704.46 L 766.64 576.46 L 766.96 573.00 L 767.83 569.82 L 769.24 566.87 L 771.12 564.21 L 773.39 561.95 L 776.05 560.06 L 779.00 558.65 L 782.17 557.79 L 785.64 557.46 L 785.64 557.46 L 789.11 557.79 L 792.29 558.65 L 795.23 560.06 L 797.90 561.95 L 800.16 564.21 L 802.05 566.87 L 803.45 569.82 L 804.32 573.00 L 804.64 576.46 L 804.64 704.46 L 804.32 707.93 L 803.45 711.11 L 802.05 714.05 L 800.16 716.72 L 797.90 718.98 L 795.23 720.87 L 792.29 722.27 L 789.11 723.14 L 785.64 723.46 Z" fill="#3f3325" fill-rule="nonzero" group-id="3" node-id="126" stroke="#1a1a1a" stroke-linecap="round" stroke-width="1" target-height="166" target-width="38" target-x="766.64" target-y="557.46"></path></g><g node-id="291"><path d="M 690.64 723.46 L 690.64 723.46 L 687.17 723.14 L 684.00 722.27 L 681.05 720.87 L 678.39 718.98 L 676.12 716.72 L 674.24 714.05 L 672.83 711.11 L 671.96 707.93 L 671.64 704.46 L 671.64 531.46 L 671.96 528.00 L 672.83 524.82 L 674.24 521.87 L 676.12 519.21 L 678.39 516.95 L 681.05 515.06 L 684.00 513.65 L 687.17 512.79 L 690.64 512.46 L 690.64 512.46 L 694.11 512.79 L 697.29 513.65 L 700.23 515.06 L 702.90 516.95 L 705.16 519.21 L 707.05 521.87 L 708.45 524.82 L 709.32 528.00 L 709.64 531.46 L 709.64 704.46 L 709.32 707.93 L 708.45 711.11 L 707.05 714.05 L 705.16 716.72 L 702.90 718.98 L 700.23 720.87 L 697.29 722.27 L 694.11 723.14 L 690.64 723.46 Z" fill="#3f3325" fill-rule="nonzero" group-id="4" node-id="131" stroke="#1a1a1a" stroke-linecap="round" stroke-width="1" target-height="211" target-width="38" target-x="671.64" target-y="512.46"></path></g><g node-id="292"><path d="M 595.64 723.46 L 595.64 723.46 L 592.17 723.14 L 589.00 722.27 L 586.05 720.87 L 583.39 718.98 L 581.12 716.72 L 579.24 714.05 L 577.83 711.11 L 576.96 707.93 L 576.64 704.46 L 576.64 461.46 L 576.96 458.00 L 577.83 454.82 L 579.24 451.87 L 581.12 449.21 L 583.39 446.95 L 586.05 445.06 L 589.00 443.65 L 592.17 442.79 L 595.64 442.46 L 595.64 442.46 L 599.11 442.79 L 602.29 443.65 L 605.23 445.06 L 607.90 446.95 L 610.16 449.21 L 612.05 451.87 L 613.45 454.82 L 614.32 458.00 L 614.64 461.46 L 614.64 704.46 L 614.32 707.93 L 613.45 711.11 L 612.05 714.05 L 610.16 716.72 L 607.90 718.98 L 605.23 720.87 L 602.29 722.27 L 599.11 723.14 L 595.64 723.46 Z" fill="#3f3325" fill-rule="nonzero" group-id="5" node-id="136" stroke="#1a1a1a" stroke-linecap="round" stroke-width="1" target-height="281.00003" target-width="38" target-x="576.64" target-y="442.46"></path></g><path d="M 1095.14 756.96 L 564.14 756.96" fill="#ffffff" fill-rule="nonzero" node-id="139" stroke="#1a1a1a" stroke-linecap="round" stroke-width="2" target-height="0" target-width="531" target-x="564.14" target-y="756.96"></path><path d="M 1008.14 377.96 L 1090.14 377.96 L 1090.14 385.96 L 1008.14 385.96 Z" fill="#ffffff" fill-rule="nonzero" node-id="141" stroke="#1a1a1a" stroke-linecap="round" stroke-width="2" target-height="8" target-width="82" target-x="1008.14" target-y="377.96"></path><path d="M 518.14 706.96 L 549.14 706.96 L 549.14 714.96 L 518.14 714.96 Z" fill="#ffffff" fill-rule="nonzero" node-id="143" stroke="#1a1a1a" stroke-linecap="round" stroke-width="2" target-height="8" target-width="31" target-x="518.14" target-y="706.96"></path><path d="M 518.14 647.96 L 549.14 647.96 L 549.14 655.96 L 518.14 655.96 Z" fill="#ffffff" fill-rule="nonzero" node-id="145" stroke="#1a1a1a" stroke-linecap="round" stroke-width="2" target-height="8" target-width="31" target-x="518.14" target-y="647.96"></path><path d="M 518.14 588.96 L 549.14 588.96 L 549.14 596.96 L 518.14 596.96 Z" fill="#ffffff" fill-rule="nonzero" node-id="147" stroke="#1a1a1a" stroke-linecap="round" stroke-width="2" target-height="8" target-width="31" target-x="518.14" target-y="588.96"></path><path d="M 518.14 529.96 L 549.14 529.96 L 549.14 537.96 L 518.14 537.96 Z" fill="#ffffff" fill-rule="nonzero" node-id="149" stroke="#1a1a1a" stroke-linecap="round" stroke-width="2" target-height="8" target-width="31" target-x="518.14" target-y="529.96"></path><path d="M 518.14 470.96 L 549.14 470.96 L 549.14 478.96 L 518.14 478.96 Z" fill="#ffffff" fill-rule="nonzero" node-id="151" stroke="#1a1a1a" stroke-linecap="round" stroke-width="2" target-height="8" target-width="31" target-x="518.14" target-y="470.96"></path><path d="M 518.14 411.96 L 549.14 411.96 L 549.14 419.96 L 518.14 419.96 Z" fill="#ffffff" fill-rule="nonzero" node-id="153" stroke="#1a1a1a" stroke-linecap="round" stroke-width="2" target-height="8" target-width="31" target-x="518.14" target-y="411.96"></path><path d="M 1684.14 1243.55 L 1350.11 1243.55 L 1344.65 1243.32 L 1339.38 1242.68 L 1334.27 1241.63 L 1329.32 1240.19 L 1324.48 1238.36 L 1319.86 1236.20 L 1315.47 1233.70 L 1311.27 1230.86 L 1307.30 1227.70 L 1303.61 1224.28 L 1300.19 1220.59 L 1297.03 1216.62 L 1294.19 1212.42 L 1291.69 1208.03 L 1289.53 1203.41 L 1287.70 1198.57 L 1286.26 1193.62 L 1285.21 1188.51 L 1284.57 1183.24 L 1284.34 1177.78 L 1284.34 374.40 L 1284.57 368.93 L 1285.21 363.66 L 1286.26 358.56 L 1287.70 353.61 L 1289.53 348.76 L 1291.69 344.15 L 1294.19 339.75 L 1297.03 335.55 L 1300.19 331.58 L 1303.61 327.89 L 1307.30 324.47 L 1311.27 321.32 L 1315.47 318.48 L 1319.86 315.98 L 1324.48 313.82 L 1329.32 311.98 L 1334.27 310.54 L 1339.38 309.50 L 1344.65 308.86 L 1350.11 308.63 L 1684.14 308.63 L 1689.61 308.86 L 1694.88 309.50 L 1699.98 310.54 L 1704.93 311.98 L 1709.78 313.82 L 1714.39 315.98 L 1718.79 318.48 L 1722.99 321.32 L 1726.96 324.47 L 1730.65 327.89 L 1734.07 331.58 L 1737.22 335.55 L 1740.06 339.75 L 1742.56 344.15 L 1744.72 348.76 L 1746.56 353.61 L 1748.00 358.56 L 1749.04 363.66 L 1749.68 368.93 L 1749.91 374.40 L 1749.91 1177.78 L 1749.68 1183.24 L 1749.04 1188.51 L 1748.00 1193.62 L 1746.56 1198.57 L 1744.72 1203.41 L 1742.56 1208.03 L 1740.06 1212.42 L 1737.22 1216.62 L 1734.07 1220.59 L 1730.65 1224.28 L 1726.96 1227.70 L 1722.99 1230.86 L 1718.79 1233.70 L 1714.39 1236.20 L 1709.78 1238.36 L 1704.93 1240.19 L 1699.98 1241.63 L 1694.88 1242.68 L 1689.61 1243.32 L 1684.14 1243.55 Z" fill="#ffffff" fill-rule="nonzero" group-id="6" node-id="157" stroke="#1a1a1a" stroke-linecap="round" stroke-width="2" target-height="934.92004" target-width="465.57007" target-x="1284.34" target-y="308.63"></path><path d="M 1305.52 388.82 L 1305.52 1089.22 C 1305.53 1121.61 1331.78 1147.86 1364.16 1147.86 L 1670.09 1147.86 C 1702.48 1147.86 1728.73 1121.61 1728.73 1089.22 L 1728.73 388.82 C 1726.30 315.84 1645.68 331.21 1596.14 329.97 C 1591.08 329.74 1585.39 337.93 1585.39 348.34 C 1585.39 371.79 1569.51 370.27 1552.87 370.27 L 1452.26 370.27 C 1423.09 370.16 1446.23 333.41 1420.68 330.18 C 1372.59 329.23 1308.55 322.50 1305.52 388.82 Z" fill="#ffffff" fill-rule="nonzero" node-id="160" stroke="#1a1a1a" stroke-linecap="round" stroke-width="2" target-height="832.02" target-width="423.20996" target-x="1305.52" target-y="315.84"></path><path d="M 1550.60 1192.49 C 1550.60 1210.04 1536.37 1224.26 1518.83 1224.26 C 1501.28 1224.26 1487.06 1210.04 1487.06 1192.49 C 1487.06 1174.94 1501.28 1160.72 1518.83 1160.72 C 1536.37 1160.72 1550.60 1174.94 1550.60 1192.49 Z" fill="#3f3325" fill-rule="nonzero" node-id="162" stroke="#1a1a1a" stroke-linecap="round" stroke-width="1" target-height="63.54004" target-width="63.539917" target-x="1487.06" target-y="1160.72"></path><path d="M 1333.48 523.96 C 1333.48 523.96 1385.97 432.96 1500.71 490.96 C 1549.53 523.96 1566.62 457.96 1588.59 428.96 C 1610.56 399.96 1652.06 371.96 1699.67 410.96 L 1702.11 606.96 L 1333.48 606.96 Z" fill="#ffffff" fill-rule="nonzero" node-id="164" stroke="#1a1a1a" stroke-linecap="round" stroke-width="2" target-height="235.00003" target-width="368.63" target-x="1333.48" target-y="371.96"></path><path d="M 1600.00 661.50 L 1435.00 661.50 L 1435.00 644.50 L 1600.00 644.50 Z" fill="#3f3325" fill-rule="nonzero" group-id="7" node-id="168" stroke="#1a1a1a" stroke-linecap="round" stroke-width="1" target-height="17" target-width="165" target-x="1435" target-y="644.5"></path><path d="M 1599.00 942.50 L 1434.00 942.50 L 1434.00 925.50 L 1599.00 925.50 Z" fill="#ffffff" fill-rule="nonzero" group-id="8" node-id="173" stroke="#1a1a1a" stroke-linecap="round" stroke-width="2" target-height="17" target-width="165" target-x="1434" target-y="925.5"></path><path d="M 1681.63 1032.96 L 1352.63 1032.96 L 1352.63 1017.96 L 1681.63 1017.96 Z" fill="#ffffff" fill-rule="nonzero" group-id="9" node-id="178" stroke="#1a1a1a" stroke-linecap="round" stroke-width="2" target-height="14.999939" target-width="329" target-x="1352.63" target-y="1017.96"></path><path d="M 1681.14 996.96 L 1352.14 996.96 L 1352.14 981.96 L 1681.14 981.96 Z" fill="#ffffff" fill-rule="nonzero" group-id="10" node-id="183" stroke="#1a1a1a" stroke-linecap="round" stroke-width="2" target-height="15" target-width="329" target-x="1352.14" target-y="981.96"></path><path d="M 1681.14 1067.96 L 1352.14 1067.96 L 1352.14 1052.96 L 1681.14 1052.96 Z" fill="#ffffff" fill-rule="nonzero" group-id="11" node-id="188" stroke="#1a1a1a" stroke-linecap="round" stroke-width="2" target-height="15" target-width="329" target-x="1352.14" target-y="1052.96"></path><path d="M 1680.66 1102.96 L 1351.66 1102.96 L 1351.66 1087.96 L 1680.66 1087.96 Z" fill="#ffffff" fill-rule="nonzero" group-id="12" node-id="193" stroke="#1a1a1a" stroke-linecap="round" stroke-width="2" target-height="15" target-width="329" target-x="1351.66" target-y="1087.96"></path><path d="M 1434.44 556.52 C 1453.72 532.59 1498.58 492.56 1504.65 498.87 C 1510.72 505.18 1495.72 509.50 1493.03 516.58 C 1501.06 537.22 1494.54 536.59 1475.76 542.74 C 1463.51 555.24 1452.78 573.30 1434.44 556.52 Z" fill="#ffffff" fill-rule="nonzero" node-id="196" stroke="#1a1a1a" stroke-linecap="round" stroke-width="2" target-height="80.73999" target-width="76.28003" target-x="1434.44" target-y="492.56"></path><path d="M 1364.55 1286.73 C 1364.55 1286.73 1376.66 1267.06 1354.72 1261.77 C 1332.79 1256.47 1281.35 1245.88 1281.35 1245.88 L 1223.11 1264.79 C 1219.94 1282.91 1217.02 1300.87 1227.64 1310.18 C 1227.65 1314.24 1253.81 1312.89 1269.64 1307.46 C 1272.53 1306.47 1271.28 1294.71 1274.64 1294.46 C 1277.20 1294.27 1281.94 1306.69 1284.64 1306.46 C 1319.54 1303.55 1351.70 1298.70 1364.55 1286.73 Z" fill="#ffffff" fill-rule="nonzero" node-id="198" stroke="#1a1a1a" stroke-linecap="round" stroke-width="2" target-height="68.359985" target-width="159.64001" target-x="1217.02" target-y="1245.88"></path><path d="M 1067.94 1292.17 C 1067.94 1292.17 1076.22 1282.07 1071.27 1272.34 C 1066.32 1262.62 1026.95 1229.23 1025.42 1225.77 C 1023.89 1222.31 971.39 1201.49 971.39 1201.49 C 971.39 1201.49 938.31 1236.33 945.95 1243.71 C 953.82 1254.22 982.10 1267.37 983.05 1268.77 C 984.00 1270.17 1000.43 1259.45 1000.43 1259.45 L 1000.07 1273.99 C 1000.07 1273.99 1055.21 1296.29 1067.94 1292.17 Z" fill="#ffffff" fill-rule="nonzero" node-id="200" stroke="#1a1a1a" stroke-linecap="round" stroke-width="2" target-height="94.80005" target-width="137.90997" target-x="938.31" target-y="1201.49"></path><path d="M 967.50 1206.50 C 967.50 1206.50 999.34 1227.10 1014.78 1230.18 C 1030.21 1233.27 1031.24 1232.24 1031.24 1232.24 L 1027.12 1228.13 L 969.50 1203.03 Z" fill="#3f3325" fill-rule="nonzero" node-id="202" stroke="#1a1a1a" stroke-linecap="round" stroke-width="1" target-height="30.23999" target-width="63.73999" target-x="967.5" target-y="1203.03"></path><path d="M 1223.42 1272.43 C 1223.42 1272.43 1256.35 1278.60 1270.75 1265.23 C 1285.16 1251.85 1290.30 1247.74 1290.30 1247.74 L 1287.79 1246.91 C 1287.79 1246.91 1264.58 1261.11 1250.17 1265.23 C 1241.11 1267.68 1231.61 1268.03 1222.39 1266.26 C 1222.39 1266.26 1221.36 1272.43 1223.42 1272.43 Z" fill="#3f3325" fill-rule="nonzero" node-id="204" stroke="#1a1a1a" stroke-linecap="round" stroke-width="1" target-height="31.689941" target-width="68.94006" target-x="1221.36" target-y="1246.91"></path><path d="M 1268.84 766.25 C 1268.84 766.25 1277.91 795.00 1293.04 878.20 C 1308.17 961.41 1285.89 1206.55 1297.99 1239.83 C 1260.17 1277.65 1219.32 1269.33 1219.32 1269.33 C 1219.32 1269.33 1218.91 1053.69 1208.32 1013.60 C 1197.73 973.51 1181.64 919.46 1181.64 919.46 C 1181.64 919.46 1166.50 1000.00 1144.50 1053.00 C 1118.77 1114.99 1061.66 1186.45 1044.08 1211.09 C 1030.74 1234.83 1032.59 1231.53 1032.59 1231.53 C 1032.59 1231.53 973.04 1209.36 965.29 1201.54 C 1020.50 1102.00 1017.50 1071.00 1066.50 1015.00 C 1068.50 929.00 1078.64 902.46 1082.64 851.46 C 1088.10 781.91 1108.64 766.46 1108.64 766.46 Z" fill="#ffffff" fill-rule="nonzero" node-id="206" stroke="#1a1a1a" stroke-linecap="round" stroke-width="2" target-height="511.40002" target-width="342.88007" target-x="965.29" target-y="766.25"></path><path d="M 1270.35 745.08 C 1272.76 756.67 1273.73 767.10 1269.64 773.46 C 1269.64 773.46 1197.73 778.36 1168.99 773.82 C 1140.25 769.28 1109.64 770.46 1109.64 770.46 C 1109.64 770.46 1108.00 749.61 1112.40 745.08 C 1116.80 740.54 1267.32 742.05 1270.35 745.08 Z" fill="#ffffff" fill-rule="nonzero" node-id="208" stroke="#1a1a1a" stroke-linecap="round" stroke-width="2" target-height="37.820007" target-width="165.72998" target-x="1108" target-y="740.54"></path><path d="M 1168.18 474.44 C 1167.35 485.36 1165.59 496.18 1162.94 506.80 C 1162.94 506.80 1210.59 518.15 1218.16 509.83 C 1215.93 495.52 1216.19 484.87 1217.25 477.33 C 1219.02 477.10 1220.60 476.85 1221.94 476.55 C 1235.55 473.52 1239.34 458.39 1243.12 446.29 C 1246.90 434.19 1240.85 400.15 1240.85 400.15 C 1235.55 364.60 1210.59 367.63 1180.34 374.43 C 1150.08 381.24 1150.08 415.28 1153.86 426.63 C 1157.64 437.97 1165.96 468.23 1167.48 473.52 C 1167.61 473.90 1167.85 474.22 1168.18 474.44 Z" fill="#ffffff" fill-rule="nonzero" node-id="210" stroke="#1a1a1a" stroke-linecap="round" stroke-width="2" target-height="153.55002" target-width="96.82007" target-x="1150.08" target-y="364.6"></path><path d="M 1231.02 518.15 C 1231.02 518.15 1238.58 503.03 1234.04 498.49 C 1229.50 493.95 1207.57 485.63 1187.90 490.17 C 1168.23 494.70 1171.26 487.14 1155.38 487.14 C 1139.49 487.14 1155.38 510.59 1155.38 510.59 C 1155.38 510.59 1223.45 527.99 1231.02 518.15 Z" fill="#ffffff" fill-rule="nonzero" node-id="212" stroke="#1a1a1a" stroke-linecap="round" stroke-width="2" target-height="42.359985" target-width="99.089966" target-x="1139.49" target-y="485.63"></path><path d="M 1042.14 891.95 L 1073.00 868.50 C 1073.00 868.50 1077.00 887.50 1076.00 894.50 C 1075.00 901.50 1073.00 896.50 1073.00 896.50 L 1052.00 909.50 Z" fill="#ffffff" fill-rule="nonzero" node-id="214" stroke="#1a1a1a" stroke-linecap="round" stroke-width="2" target-height="41" target-width="34.859985" target-x="1042.14" target-y="868.5"></path><path d="M 1041.00 892.50 C 1041.00 892.50 1058.00 883.25 1058.00 901.50 C 1058.00 917.50 1024.00 908.50 1041.00 892.50 Z" fill="#ffffff" fill-rule="nonzero" node-id="216" stroke="#1a1a1a" stroke-linecap="round" stroke-width="2" target-height="34.25" target-width="34" target-x="1024" target-y="883.25"></path><path d="M 1064.00 853.50 C 1064.00 853.50 1060.13 865.90 1056.50 868.00 C 1052.50 872.00 1052.50 885.00 1052.50 885.00 L 1064.50 877.00 C 1064.50 877.00 1072.00 877.50 1073.50 887.00 C 1074.59 893.88 1067.50 901.00 1067.50 901.00 L 1078.00 902.50 L 1085.00 845.50 L 1081.00 837.50 Z" fill="#ffffff" fill-rule="nonzero" node-id="218" stroke="#1a1a1a" stroke-linecap="round" stroke-width="2" target-height="65" target-width="32.5" target-x="1052.5" target-y="837.5"></path><path d="M 1440.00 541.50 C 1427.00 556.50 1365.66 609.68 1365.66 609.68 C 1365.66 609.68 1355.07 602.87 1326.32 576.40 C 1297.58 549.92 1283.96 524.20 1268.08 522.69 C 1252.20 521.18 1222.76 503.77 1192.50 501.50 C 1162.24 499.23 1137.56 507.87 1102.50 521.50 C 1066.50 535.50 1042.00 621.50 1042.00 658.50 C 1042.00 731.23 1061.00 853.50 1061.00 853.50 C 1061.00 853.50 1080.00 850.50 1085.00 841.50 C 1088.00 810.50 1093.00 794.50 1096.00 786.50 C 1096.00 783.13 1090.00 741.31 1090.00 718.50 C 1090.00 706.50 1092.94 681.70 1094.50 677.50 C 1095.50 705.50 1101.57 735.11 1110.50 747.50 C 1118.27 758.29 1130.09 750.50 1138.00 750.50 C 1195.00 742.50 1215.89 759.45 1265.05 759.45 C 1314.22 759.45 1283.96 621.78 1283.96 621.78 C 1283.96 621.78 1349.02 700.45 1382.30 678.51 C 1415.58 656.58 1473.00 552.50 1473.00 552.50 C 1473.00 552.50 1447.50 532.85 1440.00 541.50 Z" fill="#fbb040" fill-rule="nonzero" node-id="220" stroke="#1a1a1a" stroke-linecap="round" stroke-width="2" target-height="354.27" target-width="431" target-x="1042" target-y="499.23"></path><path d="M 1698.14 743.96 L 1538.14 743.96 L 1538.14 728.96 L 1698.14 728.96 Z" fill="#ffffff" fill-rule="nonzero" group-id="13" node-id="224" stroke="#1a1a1a" stroke-linecap="round" stroke-width="2" target-height="15" target-width="160" target-x="1538.14" target-y="728.96"></path><path d="M 1698.14 777.96 L 1538.14 777.96 L 1538.14 762.96 L 1698.14 762.96 Z" fill="#ffffff" fill-rule="nonzero" group-id="14" node-id="229" stroke="#1a1a1a" stroke-linecap="round" stroke-width="2" target-height="15" target-width="160" target-x="1538.14" target-y="762.96"></path><path d="M 1698.14 811.96 L 1538.14 811.96 L 1538.14 796.96 L 1698.14 796.96 Z" fill="#ffffff" fill-rule="nonzero" group-id="15" node-id="234" stroke="#1a1a1a" stroke-linecap="round" stroke-width="2" target-height="15" target-width="160" target-x="1538.14" target-y="796.96"></path><path d="M 1698.14 845.96 L 1538.14 845.96 L 1538.14 830.96 L 1698.14 830.96 Z" fill="#ffffff" fill-rule="nonzero" group-id="16" node-id="239" stroke="#1a1a1a" stroke-linecap="round" stroke-width="2" target-height="15" target-width="160" target-x="1538.14" target-y="830.96"></path><path d="M 1698.14 879.96 L 1538.14 879.96 L 1538.14 864.96 L 1698.14 864.96 Z" fill="#ffffff" fill-rule="nonzero" group-id="17" node-id="244" stroke="#1a1a1a" stroke-linecap="round" stroke-width="2" target-height="15" target-width="160" target-x="1538.14" target-y="864.96"></path><path d="M 1345.64 884.96 L 1499.64 884.96 L 1422.64 807.96 L 1345.64 884.96 Z" fill="#ffffff" fill-rule="nonzero" node-id="247" stroke="#1a1a1a" stroke-linecap="round" stroke-width="2" target-height="77" target-width="154" target-x="1345.64" target-y="807.96"></path><path d="M 1505.14 881.15 L 1505.14 727.15 L 1428.14 804.15 L 1505.14 881.15 Z" fill="#ffffff" fill-rule="nonzero" node-id="249" stroke="#1a1a1a" stroke-linecap="round" stroke-width="2" target-height="154" target-width="77" target-x="1428.14" target-y="727.15"></path><path d="M 1499.64 723.96 L 1345.64 723.96 L 1422.64 800.96 L 1499.64 723.96 Z" fill="#ffffff" fill-rule="nonzero" node-id="251" stroke="#1a1a1a" stroke-linecap="round" stroke-width="2" target-height="77" target-width="154" target-x="1345.64" target-y="723.96"></path><path d="M 1341.14 881.15 L 1341.14 727.15 L 1418.14 804.15 L 1341.14 881.15 Z" fill="#ffffff" fill-rule="nonzero" node-id="253" stroke="#1a1a1a" stroke-linecap="round" stroke-width="2" target-height="154" target-width="77" target-x="1341.14" target-y="727.15"></path><path d="M 412.99 1104.56 C 384.05 1052.82 363.88 1102.81 346.92 1083.20 C 332.54 1066.57 343.70 1047.56 313.95 1063.39 C 285.21 1078.68 286.71 1045.48 286.56 1026.69 C 279.88 1016.79 265.36 1025.07 256.24 1020.65 C 240.09 1011.94 249.38 978.93 266.30 977.72 C 279.04 979.55 298.26 1008.69 304.82 982.52 C 305.50 951.35 345.71 961.51 335.04 989.79 C 333.71 1002.32 347.49 1006.29 353.44 995.38 C 357.49 982.85 374.30 974.83 381.10 989.56 C 382.19 1000.87 378.77 1025.41 398.08 1015.06 C 408.53 1003.00 430.10 1004.00 420.70 1024.09 C 418.45 1029.30 415.80 1035.45 418.72 1040.31 C 441.07 1052.32 432.64 1094.01 412.99 1104.56 Z" fill="#ffffff" fill-rule="nonzero" node-id="255" stroke="#1a1a1a" stroke-linecap="round" stroke-width="2" target-height="153.21008" target-width="200.98001" target-x="240.09" target-y="951.35"></path><path d="M 475.97 1059.99 C 515.98 976.45 498.94 951.24 460.79 968.38 C 472.01 955.28 476.21 842.31 435.38 870.70 C 437.25 829.20 387.07 781.96 380.07 831.96 C 369.84 829.95 369.07 807.96 355.07 790.96 C 337.92 770.14 301.40 774.68 288.32 798.19 C 258.93 873.30 343.11 833.81 345.86 880.61 C 321.18 874.58 296.01 917.95 385.30 945.53 C 393.18 947.97 379.81 963.72 373.03 969.25 C 356.91 978.34 354.86 1004.31 375.02 1006.04 C 386.52 1006.64 406.38 1001.29 409.15 1020.56 C 395.85 1006.71 382.03 1024.52 382.86 1049.07 C 385.34 1063.34 423.98 1118.38 452.67 1115.63 C 469.38 1114.03 465.44 1082.00 475.97 1059.99 Z" fill="#ffffff" fill-rule="nonzero" node-id="257" stroke="#1a1a1a" stroke-linecap="round" stroke-width="2" target-height="348.24" target-width="257.05" target-x="258.93" target-y="770.14"></path><path d="M 507.07 991.08 C 526.80 963.26 560.50 982.61 539.54 1014.18 C 593.02 993.02 617.55 1027.00 614.02 1048.93 C 610.47 1070.92 560.11 1052.39 548.05 1063.12 C 563.66 1067.37 564.02 1078.31 559.40 1083.69 C 547.76 1095.24 537.41 1088.65 522.52 1084.39 C 478.23 1071.74 481.97 1108.41 432.35 1101.42 C 466.66 1091.57 468.85 1062.56 477.65 1034.38 C 482.30 1027.57 494.45 1025.38 498.01 1032.82 C 498.01 1032.82 500.46 1002.25 507.07 991.08 Z" fill="#ffffff" fill-rule="nonzero" node-id="259" stroke="#1a1a1a" stroke-linecap="round" stroke-width="2" target-height="145.15002" target-width="185.19998" target-x="432.35" target-y="963.26"></path><path d="M 512.04 1122.71 L 352.40 1122.71 C 352.63 1125.28 352.86 1128.83 353.23 1133.30 L 510.56 1133.30 C 511.07 1129.83 511.56 1126.31 512.04 1122.71 Z" fill="#ffffff" fill-rule="nonzero" node-id="261" stroke="#1a1a1a" stroke-linecap="round" stroke-width="2" target-height="10.590088" target-width="159.63998" target-x="352.4" target-y="1122.71"></path><path d="M 353.23 1133.30 C 355.27 1157.55 361.71 1208.61 396.30 1273.14 L 467.52 1273.14 C 467.52 1273.14 496.40 1228.96 510.56 1133.30 Z" fill="#ffffff" fill-rule="nonzero" node-id="263" stroke="#1a1a1a" stroke-linecap="round" stroke-width="2" target-height="139.83997" target-width="157.32999" target-x="353.23" target-y="1133.3"></path><path d="M 329.38 1097.85 L 543.04 1097.85 L 543.04 1125.48 L 329.38 1125.48 Z" fill="#ffffff" fill-rule="nonzero" node-id="265" stroke="#1a1a1a" stroke-linecap="round" stroke-width="2" target-height="27.630005" target-width="213.65997" target-x="329.38" target-y="1097.85"></path><path d="M 1992.67 394.46 L 1906.61 394.46 L 1902.85 394.20 L 1899.31 393.48 L 1895.95 392.31 L 1892.77 390.71 L 1889.88 388.76 L 1887.25 386.44 L 1884.93 383.81 L 1882.98 380.92 L 1881.38 377.74 L 1880.21 374.39 L 1879.49 370.84 L 1879.23 367.08 L 1879.23 250.84 L 1879.49 247.08 L 1880.21 243.54 L 1881.38 240.18 L 1882.98 237.01 L 1884.93 234.11 L 1887.25 231.48 L 1889.88 229.16 L 1892.77 227.21 L 1895.95 225.61 L 1899.31 224.44 L 1902.85 223.72 L 1906.61 223.46 L 1992.67 223.46 L 1996.43 223.72 L 1999.98 224.44 L 2003.33 225.61 L 2006.51 227.21 L 2009.40 229.16 L 2012.03 231.48 L 2014.35 234.11 L 2016.30 237.01 L 2017.90 240.18 L 2019.07 243.54 L 2019.79 247.08 L 2020.05 250.84 L 2020.05 367.08 L 2019.79 370.84 L 2019.07 374.39 L 2017.90 377.74 L 2016.30 380.92 L 2014.35 383.81 L 2012.03 386.44 L 2009.40 388.76 L 2006.51 390.71 L 2003.33 392.31 L 1999.98 393.48 L 1996.43 394.20 L 1992.67 394.46 Z" fill="#ffffff" fill-rule="nonzero" group-id="18" node-id="269" stroke="#1a1a1a" stroke-linecap="round" stroke-width="2" target-height="170.99998" target-width="140.82007" target-x="1879.23" target-y="223.46"></path><path d="M 2065.38 708.46 L 1945.91 708.46 L 1943.96 708.28 L 1942.17 707.80 L 1940.52 707.01 L 1939.02 705.94 L 1937.75 704.67 L 1936.69 703.18 L 1935.90 701.52 L 1935.41 699.74 L 1935.23 697.79 L 1935.23 693.14 L 1935.41 691.19 L 1935.90 689.40 L 1936.69 687.75 L 1937.75 686.25 L 1939.02 684.98 L 1940.52 683.92 L 1942.17 683.13 L 1943.96 682.64 L 1945.91 682.46 L 2065.38 682.46 L 2067.33 682.64 L 2069.11 683.13 L 2070.77 683.92 L 2072.26 684.98 L 2073.53 686.25 L 2074.60 687.75 L 2075.39 689.40 L 2075.87 691.19 L 2076.05 693.14 L 2076.05 697.79 L 2075.87 699.74 L 2075.38 701.52 L 2074.60 703.18 L 2073.53 704.67 L 2072.26 705.94 L 2070.77 707.01 L 2069.11 707.79 L 2067.33 708.28 L 2065.38 708.46 Z" fill="#ffffff" fill-rule="nonzero" group-id="19" node-id="274" stroke="#1a1a1a" stroke-linecap="round" stroke-width="2" target-height="26" target-width="140.82007" target-x="1935.23" target-y="682.46"></path><path d="M 1245.64 401.46 C 1245.64 401.46 1228.64 401.46 1226.64 412.46 C 1224.73 416.86 1224.03 421.70 1224.64 426.46 C 1220.64 433.46 1214.64 430.46 1214.64 430.46 C 1214.64 430.46 1208.64 414.46 1201.64 418.46 C 1194.64 422.46 1223.64 464.46 1214.64 469.46 C 1205.64 474.46 1168.64 474.46 1160.64 469.46 C 1152.64 464.46 1130.64 410.46 1148.64 382.46 C 1166.64 354.46 1208.15 364.46 1227.64 358.46 C 1240.64 354.46 1246.64 342.46 1246.64 342.46 C 1246.64 342.46 1266.64 380.46 1245.64 401.46 Z" fill="#3f3325" fill-rule="nonzero" node-id="277" stroke="#1a1a1a" stroke-linecap="round" stroke-width="1" target-height="132" target-width="136" target-x="1130.64" target-y="342.46"></path><path d="M 1160.50 858.50 C 1160.50 858.50 1154.50 900.50 1181.50 918.50" fill="#ffffff" fill-rule="nonzero" node-id="279" stroke="#1a1a1a" stroke-linecap="round" stroke-width="2" target-height="60" target-width="27" target-x="1154.5" target-y="858.5"></path><path d="M 2069.14 667.96 L 2038.14 667.96 L 2038.14 599.96 L 2069.14 599.96 Z" fill="#3f3325" fill-rule="nonzero" group-id="20" node-id="283" stroke="#1a1a1a" stroke-linecap="round" stroke-width="1" target-height="68" target-width="30.999878" target-x="2038.14" target-y="599.96"></path><path d="M 1095.50 602.50 C 1095.50 602.50 1091.50 650.50 1094.50 677.50" fill="#ffffff" fill-rule="nonzero" node-id="286" stroke="#1a1a1a" stroke-linecap="round" stroke-width="2" target-height="75" target-width="4" target-x="1091.5" target-y="602.5"></path></svg>