<?xml version="1.0" standalone="no"?><!DOCTYPE svg PUBLIC "-//W3C//DTD SVG 1.1//EN" "http://www.w3.org/Graphics/SVG/1.1/DTD/svg11.dtd"><svg height="1560" node-id="1" sillyvg="true" template-height="1560" template-width="2340" version="1.1" viewBox="0 0 2340 1560" width="2340" xmlns="http://www.w3.org/2000/svg" xmlns:xlink="http://www.w3.org/1999/xlink"><defs node-id="65"></defs><path d="M 1884.10 1289.05 C 1961.55 1254.42 1980.94 1171.74 1938.53 1122.48 C 1900.75 1078.61 1817.65 1065.55 1754.31 1102.86 C 1739.49 1066.95 1714.36 1056.90 1708.26 1054.70 C 1663.78 1038.67 1593.20 1066.30 1553.14 1132.40 C 1490.05 1110.30 1419.86 1124.61 1381.70 1165.29 C 1338.92 1210.89 1362.58 1281.04 1364.59 1287.08 C 1539.73 1292.07 1708.96 1284.06 1884.10 1289.05 Z" fill="none" node-id="68" stroke="#1a1a1a" stroke-linecap="butt" stroke-width="3" target-height="253.3999" target-width="642.0199" target-x="1338.92" target-y="1038.67"></path><path d="M 550.20 1060.67 L 550.20 1268.83 C 550.20 1268.83 597.13 1267.23 618.58 1268.83 L 618.58 1057.58 C 575.19 1060.42 550.20 1060.67 550.20 1060.67 Z" fill="#ffffff" fill-rule="nonzero" node-id="70" stroke="#1a1a1a" stroke-linecap="round" stroke-width="3" target-height="211.25" target-width="68.380005" target-x="550.2" target-y="1057.58"></path><path d="M 813.96 1036.61 C 805.43 1037.87 797.06 1039.06 788.84 1040.18 L 788.84 1269.70 C 797.00 1269.27 805.37 1268.78 813.96 1268.22 Z" fill="#ffffff" fill-rule="nonzero" node-id="72" stroke="#1a1a1a" stroke-linecap="round" stroke-width="3" target-height="233.08997" target-width="25.119995" target-x="788.84" target-y="1036.61"></path><path d="M 1044.22 991.63 C 1025.37 996.28 1006.76 1000.63 988.40 1004.67 L 988.40 1248.39 C 1006.52 1245.50 1025.13 1242.27 1044.22 1238.70 Z" fill="#ffffff" fill-rule="nonzero" node-id="74" stroke="#1a1a1a" stroke-linecap="round" stroke-width="3" target-height="256.76" target-width="55.819946" target-x="988.4" target-y="991.63"></path><path d="M 1906.68 412.30 L 1654.08 534.17 L 1814.57 549.63 C 1662.55 745.83 1436.43 866.72 1217.27 941.21 L 1217.27 1198.71 C 1235.52 1193.71 1254.05 1188.37 1272.85 1182.70 C 1705.72 1052.03 1867.90 569.52 1867.90 569.52 L 1979.95 680.63 Z" fill="#ffffff" fill-rule="nonzero" node-id="76" stroke="#1a1a1a" stroke-linecap="round" stroke-width="3" target-height="786.41" target-width="762.67993" target-x="1217.27" target-y="412.3"></path><path d="M 620.78 781.70 L 767.44 781.70 L 767.44 1339.63 L 620.78 1339.63 Z" fill="none" node-id="78" stroke="#1a1a1a" stroke-linecap="round" stroke-width="3" target-height="557.93" target-width="146.65997" target-x="620.78" target-y="781.7"></path><path d="M 967.29 503.84 L 987.71 543.35 L 987.71 1339.63 L 967.29 1339.63 L 967.29 503.84 Z" fill="#ffc063" fill-rule="nonzero" node-id="80" stroke="#1a1a1a" stroke-linecap="round" stroke-width="2" target-height="835.79004" target-width="20.420044" target-x="967.29" target-y="503.84"></path><path d="M 1196.62 623.76 L 1217.04 663.26 L 1217.04 1339.63 L 1196.62 1339.63 L 1196.62 623.76 Z" fill="#ffc063" fill-rule="nonzero" node-id="82" stroke="#1a1a1a" stroke-linecap="round" stroke-width="2" target-height="715.87" target-width="20.420044" target-x="1196.62" target-y="623.76"></path><path d="M 767.44 781.71 L 787.86 821.21 L 787.86 1339.63 L 767.44 1339.63 L 767.44 781.71 Z" fill="#ffc063" fill-rule="nonzero" node-id="84" stroke="#1a1a1a" stroke-linecap="round" stroke-width="2" target-height="557.92" target-width="20.419983" target-x="767.44" target-y="781.71"></path><path d="M 813.64 503.84 L 967.29 503.84 L 967.29 1339.63 L 813.64 1339.63 Z" fill="none" node-id="86" stroke="#1a1a1a" stroke-linecap="round" stroke-width="3" target-height="835.79004" target-width="153.64996" target-x="813.64" target-y="503.84"></path><path d="M 1042.98 623.76 L 1196.63 623.76 L 1196.63 1339.63 L 1042.98 1339.63 Z" fill="none" node-id="88" stroke="#1a1a1a" stroke-linecap="round" stroke-width="3" target-height="715.87" target-width="153.65002" target-x="1042.98" target-y="623.76"></path><path d="M 1690.61 349.46 C 1689.00 337.13 1682.55 325.94 1672.69 318.36 C 1662.83 310.78 1650.36 307.43 1638.03 309.05 L 1196.74 366.74 C 1193.73 367.13 1190.77 367.81 1187.90 368.77 C 1154.94 282.03 1071.03 220.37 972.72 220.37 C 845.62 220.37 742.59 323.41 742.59 450.50 C 742.59 577.60 845.62 680.63 972.72 680.63 C 1096.59 680.63 1197.59 582.77 1202.64 460.14 C 1204.74 460.14 1206.83 460.01 1208.91 459.74 L 1650.18 402.03 C 1675.86 398.68 1693.96 375.14 1690.61 349.46 Z M 980.56 627.10 C 977.95 627.21 975.34 627.27 972.72 627.27 C 875.24 627.27 795.95 547.97 795.95 450.50 C 795.95 353.02 875.24 273.73 972.72 273.73 C 975.34 273.73 977.95 273.79 980.56 273.91 C 1074.41 278.02 1149.49 355.65 1149.49 450.50 C 1149.49 545.35 1074.41 622.99 980.56 627.10 Z" fill="#ffffff" fill-rule="nonzero" node-id="90" stroke="#1a1a1a" stroke-linecap="round" stroke-width="3" target-height="460.26" target-width="951.36993" target-x="742.59" target-y="220.37"></path><path d="M 980.56 627.10 C 977.95 627.21 975.34 627.27 972.72 627.27 C 875.24 627.27 795.95 547.97 795.95 450.50 C 795.95 353.02 875.24 273.73 972.72 273.73 C 975.34 273.73 977.95 273.79 980.56 273.91 C 886.71 278.02 811.64 355.65 811.64 450.50 C 811.64 545.35 886.71 622.99 980.56 627.10 Z" fill="#ffc063" fill-rule="nonzero" node-id="92" stroke="#1a1a1a" stroke-linecap="round" stroke-width="2" target-height="353.54" target-width="184.60999" target-x="795.95" target-y="273.73"></path><path d="M 1500.80 1280.67 L 1500.80 1339.63 C 1500.80 1339.63 1597.80 1333.92 1613.01 1334.55 C 1628.23 1335.19 1628.15 1318.79 1621.26 1315.69 C 1580.60 1312.13 1551.84 1300.48 1551.84 1300.48 L 1534.96 1285.03 Z" fill="#3f3325" fill-rule="nonzero" node-id="94" stroke="#1a1a1a" stroke-linecap="round" stroke-width="1" target-height="58.95996" target-width="127.42993" target-x="1500.8" target-y="1280.67"></path><path d="M 1487.80 1155.78 L 1487.80 1292.71 L 1550.25 1292.71 L 1550.25 1160.85 L 1487.80 1155.78 Z" fill="#ffffff" fill-rule="nonzero" node-id="96" stroke="#1a1a1a" stroke-linecap="round" stroke-width="3" target-height="136.92993" target-width="62.44995" target-x="1487.8" target-y="1155.78"></path><path d="M 1443.50 1280.67 L 1443.50 1339.63 C 1443.50 1339.63 1346.51 1333.92 1331.29 1334.55 C 1316.08 1335.19 1316.16 1318.79 1323.05 1315.69 C 1363.70 1312.13 1392.47 1300.48 1392.47 1300.48 L 1409.35 1285.03 Z" fill="#3f3325" fill-rule="nonzero" node-id="98" stroke="#1a1a1a" stroke-linecap="round" stroke-width="1" target-height="58.95996" target-width="127.420044" target-x="1316.08" target-y="1280.67"></path><path d="M 1456.51 1155.78 L 1456.51 1292.71 L 1394.05 1292.71 L 1394.05 1160.85 L 1456.51 1155.78 Z" fill="#ffffff" fill-rule="nonzero" node-id="100" stroke="#1a1a1a" stroke-linecap="round" stroke-width="3" target-height="136.92993" target-width="62.45996" target-x="1394.05" target-y="1155.78"></path><path d="M 1302.22 626.27 C 1302.22 626.27 1243.37 675.27 1292.29 700.22 L 1299.43 704.01 L 1346.14 626.27 L 1316.48 606.77 Z" fill="#ffffff" fill-rule="nonzero" node-id="102" stroke="#1a1a1a" stroke-linecap="round" stroke-width="3" target-height="97.23999" target-width="102.77002" target-x="1243.37" target-y="606.77"></path><path d="M 1558.02 583.47 C 1558.02 583.47 1647.40 641.95 1632.54 906.88 C 1619.97 1131.09 1599.38 1231.49 1599.38 1231.49 L 1366.39 1238.46 C 1366.39 1238.46 1301.61 764.44 1305.39 717.34 C 1310.35 623.76 1348.34 624.84 1348.34 624.84 Z" fill="#ffffff" fill-rule="nonzero" node-id="104" stroke="#1a1a1a" stroke-linecap="round" stroke-width="3" target-height="654.99" target-width="345.79004" target-x="1301.61" target-y="583.47"></path><path d="M 1365.85 638.84 C 1365.85 638.84 1470.45 703.94 1602.36 609.75 L 1586.35 594.65 Z" fill="#3f3325" fill-rule="nonzero" node-id="106" stroke="#1a1a1a" stroke-linecap="round" stroke-width="1" target-height="109.28998" target-width="236.51001" target-x="1365.85" target-y="594.65"></path><path d="M 1198.41 554.15 L 1315.69 434.97 C 1315.69 434.97 1351.19 425.46 1356.26 458.43 L 1262.44 557.32 L 1327.73 607.41 L 1299.43 634.03 C 1299.43 634.03 1180.81 572.03 1198.41 554.15 Z" fill="#ffc063" fill-rule="nonzero" node-id="108" stroke="#1a1a1a" stroke-linecap="round" stroke-width="2" target-height="208.57004" target-width="175.44995" target-x="1180.81" target-y="425.46"></path><path d="M 1536.19 359.43 C 1536.19 359.43 1513.98 364.49 1510.64 344.75 C 1507.31 325.00 1497.32 322.47 1488.43 328.29 C 1484.27 325.00 1479.55 313.15 1505.65 308.45 C 1531.75 303.74 1547.57 306.27 1552.85 312.85 C 1558.12 319.44 1560.62 350.82 1560.62 350.82 Z" fill="#ffffff" fill-rule="nonzero" node-id="110" stroke="#1a1a1a" stroke-linecap="round" stroke-width="3" target-height="60.75" target-width="81.06995" target-x="1479.55" target-y="303.74"></path><path d="M 1423.46 415.32 L 1544.55 412.30 L 1524.89 361.75 C 1524.89 361.75 1519.51 345.26 1538.84 342.09 C 1558.18 338.92 1563.88 357.94 1563.88 357.94 L 1587.66 426.73 C 1587.66 426.73 1593.68 442.89 1562.30 446.70 C 1530.92 450.50 1448.82 450.50 1448.82 450.50 Z" fill="#ffc063" fill-rule="nonzero" node-id="112" stroke="#1a1a1a" stroke-linecap="round" stroke-width="2" target-height="111.57999" target-width="170.2201" target-x="1423.46" target-y="338.92"></path><path d="M 1322.66 420.86 L 1431.07 412.30 C 1431.07 412.30 1577.99 540.68 1599.38 599.16 C 1442.48 707.57 1322.66 627.69 1322.66 627.69 Z" fill="#ffc063" fill-rule="nonzero" node-id="114" stroke="#1a1a1a" stroke-linecap="round" stroke-width="2" target-height="295.27002" target-width="276.71997" target-x="1322.66" target-y="412.3"></path><path d="M 1245.64 354.46 C 1245.64 354.46 1224.72 458.11 1267.51 448.60 C 1310.30 439.09 1322.66 410.56 1322.66 410.56 Z" fill="#ffffff" fill-rule="nonzero" node-id="116" stroke="#1a1a1a" stroke-linecap="round" stroke-width="3" target-height="103.649994" target-width="97.94006" target-x="1224.72" target-y="354.46"></path><path d="M 1237.71 351.92 C 1237.71 351.92 1271.95 299.30 1318.22 312.61 C 1364.50 325.93 1441.79 409.78 1466.54 398.29 C 1436.14 486.32 1385.71 526.26 1315.52 451.45 C 1245.32 376.64 1237.71 351.92 1237.71 351.92 Z" fill="#3f3325" fill-rule="nonzero" node-id="118" stroke="#1a1a1a" stroke-linecap="round" stroke-width="1" target-height="226.96002" target-width="228.83008" target-x="1237.71" target-y="299.3"></path><path d="M 928.86 369.37 C 905.81 334.33 857.21 400.62 853.60 426.66 C 847.93 446.28 849.53 518.58 885.31 506.95 C 895.38 503.03 900.38 491.68 896.46 481.60 C 890.03 464.13 888.51 452.45 891.34 437.28 C 894.89 419.89 907.42 404.47 921.27 395.88 L 921.27 395.87 C 930.65 390.62 934.04 378.79 928.86 369.37 Z" fill="#ffffff" fill-rule="nonzero" node-id="120" stroke="#1a1a1a" stroke-linecap="round" stroke-width="3" target-height="184.25003" target-width="86.109985" target-x="847.93" target-y="334.33"></path><path d="M 1217.27 1289.05 L 1996.00 1289.05" fill="#ffffff" fill-rule="nonzero" node-id="122" stroke="#1a1a1a" stroke-linecap="round" stroke-width="3" target-height="0" target-width="778.73" target-x="1217.27" target-y="1289.05"></path><path d="M 708.10 699.09 C 708.19 694.81 706.47 690.69 703.38 687.74 C 700.23 684.67 694.92 681.88 687.45 679.39 C 677.05 676.22 669.47 672.08 664.72 666.98 C 659.96 661.88 657.58 655.40 657.58 647.54 C 657.58 639.54 659.91 632.97 664.57 627.85 C 669.23 622.72 675.64 619.67 683.79 618.69 L 683.79 602.66 L 694.70 602.66 L 694.70 618.77 C 702.90 619.89 709.28 623.33 713.85 629.09 C 718.41 634.85 720.69 642.73 720.69 652.74 L 707.22 652.74 C 707.22 645.84 705.58 640.35 702.31 636.29 C 699.12 632.26 694.20 629.99 689.06 630.19 C 683.25 630.19 678.81 631.69 675.73 634.70 C 672.66 637.71 671.12 641.90 671.12 647.28 C 671.12 652.27 672.74 656.24 675.99 659.20 C 679.24 662.16 684.58 664.85 692.03 667.27 C 699.47 669.69 705.28 672.35 709.45 675.26 C 713.32 677.82 716.49 681.31 718.68 685.40 C 720.74 689.61 721.75 694.26 721.64 698.94 C 721.64 707.19 719.17 713.83 714.21 718.86 C 709.26 723.89 702.31 726.87 693.38 727.79 L 693.38 741.78 L 682.54 741.78 L 682.54 727.79 C 673.47 726.96 666.35 723.73 661.20 718.09 C 656.05 712.45 653.47 704.80 653.48 695.14 L 667.02 695.14 C 667.02 701.92 668.80 707.14 672.37 710.81 C 675.93 714.47 680.98 716.30 687.52 716.30 C 693.92 716.30 698.95 714.76 702.61 711.68 C 706.27 708.61 708.10 704.41 708.10 699.09 Z" fill="#ffffff" fill-rule="nonzero" node-id="124" stroke="#1a1a1a" stroke-linecap="round" stroke-width="3" target-height="139.12006" target-width="68.28003" target-x="653.47" target-y="602.66"></path><path d="M 640.58 851.11 L 727.83 851.11" fill="#ffffff" fill-rule="nonzero" node-id="126" stroke="#1a1a1a" stroke-linecap="round" stroke-width="3" target-height="0" target-width="87.25" target-x="640.58" target-y="851.11"></path><path d="M 640.58 934.01 L 727.83 934.01" fill="#ffffff" fill-rule="nonzero" node-id="128" stroke="#1a1a1a" stroke-linecap="round" stroke-width="3" target-height="0" target-width="87.25" target-x="640.58" target-y="934.01"></path><path d="M 640.58 1016.91 L 727.83 1016.91" fill="#ffffff" fill-rule="nonzero" node-id="130" stroke="#1a1a1a" stroke-linecap="round" stroke-width="3" target-height="0" target-width="87.25" target-x="640.58" target-y="1016.91"></path><path d="M 640.58 1099.80 L 727.83 1099.80" fill="#ffffff" fill-rule="nonzero" node-id="132" stroke="#1a1a1a" stroke-linecap="round" stroke-width="3" target-height="0" target-width="87.25" target-x="640.58" target-y="1099.8"></path><path d="M 640.58 1182.70 L 727.83 1182.70" fill="#ffffff" fill-rule="nonzero" node-id="134" stroke="#1a1a1a" stroke-linecap="round" stroke-width="3" target-height="0" target-width="87.25" target-x="640.58" target-y="1182.7"></path><path d="M 640.58 1265.60 L 727.83 1265.60" fill="#ffffff" fill-rule="nonzero" node-id="136" stroke="#1a1a1a" stroke-linecap="round" stroke-width="3" target-height="0" target-width="87.25" target-x="640.58" target-y="1265.6"></path><path d="M 841.78 851.11 L 929.03 851.11" fill="#ffffff" fill-rule="nonzero" node-id="138" stroke="#1a1a1a" stroke-linecap="round" stroke-width="3" target-height="0" target-width="87.25" target-x="841.78" target-y="851.11"></path><path d="M 841.78 934.01 L 929.03 934.01" fill="#ffffff" fill-rule="nonzero" node-id="140" stroke="#1a1a1a" stroke-linecap="round" stroke-width="3" target-height="0" target-width="87.25" target-x="841.78" target-y="934.01"></path><path d="M 841.78 1016.91 L 929.03 1016.91" fill="#ffffff" fill-rule="nonzero" node-id="142" stroke="#1a1a1a" stroke-linecap="round" stroke-width="3" target-height="0" target-width="87.25" target-x="841.78" target-y="1016.91"></path><path d="M 841.78 1099.80 L 929.03 1099.80" fill="#ffffff" fill-rule="nonzero" node-id="144" stroke="#1a1a1a" stroke-linecap="round" stroke-width="3" target-height="0" target-width="87.25" target-x="841.78" target-y="1099.8"></path><path d="M 841.78 1182.70 L 929.03 1182.70" fill="#ffffff" fill-rule="nonzero" node-id="146" stroke="#1a1a1a" stroke-linecap="round" stroke-width="3" target-height="0" target-width="87.25" target-x="841.78" target-y="1182.7"></path><path d="M 841.78 1265.60 L 929.03 1265.60" fill="#ffffff" fill-rule="nonzero" node-id="148" stroke="#1a1a1a" stroke-linecap="round" stroke-width="3" target-height="0" target-width="87.25" target-x="841.78" target-y="1265.6"></path><path d="M 1066.41 851.11 L 1153.66 851.11" fill="#ffffff" fill-rule="nonzero" node-id="150" stroke="#1a1a1a" stroke-linecap="round" stroke-width="3" target-height="0" target-width="87.25" target-x="1066.41" target-y="851.11"></path><path d="M 1066.41 934.01 L 1153.66 934.01" fill="#ffffff" fill-rule="nonzero" node-id="152" stroke="#1a1a1a" stroke-linecap="round" stroke-width="3" target-height="0" target-width="87.25" target-x="1066.41" target-y="934.01"></path><path d="M 1066.41 1016.91 L 1153.66 1016.91" fill="#ffffff" fill-rule="nonzero" node-id="154" stroke="#1a1a1a" stroke-linecap="round" stroke-width="3" target-height="0" target-width="87.25" target-x="1066.41" target-y="1016.91"></path><path d="M 1066.41 1099.80 L 1153.66 1099.80" fill="#ffffff" fill-rule="nonzero" node-id="156" stroke="#1a1a1a" stroke-linecap="round" stroke-width="3" target-height="0" target-width="87.25" target-x="1066.41" target-y="1099.8"></path><path d="M 1066.41 1182.70 L 1153.66 1182.70" fill="#ffffff" fill-rule="nonzero" node-id="158" stroke="#1a1a1a" stroke-linecap="round" stroke-width="3" target-height="0" target-width="87.25" target-x="1066.41" target-y="1182.7"></path><path d="M 1066.41 1265.60 L 1153.66 1265.60" fill="#ffffff" fill-rule="nonzero" node-id="160" stroke="#1a1a1a" stroke-linecap="round" stroke-width="3" target-height="0" target-width="87.25" target-x="1066.41" target-y="1265.6"></path><path d="M 1038.99 1289.05 L 988.40 1289.05" fill="#ffffff" fill-rule="nonzero" node-id="162" stroke="#1a1a1a" stroke-linecap="round" stroke-width="3" target-height="0" target-width="50.589966" target-x="988.4" target-y="1289.05"></path><path d="M 813.64 1289.05 L 787.86 1289.05" fill="#ffffff" fill-rule="nonzero" node-id="164" stroke="#1a1a1a" stroke-linecap="round" stroke-width="3" target-height="0" target-width="25.78003" target-x="787.86" target-y="1289.05"></path><path d="M 618.58 1289.05 L 344.00 1289.05" fill="#ffffff" fill-rule="nonzero" node-id="166" stroke="#1a1a1a" stroke-linecap="round" stroke-width="3" target-height="0" target-width="274.58002" target-x="344" target-y="1289.05"></path><path d="M 417.22 1251.47 L 493.89 1251.47 L 493.89 1339.14 L 417.22 1339.14 Z" fill="#3f3325" fill-rule="nonzero" node-id="168" stroke="#1a1a1a" stroke-linecap="round" stroke-width="1" target-height="87.670044" target-width="76.67001" target-x="417.22" target-y="1251.47"></path><path d="M 579.82 461.65 C 579.79 497.55 556.71 529.37 522.60 540.54 C 488.48 551.71 451.05 539.71 429.79 510.79 C 408.53 481.87 408.25 442.57 429.09 413.34 C 449.93 384.12 487.18 371.58 521.45 382.26 L 496.66 461.65 L 571.51 425.37 C 576.99 436.68 579.84 449.09 579.82 461.65 Z" fill="#ffffff" fill-rule="nonzero" node-id="170" stroke="#1a1a1a" stroke-linecap="round" stroke-width="3" target-height="180.13004" target-width="171.59003" target-x="408.25" target-y="371.58"></path><path d="M 583.61 410.92 L 508.77 447.21 L 533.56 367.81 C 555.46 374.68 573.57 390.28 583.61 410.92 Z" fill="#ffc063" fill-rule="nonzero" node-id="172" stroke="#1a1a1a" stroke-linecap="round" stroke-width="2" target-height="79.399994" target-width="74.84" target-x="508.77" target-y="367.81"></path><path d="M 1942.96 906.88 L 1942.96 991.63 L 1802.48 991.63 L 1802.48 906.88 L 1816.49 906.88 L 1872.72 949.25 L 1928.40 906.88 L 1942.96 906.88 Z" fill="#fbb040" fill-rule="nonzero" node-id="174" stroke="none" target-height="84.75" target-width="140.47998" target-x="1802.48" target-y="906.88"></path><path d="M 1941.22 890.84 L 1928.40 900.60 L 1872.72 942.97 L 1816.49 900.60 L 1805.86 892.59 L 1941.22 890.84 Z" fill="#e6dcd1" fill-rule="nonzero" node-id="176" stroke="none" target-height="52.129944" target-width="135.35999" target-x="1805.86" target-y="890.84"></path><path d="M 550.20 1003.38 C 550.20 1035.02 524.55 1060.67 492.91 1060.67 C 461.27 1060.67 435.62 1035.02 435.62 1003.38 C 435.62 971.74 461.27 946.09 492.91 946.09 C 524.55 946.09 550.20 971.74 550.20 1003.38 Z" fill="#fbb040" fill-rule="nonzero" node-id="178" stroke="none" target-height="114.58002" target-width="114.58002" target-x="435.62" target-y="946.09"></path></svg>