<?xml version="1.0" standalone="no"?><!DOCTYPE svg PUBLIC "-//W3C//DTD SVG 1.1//EN" "http://www.w3.org/Graphics/SVG/1.1/DTD/svg11.dtd"><svg height="1560" node-id="1" sillyvg="true" template-height="1560" template-width="2340" version="1.1" viewBox="0 0 2340 1560" width="2340" xmlns="http://www.w3.org/2000/svg" xmlns:xlink="http://www.w3.org/1999/xlink"><defs node-id="66"></defs><path d="M 675.62 435.76 C 675.62 484.68 635.96 524.34 587.04 524.34 C 538.12 524.34 498.47 484.68 498.47 435.76 C 498.47 386.85 538.12 347.19 587.04 347.19 C 635.96 347.19 675.62 386.85 675.62 435.76 Z" fill="#ffffff" fill-rule="nonzero" node-id="69" stroke="#1a1a1a" stroke-linecap="round" stroke-width="3" target-height="177.15002" target-width="177.15" target-x="498.47" target-y="347.19"></path><path d="M 582.95 375.39 L 582.95 442.51 L 624.81 484.36" fill="#ffffff" fill-rule="nonzero" node-id="71" stroke="#1a1a1a" stroke-linecap="round" stroke-width="3" target-height="108.96997" target-width="41.859985" target-x="582.95" target-y="375.39"></path><g node-id="189"><path d="M 1370.33 728.29 L 1370.33 475.09 L 1978.86 475.09 L 1978.86 728.29 Z" fill="#fbb040" fill-rule="nonzero" group-id="1" node-id="75" stroke="none" target-height="253.19998" target-width="608.53" target-x="1370.33" target-y="475.09"></path></g><path d="M 1393.95 496.69 L 1955.24 496.69 L 1955.24 706.69 L 1393.95 706.69 Z" fill="#ffffff" fill-rule="nonzero" node-id="78" stroke="#1a1a1a" stroke-linecap="round" stroke-width="3" target-height="210" target-width="561.29004" target-x="1393.95" target-y="496.69"></path><path d="M 1415.51 628.77 L 1454.48 605.32 L 1480.08 611.19 L 1500.93 591.65 L 1539.12 603.86 L 1585.57 580.91 L 1619.51 589.70 L 1645.39 551.60 L 1662.36 558.44 L 1696.94 548.67 L 1717.94 556.00 L 1744.03 569.67 L 1768.85 570.16 L 1790.49 557.46 L 1813.40 570.65 L 1841.40 577.49 L 1869.40 561.86 L 1869.40 543.79 L 1888.49 528.16 L 1906.95 524.74 C 1906.95 524.74 1916.50 513.02 1919.68 513.02 L 1933.68 513.02" fill="none" node-id="80" stroke="#1a1a1a" stroke-linecap="round" stroke-width="3" target-height="115.75" target-width="518.17004" target-x="1415.51" target-y="513.02"></path><path d="M 1420.47 661.82 L 1449.39 680.92 L 1474.65 659.86 L 1507.93 659.86 L 1547.39 642.72 L 1585.57 649.58 L 1611.45 631.46 L 1674.60 635.38 L 1707.76 620.20 L 1753.58 610.89 L 1772.04 596.20 L 1824.86 614.45 L 1843.31 590.91 L 1880.22 572.21 L 1933.68 583.96" fill="none" node-id="82" stroke="#1a1a1a" stroke-linecap="round" stroke-width="3" target-height="108.70996" target-width="513.2101" target-x="1420.47" target-y="572.21"></path><path d="M 1811.70 647.97 L 1894.43 647.97 L 1894.43 656.88 L 1811.70 656.88 Z" fill="#3f3325" fill-rule="nonzero" node-id="84" stroke="#1a1a1a" stroke-linecap="round" stroke-width="1" target-height="8.910034" target-width="82.7301" target-x="1811.7" target-y="647.97"></path><path d="M 1811.70 672.01 L 1894.43 672.01 L 1894.43 680.92 L 1811.70 680.92 Z" fill="#3f3325" fill-rule="nonzero" node-id="86" stroke="#1a1a1a" stroke-linecap="round" stroke-width="1" target-height="8.909973" target-width="82.7301" target-x="1811.7" target-y="672.01"></path><path d="M 1521.11 1078.57 L 1504.30 1078.57 L 1522.88 992.42 L 1539.69 992.42 L 1521.11 1078.57 Z" fill="#fbb040" fill-rule="nonzero" node-id="88" stroke="#1a1a1a" stroke-linecap="round" stroke-width="2" target-height="86.14996" target-width="35.389893" target-x="1504.3" target-y="992.42"></path><path d="M 1548.09 1078.57 L 1531.28 1078.57 L 1549.86 992.42 L 1566.67 992.42 L 1548.09 1078.57 Z" fill="#fbb040" fill-rule="nonzero" node-id="90" stroke="#1a1a1a" stroke-linecap="round" stroke-width="2" target-height="86.14996" target-width="35.390015" target-x="1531.28" target-y="992.42"></path><path d="M 1575.07 1078.57 L 1558.27 1078.57 L 1576.84 992.42 L 1593.65 992.42 L 1575.07 1078.57 Z" fill="#ffffff" fill-rule="nonzero" node-id="92" stroke="#1a1a1a" stroke-linecap="round" stroke-width="2" target-height="86.14996" target-width="35.380005" target-x="1558.27" target-y="992.42"></path><path d="M 1602.06 1078.57 L 1585.25 1078.57 L 1603.83 992.42 L 1620.63 992.42 L 1602.06 1078.57 Z" fill="#ffffff" fill-rule="nonzero" node-id="94" stroke="#1a1a1a" stroke-linecap="round" stroke-width="2" target-height="86.14996" target-width="35.380005" target-x="1585.25" target-y="992.42"></path><path d="M 1629.04 1078.57 L 1612.23 1078.57 L 1630.81 992.42 L 1647.61 992.42 L 1629.04 1078.57 Z" fill="#fbb040" fill-rule="nonzero" node-id="96" stroke="#1a1a1a" stroke-linecap="round" stroke-width="2" target-height="86.14996" target-width="35.380005" target-x="1612.23" target-y="992.42"></path><path d="M 1693.17 1078.57 L 1709.98 1078.57 L 1691.40 992.42 L 1674.60 992.42 L 1693.17 1078.57 Z" fill="#ffffff" fill-rule="nonzero" node-id="98" stroke="#1a1a1a" stroke-linecap="round" stroke-width="2" target-height="86.14996" target-width="35.380005" target-x="1674.6" target-y="992.42"></path><path d="M 1666.19 1078.57 L 1683.00 1078.57 L 1664.42 992.42 L 1647.61 992.42 L 1666.19 1078.57 Z" fill="#e6dcd1" fill-rule="nonzero" node-id="100" stroke="#1a1a1a" stroke-linecap="butt" stroke-width="2" target-height="86.14996" target-width="35.390015" target-x="1647.61" target-y="992.42"></path><path d="M 1946.90 1360.04 C 1975.37 1123.58 1577.66 1034.44 1431.91 1330.89 C 1377.48 1287.03 1256.54 1282.64 1242.87 1360.59 L 1440.17 1360.59 L 1440.17 1360.04 Z" fill="#ffffff" fill-rule="nonzero" node-id="102" stroke="#1a1a1a" stroke-linecap="round" stroke-width="2" target-height="326.15002" target-width="732.5" target-x="1242.87" target-y="1034.44"></path><path d="M 470.60 1360.59 C 470.60 1360.59 504.30 1296.95 551.65 1268.14 C 615.57 1229.25 691.69 1231.31 746.02 1252.51 C 817.27 1280.31 879.09 1360.56 879.14 1360.59 Z" fill="#ffffff" fill-rule="nonzero" node-id="104" stroke="#1a1a1a" stroke-linecap="round" stroke-width="2" target-height="131.33997" target-width="408.54" target-x="470.6" target-y="1229.25"></path><path d="M 1313.27 1247.56 L 1339.81 1247.56 L 1339.81 1360.59 L 1313.27 1360.59 Z" fill="#3f3325" fill-rule="nonzero" node-id="106" stroke="#1a1a1a" stroke-linecap="round" stroke-width="1" target-height="113.02991" target-width="26.54004" target-x="1313.27" target-y="1247.56"></path><path d="M 1716.91 1247.56 L 1743.45 1247.56 L 1743.45 1360.59 L 1716.91 1360.59 Z" fill="#3f3325" fill-rule="nonzero" node-id="108" stroke="#1a1a1a" stroke-linecap="round" stroke-width="1" target-height="113.02991" target-width="26.539917" target-x="1716.91" target-y="1247.56"></path><path d="M 1813.55 1137.12 L 1813.55 1208.77 L 1813.35 1213.64 L 1812.78 1218.33 L 1811.85 1222.87 L 1810.57 1227.28 L 1808.32 1232.98 L 1805.56 1238.33 L 1802.26 1243.35 L 1798.46 1248.01 L 1794.24 1252.23 L 1789.58 1256.02 L 1784.56 1259.33 L 1779.21 1262.09 L 1773.51 1264.34 L 1769.10 1265.62 L 1764.56 1266.54 L 1759.87 1267.11 L 1755.01 1267.32 L 1292.11 1267.32 L 1287.25 1267.11 L 1282.56 1266.54 L 1278.01 1265.62 L 1273.61 1264.34 L 1267.90 1262.09 L 1262.56 1259.33 L 1257.54 1256.02 L 1252.88 1252.23 L 1248.66 1248.01 L 1244.86 1243.35 L 1241.56 1238.33 L 1238.79 1232.98 L 1236.55 1227.28 L 1235.27 1222.87 L 1234.34 1218.33 L 1233.77 1213.64 L 1233.57 1208.77 L 1233.57 1137.12 L 1233.77 1132.26 L 1234.34 1127.56 L 1235.27 1123.02 L 1236.55 1118.61 L 1238.79 1112.91 L 1241.56 1107.56 L 1244.86 1102.54 L 1248.66 1097.88 L 1252.88 1093.67 L 1257.54 1089.87 L 1262.56 1086.57 L 1267.90 1083.80 L 1273.61 1081.56 L 1278.01 1080.28 L 1282.56 1079.35 L 1287.25 1078.78 L 1292.11 1078.57 L 1755.01 1078.57 L 1759.87 1078.78 L 1764.56 1079.35 L 1769.10 1080.28 L 1773.51 1081.56 L 1779.21 1083.80 L 1784.56 1086.57 L 1789.58 1089.87 L 1794.24 1093.67 L 1798.46 1097.88 L 1802.26 1102.54 L 1805.56 1107.56 L 1808.32 1112.91 L 1810.57 1118.61 L 1811.85 1123.02 L 1812.78 1127.56 L 1813.35 1132.26 L 1813.55 1137.12 Z" fill="#ffffff" fill-rule="nonzero" group-id="2" node-id="112" stroke="#1a1a1a" stroke-linecap="round" stroke-width="2" target-height="188.75" target-width="579.9801" target-x="1233.57" target-y="1078.57"></path><path d="M 1292.11 1087.88 L 1755.01 1087.88 C 1782.20 1087.88 1804.24 1109.93 1804.24 1137.12 L 1804.24 1208.77 C 1804.24 1235.97 1782.20 1258.01 1755.01 1258.01 L 1292.11 1258.01 C 1264.92 1258.01 1242.87 1235.97 1242.87 1208.77 L 1242.87 1137.12 C 1242.87 1109.93 1264.92 1087.88 1292.11 1087.88 Z" fill="#ffffff" fill-rule="nonzero" node-id="115" stroke="#1a1a1a" stroke-linecap="round" stroke-width="2" target-height="170.13" target-width="561.37" target-x="1242.87" target-y="1087.88"></path><path d="M 1185.88 1360.59 L 1173.61 1360.59 C 1173.61 1360.59 1158.01 1360.59 1137.45 1353.62 C 1116.88 1346.66 1103.28 1327.91 1103.28 1327.91 L 1099.63 1360.29 L 1087.35 1360.29 L 1085.66 1295.65 C 1085.66 1295.65 1103.58 1281.65 1150.93 1311.21 C 1172.74 1323.53 1189.20 1351.37 1189.20 1351.37 C 1189.20 1351.37 1197.16 1359.20 1185.88 1360.59" fill="#3f3325" fill-rule="nonzero" node-id="117" stroke="#1a1a1a" stroke-linecap="round" stroke-width="1" target-height="78.93994" target-width="111.5" target-x="1085.66" target-y="1281.65"></path><path d="M 1103.98 1175.12 C 1103.98 1175.12 1119.14 1295.53 1150.93 1310.79 C 1150.93 1310.79 1137.28 1310.97 1126.06 1318.76 C 1115.68 1299.11 1085.66 1295.23 1085.66 1295.23 C 1085.66 1295.23 1085.66 1239.26 1063.29 1176.00 C 1069.44 1176.00 1103.98 1175.12 1103.98 1175.12 Z" fill="#ffffff" fill-rule="nonzero" node-id="119" stroke="#1a1a1a" stroke-linecap="round" stroke-width="2" target-height="143.64001" target-width="87.640015" target-x="1063.29" target-y="1175.12"></path><path d="M 694.95 1024.16 L 610.95 1359.26 L 621.96 1359.26 L 730.51 1036.82 L 694.95 1024.16 Z" fill="#ffffff" fill-rule="nonzero" node-id="121" stroke="#1a1a1a" stroke-linecap="round" stroke-width="2" target-height="335.09998" target-width="119.56" target-x="610.95" target-y="1024.16"></path><path d="M 877.54 1033.39 L 959.23 1359.26 L 948.23 1359.26 L 844.37 1050.79 L 877.54 1033.39 Z" fill="#ffffff" fill-rule="nonzero" node-id="123" stroke="#1a1a1a" stroke-linecap="round" stroke-width="2" target-height="325.87" target-width="114.859985" target-x="844.37" target-y="1033.39"></path><path d="M 931.72 999.36 C 895.04 999.36 863.80 995.40 837.14 988.81 C 816.18 983.78 795.92 976.18 776.81 966.20 C 762.78 958.80 749.60 949.89 737.51 939.61 C 727.93 931.45 719.11 922.44 711.14 912.69 C 698.29 896.86 687.55 879.43 679.21 860.82 C 673.52 848.21 668.77 835.19 665.01 821.88 C 660.49 805.97 657.27 789.72 655.38 773.29 C 654.44 765.54 653.92 757.75 653.82 749.95 C 653.82 749.73 653.82 749.61 653.82 749.58 L 653.82 749.58 L 653.81 749.58 C 654.32 721.35 631.88 698.05 603.66 697.49 C 575.44 696.92 552.09 719.31 551.46 747.53 L 551.46 747.52 C 551.45 747.89 551.44 748.71 551.44 749.95 C 551.45 757.73 551.96 782.24 558.37 815.56 C 564.04 845.33 573.14 874.35 585.48 902.03 C 596.88 927.56 611.39 951.57 628.69 973.53 C 643.34 992.06 660.05 1008.86 678.48 1023.63 C 693.63 1035.74 709.84 1046.44 726.92 1055.61 C 753.58 1069.97 783.94 1081.58 818.02 1089.51 C 852.11 1097.45 889.91 1101.74 931.72 1101.74 C 960.00 1101.74 982.91 1078.82 982.91 1050.55 C 982.91 1022.28 960.00 999.36 931.72 999.36 Z M 653.82 749.58 Z" fill="#fbb040" fill-rule="nonzero" node-id="125" stroke="none" target-height="404.82" target-width="431.46997" target-x="551.44" target-y="696.92"></path><path d="M 944.09 522.71 C 944.09 522.71 982.91 489.52 936.85 455.24 C 896.19 424.99 825.38 449.94 824.72 516.28 C 779.60 532.21 778.53 580.84 793.16 597.23 C 753.07 604.53 733.16 626.10 755.06 651.14 C 776.95 676.18 925.11 680.71 930.54 661.59 C 933.51 651.14 923.61 624.13 906.97 617.35 C 937.03 585.51 944.09 522.71 944.09 522.71 Z" fill="#3f3325" fill-rule="nonzero" node-id="127" stroke="#1a1a1a" stroke-linecap="round" stroke-width="1" target-height="255.72003" target-width="249.75" target-x="733.16" target-y="424.99"></path><path d="M 1043.85 819.83 C 1043.85 819.83 1078.10 797.93 1106.59 797.60 C 1135.08 797.27 1134.08 831.31 1127.11 835.75 C 1120.15 840.19 1057.78 840.19 1057.78 840.19 Z" fill="#ffffff" fill-rule="nonzero" node-id="129" stroke="#1a1a1a" stroke-linecap="round" stroke-width="2" target-height="42.919983" target-width="91.22998" target-x="1043.85" target-y="797.27"></path><path d="M 889.66 637.89 C 889.66 637.89 947.99 656.36 957.39 667.13 C 980.38 693.44 985.45 803.37 999.79 809.15 C 1014.13 814.92 1049.99 811.25 1049.99 811.25 L 1067.92 843.29 C 1067.92 843.29 1006.45 867.98 976.23 856.42 C 946.00 844.87 933.20 772.90 933.20 772.90 C 933.20 772.90 907.07 844.99 943.44 873.82 C 953.33 882.69 958.81 886.19 958.81 886.19 L 925.51 896.87 C 925.51 896.87 832.27 807.95 797.08 725.87 C 785.19 698.14 804.35 656.44 802.58 637.53 C 801.55 626.59 828.60 630.13 852.82 634.17 C 871.67 637.31 888.80 640.75 889.66 637.89 Z" fill="#ffffff" fill-rule="nonzero" node-id="131" stroke="#1a1a1a" stroke-linecap="round" stroke-width="2" target-height="270.27997" target-width="282.73004" target-x="785.19" target-y="626.59"></path><path d="M 900.20 645.09 L 889.28 643.43 L 855.75 634.90 C 855.75 634.90 859.40 660.35 861.39 667.65 C 863.38 674.95 883.69 803.85 883.69 803.85 L 902.52 801.28 Z" fill="#fbb040" fill-rule="nonzero" node-id="133" stroke="#1a1a1a" stroke-linecap="round" stroke-width="2" target-height="168.94995" target-width="46.77002" target-x="855.75" target-y="634.9"></path><path d="M 1104.94 1360.59 L 1092.66 1360.59 C 1092.66 1360.59 1077.07 1360.59 1056.50 1353.62 C 1035.93 1346.66 1022.33 1327.91 1022.33 1327.91 L 1018.68 1360.29 L 1006.41 1360.29 L 1004.72 1295.65 C 1004.72 1295.65 1022.63 1281.65 1069.98 1311.21 C 1091.79 1323.53 1108.25 1351.37 1108.25 1351.37 C 1108.25 1351.37 1116.22 1359.20 1104.94 1360.59" fill="#3f3325" fill-rule="nonzero" node-id="135" stroke="#1a1a1a" stroke-linecap="round" stroke-width="1" target-height="78.93994" target-width="111.5" target-x="1004.72" target-y="1281.65"></path><path d="M 1029.99 1168.87 C 1029.99 1168.87 1042.18 1295.53 1069.98 1310.79 C 1069.98 1310.79 1056.34 1310.97 1045.11 1318.76 C 1034.73 1299.11 1004.72 1295.23 1004.72 1295.23 L 1004.72 1166.14 C 1010.87 1166.14 1029.99 1168.87 1029.99 1168.87 Z" fill="#ffffff" fill-rule="nonzero" node-id="137" stroke="#1a1a1a" stroke-linecap="round" stroke-width="2" target-height="152.62" target-width="65.26001" target-x="1004.72" target-y="1166.14"></path><path d="M 1195.12 1251.84 C 1195.12 1251.84 1067.37 1274.95 978.56 1274.44 C 954.03 1274.30 932.45 1272.36 917.37 1267.62 C 950.35 994.08 868.09 992.49 786.69 993.72 C 777.77 982.81 772.30 972.45 769.56 962.65 C 749.72 891.45 874.80 850.28 874.80 850.28 L 1011.97 853.01 C 1153.25 867.36 1195.12 1251.84 1195.12 1251.84 Z" fill="#ffffff" fill-rule="nonzero" node-id="139" stroke="#1a1a1a" stroke-linecap="round" stroke-width="2" target-height="424.66992" target-width="445.40002" target-x="749.72" target-y="850.28"></path><path d="M 917.37 1267.62 C 950.35 994.08 868.09 992.49 786.69 993.72 C 777.77 982.81 772.30 972.45 769.56 962.65 C 801.79 956.94 888.94 948.23 930.54 1010.00 C 971.46 1070.77 977.72 1216.63 978.56 1274.44 C 954.03 1274.30 932.45 1272.36 917.37 1267.62 Z" fill="#ffffff" fill-rule="nonzero" node-id="141" stroke="#1a1a1a" stroke-linecap="round" stroke-width="2" target-height="326.20996" target-width="209" target-x="769.56" target-y="948.23"></path><path d="M 769.56 756.54 C 769.56 756.54 784.93 849.10 691.54 912.81 C 718.41 971.19 782.02 1019.01 818.27 1024.16 C 889.28 912.47 880.05 860.46 880.05 860.46" fill="#ffffff" fill-rule="nonzero" node-id="143" stroke="#1a1a1a" stroke-linecap="round" stroke-width="2" target-height="267.62006" target-width="197.74005" target-x="691.54" target-y="756.54"></path><path d="M 878.22 552.24 L 848.85 624.64 C 848.85 624.64 863.87 647.18 878.22 650.59 C 892.56 654.01 897.34 640.35 897.34 640.35 C 897.34 640.35 889.83 617.13 897.34 588.44 C 888.46 561.12 878.22 552.24 878.22 552.24 Z" fill="#ffffff" fill-rule="nonzero" node-id="145" stroke="#1a1a1a" stroke-linecap="round" stroke-width="2" target-height="101.77002" target-width="48.49005" target-x="848.85" target-y="552.24"></path><path d="M 944.28 509.38 C 944.28 509.38 946.30 608.91 908.74 605.50 C 871.17 602.08 863.19 560.44 863.19 560.44 C 863.19 560.44 839.28 561.12 839.28 543.36 C 839.28 525.60 861.14 532.43 861.14 532.43 C 861.14 532.43 866.85 487.42 920.62 505.41 C 938.35 492.82 941.01 500.36 944.28 509.38 Z" fill="#ffffff" fill-rule="nonzero" node-id="147" stroke="#1a1a1a" stroke-linecap="round" stroke-width="2" target-height="121.48996" target-width="107.01996" target-x="839.28" target-y="487.42"></path><path d="M 922.58 648.39 L 896.22 634.90 C 896.22 634.90 895.65 709.64 897.34 744.93 C 899.03 780.23 897.34 809.13 897.34 809.13 L 908.32 809.13 L 927.23 704.45 L 910.31 680.23 L 930.54 678.84 C 930.54 678.84 930.13 652.66 922.58 648.39 Z" fill="#ffffff" fill-rule="nonzero" node-id="149" stroke="#1a1a1a" stroke-linecap="round" stroke-width="2" target-height="174.22998" target-width="34.889954" target-x="895.65" target-y="634.9"></path><path d="M 1244.49 199.87 L 1244.49 384.79" fill="none" node-id="151" stroke="#1a1a1a" stroke-linecap="round" stroke-width="3" target-height="184.92001" target-width="0" target-x="1244.49" target-y="199.87"></path><path d="M 1179.50 424.65 L 1309.48 424.65 L 1244.49 381.32 L 1179.50 424.65 Z" fill="#fbb040" fill-rule="nonzero" node-id="153" stroke="#1a1a1a" stroke-linecap="round" stroke-width="2" target-height="43.329987" target-width="129.97998" target-x="1179.5" target-y="381.32"></path><path d="M 1435.13 199.87 L 1435.13 384.79" fill="none" node-id="155" stroke="#1a1a1a" stroke-linecap="round" stroke-width="3" target-height="184.92001" target-width="0" target-x="1435.13" target-y="199.87"></path><path d="M 1370.14 424.65 L 1500.12 424.65 L 1435.13 381.32 L 1370.14 424.65 Z" fill="#fbb040" fill-rule="nonzero" node-id="157" stroke="#1a1a1a" stroke-linecap="round" stroke-width="2" target-height="43.329987" target-width="129.97998" target-x="1370.14" target-y="381.32"></path><path d="M 360.67 1360.59 L 1965.42 1360.59" fill="#ffffff" fill-rule="nonzero" node-id="159" stroke="#1a1a1a" stroke-linecap="round" stroke-width="2" target-height="0" target-width="1604.75" target-x="360.67" target-y="1360.59"></path><path d="M 1469.60 888.90 L 1490.84 888.90 L 1490.84 1358.26 L 1469.60 1358.26 Z" fill="#ffffff" fill-rule="nonzero" node-id="161" stroke="#1a1a1a" stroke-linecap="round" stroke-width="2" target-height="469.36" target-width="21.23999" target-x="1469.6" target-y="888.9"></path><path d="M 968.01 888.90 L 989.25 888.90 L 989.25 1358.26 L 968.01 1358.26 Z" fill="#ffffff" fill-rule="nonzero" node-id="163" stroke="#1a1a1a" stroke-linecap="round" stroke-width="2" target-height="469.36" target-width="21.23999" target-x="968.01" target-y="888.9"></path><path d="M 913.89 850.28 L 1542.97 850.28 C 1553.38 850.28 1561.83 858.73 1561.83 869.14 L 1561.83 869.14 C 1561.83 879.56 1553.38 888.00 1542.97 888.00 L 913.89 888.00 C 903.47 888.00 895.03 879.56 895.03 869.14 L 895.03 869.14 C 895.03 858.73 903.47 850.28 913.89 850.28 Z" fill="#3f3325" fill-rule="nonzero" node-id="165" stroke="#1a1a1a" stroke-linecap="round" stroke-width="1" target-height="37.71997" target-width="666.7999" target-x="895.03" target-y="850.28"></path><path d="M 1283.22 840.19 L 1106.59 840.19 L 1152.25 694.79 L 1328.89 694.79 L 1283.22 840.19 Z" fill="#fbb040" fill-rule="nonzero" node-id="167" stroke="#1a1a1a" stroke-linecap="round" stroke-width="2" target-height="145.40002" target-width="222.30005" target-x="1106.59" target-y="694.79"></path><path d="M 1291.64 840.19 L 1115.00 840.19 L 1160.66 694.79 L 1337.30 694.79 L 1291.64 840.19 Z" fill="#ffffff" fill-rule="nonzero" node-id="169" stroke="#1a1a1a" stroke-linecap="round" stroke-width="2" target-height="145.40002" target-width="222.30005" target-x="1115" target-y="694.79"></path><path d="M 1115.00 840.19 L 1291.64 840.19 L 1291.64 849.80 L 1115.00 849.80 Z" fill="#ffffff" fill-rule="nonzero" node-id="171" stroke="#1a1a1a" stroke-linecap="round" stroke-width="2" target-height="9.609985" target-width="176.64001" target-x="1115" target-y="840.19"></path><path d="M 982.82 840.19 L 1115.00 840.19 L 1115.00 849.80 L 982.82 849.80 Z" fill="#ffffff" fill-rule="nonzero" node-id="173" stroke="#1a1a1a" stroke-linecap="round" stroke-width="2" target-height="9.609985" target-width="132.18" target-x="982.82" target-y="840.19"></path><path d="M 849.71 622.16 L 801.46 622.20 L 835.08 665.15 L 849.71 662.38 L 835.08 697.68 C 835.08 697.68 872.27 772.42 874.26 788.33 L 878.91 854.08 C 878.91 854.08 889.04 799.41 889.28 761.34 C 889.52 723.28 860.33 633.14 849.71 622.16 Z" fill="#ffffff" fill-rule="nonzero" node-id="175" stroke="#1a1a1a" stroke-linecap="round" stroke-width="2" target-height="231.92004" target-width="88.06" target-x="801.46" target-y="622.16"></path><path d="M 982.82 798.26 C 982.82 798.26 1023.06 786.54 1038.76 787.43 C 1054.46 788.31 1090.73 812.20 1083.44 825.02 C 1076.14 837.85 1046.06 841.61 1029.92 831.22 C 1012.44 817.28 1010.45 816.40 1006.47 816.40 C 1002.49 816.40 978.63 823.03 978.63 823.03 Z" fill="#ffffff" fill-rule="nonzero" node-id="177" stroke="#1a1a1a" stroke-linecap="round" stroke-width="2" target-height="55.070007" target-width="112.099976" target-x="978.63" target-y="786.54"></path><path d="M 807.43 630.94 C 807.43 630.94 735.52 632.92 734.46 678.49 C 733.29 728.92 791.30 849.74 839.28 860.96 C 887.26 872.18 992.21 822.81 992.21 822.81 L 998.40 788.18 L 860.77 806.99 L 807.18 704.92" fill="#ffffff" fill-rule="nonzero" node-id="179" stroke="#1a1a1a" stroke-linecap="round" stroke-width="2" target-height="241.23999" target-width="265.11005" target-x="733.29" target-y="630.94"></path><path d="M 1413.11 793.38 L 1458.23 793.38 L 1458.23 849.80 L 1413.11 849.80 Z" fill="#ffffff" fill-rule="nonzero" node-id="181" stroke="#1a1a1a" stroke-linecap="round" stroke-width="2" target-height="56.419983" target-width="45.119995" target-x="1413.11" target-y="793.38"></path><path d="M 1408.25 765.07 L 1421.52 793.38 L 1429.48 793.38 L 1413.11 762.42 C 1413.11 762.42 1406.48 761.30 1408.25 765.07 Z" fill="#ffffff" fill-rule="nonzero" node-id="183" stroke="#1a1a1a" stroke-linecap="round" stroke-width="2" target-height="32.080017" target-width="23" target-x="1406.48" target-y="761.3"></path><path d="M 1440.10 793.38 L 1458.23 743.18 L 1475.26 743.18 L 1457.68 792.27 L 1440.10 793.38 Z" fill="#ffffff" fill-rule="nonzero" node-id="185" stroke="#1a1a1a" stroke-linecap="round" stroke-width="2" target-height="50.200012" target-width="35.160034" target-x="1440.1" target-y="743.18"></path><path d="M 1429.48 765.40 L 1430.92 792.83 L 1434.01 792.83 L 1432.91 764.74 L 1429.48 765.40 Z" fill="#ffffff" fill-rule="nonzero" node-id="187" stroke="#1a1a1a" stroke-linecap="round" stroke-width="2" target-height="28.090027" target-width="4.5300293" target-x="1429.48" target-y="764.74"></path></svg>