<?xml version="1.0" standalone="no"?><!DOCTYPE svg PUBLIC "-//W3C//DTD SVG 1.1//EN" "http://www.w3.org/Graphics/SVG/1.1/DTD/svg11.dtd"><svg t="1690704838099" class="icon" viewBox="0 0 1024 1024" version="1.1" xmlns="http://www.w3.org/2000/svg" p-id="4859" xmlns:xlink="http://www.w3.org/1999/xlink" width="200" height="200"><path d="M128 725.333333a42.666667 42.666667 0 0 0 42.666667 42.666667h682.666666a42.666667 42.666667 0 1 0 0-85.333333H170.666667a42.666667 42.666667 0 0 0-42.666667 42.666666z m0-213.333333a42.666667 42.666667 0 0 0 42.666667 42.666667h682.666666a42.666667 42.666667 0 1 0 0-85.333334H170.666667a42.666667 42.666667 0 0 0-42.666667 42.666667z m42.666667-256a42.666667 42.666667 0 0 0 0 85.333333h682.666666a42.666667 42.666667 0 1 0 0-85.333333H170.666667z"  p-id="4860"></path></svg>