<?xml version="1.0" standalone="no"?><!DOCTYPE svg PUBLIC "-//W3C//DTD SVG 1.1//EN" "http://www.w3.org/Graphics/SVG/1.1/DTD/svg11.dtd"><svg t="1690772640139" class="icon" viewBox="0 0 1024 1024" version="1.1" xmlns="http://www.w3.org/2000/svg" p-id="3534" xmlns:xlink="http://www.w3.org/1999/xlink" width="200" height="200"><path d="M432 653.44a78.165333 78.165333 0 0 1-56.874667-22.186667 86.485333 86.485333 0 0 1-18.56-85.290666 210.218667 210.218667 0 0 1 58.112-94.72l123.093334-123.093334a21.333333 21.333333 0 0 1 30.165333 30.165334l-123.093333 123.050666a170.624 170.624 0 0 0-46.890667 74.88 47.914667 47.914667 0 0 0 7.338667 44.8 47.786667 47.786667 0 0 0 44.8 7.338667 170.752 170.752 0 0 0 74.837333-46.890667l123.093333-123.093333a21.333333 21.333333 0 1 1 30.165334 30.165333l-123.093334 123.093334a210.005333 210.005333 0 0 1-94.72 58.112 118.016 118.016 0 0 1-28.373333 3.669333zM712.874667 435.072a21.333333 21.333333 0 0 1-15.061334-36.437333l128.426667-128.426667a49.664 49.664 0 0 0 0-70.058667l-20.053333-20.053333a50.773333 50.773333 0 0 0-70.058667 0l-129.066667 129.024a21.333333 21.333333 0 0 1-30.165333-30.165333l129.066667-129.066667a94.464 94.464 0 0 1 130.432 0l20.053333 20.053333a92.330667 92.330667 0 0 1 0 130.432l-128.469333 128.426667a21.248 21.248 0 0 1-15.104 6.272z" fill="#757575" p-id="3535"></path><path d="M350.08 677.546667a21.333333 21.333333 0 0 1-15.061333-36.394667l40.106666-40.106667a21.333333 21.333333 0 0 1 30.165334 30.165334l-40.106667 40.106666a21.248 21.248 0 0 1-15.104 6.272zM710.997333 436.906667a21.418667 21.418667 0 0 1-15.189333-6.314667l-119.466667-121.130667a21.333333 21.333333 0 1 1 30.421334-29.952l119.466666 121.130667a21.333333 21.333333 0 0 1-15.232 36.266667zM782.506667 471.466667a21.333333 21.333333 0 0 1-15.061334-36.437334l76.970667-76.970666a53.461333 53.461333 0 0 0 11.221333-39.082667 43.946667 43.946667 0 0 0-16.725333-30.208 21.333333 21.333333 0 1 1 25.941333-33.877333 86.101333 86.101333 0 0 1 33.152 59.221333 97.493333 97.493333 0 0 1-22.058666 72.576l-78.336 78.506667a21.248 21.248 0 0 1-15.061334 6.272z" fill="#757575" p-id="3536"></path><path d="M934.912 874.666667h-810.666667a21.333333 21.333333 0 0 1-21.333333-21.333334V426.666667a21.333333 21.333333 0 0 1 21.333333-21.333334h213.333334a21.333333 21.333333 0 0 1 0 42.666667h-192v384h768V426.666667a21.333333 21.333333 0 0 1 42.666666 0v426.666666a21.333333 21.333333 0 0 1-21.333333 21.333334z" fill="#757575" p-id="3537"></path><path d="M593.578667 746.666667h-341.333334a21.333333 21.333333 0 1 1 0-42.666667h341.333334a21.333333 21.333333 0 0 1 0 42.666667zM806.912 746.666667h-85.333333a21.333333 21.333333 0 0 1 0-42.666667h85.333333a21.333333 21.333333 0 0 1 0 42.666667z" fill="#757575" p-id="3538"></path></svg>