<?xml version="1.0" standalone="no"?><!DOCTYPE svg PUBLIC "-//W3C//DTD SVG 1.1//EN" "http://www.w3.org/Graphics/SVG/1.1/DTD/svg11.dtd"><svg height="1200" node-id="1" sillyvg="true" template-height="1200" template-width="1200" version="1.1" viewBox="0 0 1200 1200" width="1200" xmlns="http://www.w3.org/2000/svg" xmlns:xlink="http://www.w3.org/1999/xlink"><defs node-id="135"></defs><path d="M 268.56 998.06 C 268.56 998.06 113.81 607.84 229.33 602.34 C 338.21 597.15 312.50 998.06 312.50 998.06 Z" fill="#ffffff" fill-rule="nonzero" node-id="137" stroke="none" target-height="400.90997" target-width="224.4" target-x="113.81" target-y="597.15"></path><path d="M 312.50 998.68 L 268.56 998.68 C 268.30 998.68 268.07 998.53 267.97 998.29 C 267.67 997.53 237.80 921.92 214.37 837.91 C 182.87 725.00 177.35 651.52 198.00 619.54 C 205.21 608.36 215.75 602.36 229.32 601.71 C 241.95 601.09 253.38 605.94 263.32 616.05 C 299.40 652.73 311.02 754.69 314.41 833.77 C 318.08 919.36 313.19 997.32 313.14 998.10 C 313.11 998.43 312.83 998.69 312.50 998.68 Z M 269.00 997.43 L 311.93 997.43 C 312.37 990.08 316.67 915.43 313.16 833.81 C 309.78 754.96 298.23 653.32 262.44 616.93 C 252.75 607.08 241.62 602.38 229.38 602.93 C 216.23 603.55 206.03 609.36 199.05 620.18 C 178.92 651.40 184.64 726.55 215.59 837.52 C 238.11 918.37 266.61 991.40 269.00 997.43 Z" fill="#231f20" fill-rule="nonzero" node-id="139" stroke="none" target-height="397.59998" target-width="140.72998" target-x="177.35" target-y="601.09"></path><path d="M 268.56 998.68 C 268.23 998.68 267.96 998.43 267.93 998.10 L 242.93 659.56 C 242.92 659.39 242.97 659.23 243.08 659.10 C 243.19 658.97 243.34 658.89 243.51 658.88 C 243.85 658.87 244.14 659.12 244.18 659.46 L 269.18 998.01 C 269.20 998.18 269.14 998.34 269.03 998.47 C 268.92 998.60 268.77 998.67 268.60 998.68 Z" fill="#231f20" fill-rule="nonzero" node-id="141" stroke="none" target-height="339.81" target-width="26.280014" target-x="242.92" target-y="658.87"></path><path d="M 280.20 998.06 C 280.20 998.06 251.20 779.42 365.84 784.89 C 473.98 790.05 324.15 998.06 324.15 998.06 Z" fill="#ffffff" fill-rule="nonzero" node-id="143" stroke="none" target-height="218.64001" target-width="222.78001" target-x="251.2" target-y="779.42"></path><path d="M 324.15 998.68 L 280.20 998.68 C 279.89 998.68 279.62 998.45 279.58 998.14 C 276.68 973.02 275.71 947.71 276.65 922.44 C 278.16 884.76 285.37 833.95 311.19 805.85 C 325.33 790.47 343.72 783.21 365.87 784.27 C 383.79 785.12 395.81 791.64 401.60 803.64 C 412.16 825.54 402.41 865.00 372.60 920.91 C 358.16 947.67 342.14 973.55 324.65 998.42 C 324.53 998.58 324.35 998.68 324.15 998.68 Z M 280.76 997.43 L 323.83 997.43 C 328.73 990.54 424.76 854.55 400.47 804.18 C 394.90 792.63 383.23 786.35 365.81 785.52 C 344.05 784.46 325.99 791.60 312.12 806.70 C 264.72 858.27 279.59 987.90 280.76 997.43 Z" fill="#231f20" fill-rule="nonzero" node-id="145" stroke="none" target-height="215.46997" target-width="160.04001" target-x="264.72" target-y="783.21"></path><path d="M 237.94 998.06 C 237.94 998.06 34.73 834.00 139.56 785.20 C 244.39 736.40 281.89 998.06 281.89 998.06 Z" fill="#ffffff" fill-rule="nonzero" node-id="147" stroke="none" target-height="261.65997" target-width="247.16002" target-x="34.73" target-y="736.4"></path><path d="M 281.89 998.68 L 237.94 998.68 C 237.80 998.68 237.66 998.63 237.55 998.54 C 213.82 978.89 191.39 957.72 170.39 935.17 C 126.39 887.49 105.85 849.17 109.25 821.36 C 111.25 805.36 121.32 793.00 139.30 784.63 C 157.10 776.34 174.15 776.49 189.98 785.06 C 209.17 795.46 237.17 824.75 261.50 905.25 C 270.55 935.66 277.56 966.63 282.50 997.97 C 282.52 998.15 282.47 998.33 282.35 998.47 C 282.23 998.60 282.07 998.68 281.89 998.68 Z M 238.16 997.43 L 281.16 997.43 C 279.29 985.12 253.16 820.70 189.38 786.16 C 173.92 777.79 157.25 777.66 139.83 785.77 C 122.41 793.88 112.40 806.00 110.50 821.52 C 102.61 886.00 232.63 992.92 238.16 997.43 Z" fill="#231f20" fill-rule="nonzero" node-id="149" stroke="none" target-height="222.33997" target-width="179.90999" target-x="102.61" target-y="776.34"></path><path d="M 257.61 999.09 C 257.38 999.09 257.17 998.96 257.06 998.76 L 161.20 824.00 C 161.12 823.85 161.10 823.68 161.15 823.52 C 161.19 823.36 161.30 823.22 161.45 823.14 C 161.75 822.98 162.13 823.09 162.30 823.39 L 258.16 998.20 C 258.24 998.35 258.26 998.52 258.21 998.68 C 258.17 998.84 258.06 998.97 257.91 999.05 C 257.82 999.09 257.71 999.10 257.61 999.09 Z" fill="#231f20" fill-rule="nonzero" node-id="151" stroke="none" target-height="176.12" target-width="97.16" target-x="161.1" target-y="822.98"></path><path d="M 285.22 998.28 C 285.14 998.29 285.06 998.29 284.98 998.28 C 284.66 998.15 284.51 997.78 284.64 997.46 L 357.56 823.00 C 357.71 822.71 358.06 822.58 358.36 822.71 C 358.66 822.83 358.82 823.17 358.72 823.48 L 285.80 997.89 C 285.70 998.13 285.47 998.28 285.22 998.28 Z" fill="#231f20" fill-rule="nonzero" node-id="153" stroke="none" target-height="175.70996" target-width="74.31" target-x="284.51" target-y="822.58"></path><path d="M 212.29 888.42 L 208.04 992.20 L 201.59 992.20 L 189.75 887.37 L 212.29 888.42 Z" fill="#ffffff" fill-rule="nonzero" node-id="155" stroke="none" target-height="104.83002" target-width="22.539993" target-x="189.75" target-y="887.37"></path><path d="M 208.00 992.83 L 201.55 992.83 C 201.23 992.83 200.96 992.59 200.93 992.27 L 189.13 887.44 C 189.11 887.26 189.16 887.07 189.29 886.94 C 189.41 886.79 189.59 886.72 189.78 886.74 L 212.32 887.80 C 212.66 887.82 212.93 888.11 212.92 888.45 L 208.67 992.22 C 208.66 992.39 208.59 992.55 208.46 992.66 C 208.34 992.78 208.17 992.84 208.00 992.83 Z M 202.11 991.57 L 207.40 991.57 L 211.64 889.00 L 190.45 888.00 Z" fill="#231f20" fill-rule="nonzero" node-id="157" stroke="none" target-height="106.120056" target-width="23.819992" target-x="189.11" target-y="886.72"></path><path d="M 233.19 999.24 L 201.02 999.24 L 201.28 992.20 L 207.73 992.20 L 233.19 999.24 Z" fill="#231f20" fill-rule="nonzero" node-id="159" stroke="none" target-height="7.039978" target-width="32.17" target-x="201.02" target-y="992.2"></path><path d="M 233.19 999.86 L 201.00 999.86 C 200.83 999.86 200.67 999.79 200.55 999.67 C 200.43 999.55 200.37 999.38 200.37 999.21 L 200.64 992.21 C 200.65 991.87 200.92 991.61 201.26 991.60 L 207.71 991.60 C 207.77 991.59 207.82 991.59 207.88 991.60 L 233.34 998.60 C 233.64 998.69 233.83 998.98 233.79 999.29 C 233.76 999.60 233.50 999.85 233.19 999.86 Z M 201.67 998.61 L 228.57 998.61 L 207.65 992.83 L 201.89 992.83 Z" fill="#231f20" fill-rule="nonzero" node-id="161" stroke="none" target-height="8.2699585" target-width="33.460007" target-x="200.37" target-y="991.59"></path><path d="M 314.46 631.74 C 314.46 631.74 334.56 658.80 303.46 658.80 L 289.83 692.91 C 281.16 706.16 264.21 707.39 245.61 695.91 L 221.00 682.00 C 204.42 674.61 193.74 658.15 193.73 640.00 L 193.73 627.88 L 265.15 670.34 L 296.62 625.93 L 301.17 638.13 Z" fill="#ffffff" fill-rule="nonzero" node-id="163" stroke="none" target-height="81.46002" target-width="140.83" target-x="193.73" target-y="625.93"></path><path d="M 269.38 704.40 C 262.09 704.40 253.83 701.77 245.23 696.48 L 220.69 682.48 C 203.94 674.98 193.14 658.36 193.10 640.00 L 193.10 627.88 C 193.10 627.64 193.23 627.42 193.44 627.31 C 193.65 627.19 193.90 627.21 194.10 627.34 L 265.00 669.51 L 296.13 625.57 C 296.26 625.38 296.49 625.28 296.72 625.31 C 296.95 625.34 297.15 625.49 297.23 625.71 L 301.54 637.26 L 314.21 631.17 C 314.48 631.04 314.81 631.12 314.99 631.36 C 315.38 631.89 324.57 644.43 320.42 652.68 C 318.21 657.08 312.63 659.35 303.85 659.42 L 290.38 693.14 C 285.87 700.35 277.88 704.63 269.38 704.40 Z M 194.38 628.98 L 194.38 639.98 C 194.39 657.89 204.93 674.13 221.29 681.43 L 245.90 695.43 C 264.17 706.68 280.79 705.59 289.28 692.59 L 302.86 658.59 C 302.95 658.35 303.18 658.20 303.44 658.20 C 311.95 658.20 317.29 656.20 319.31 652.14 C 322.72 645.37 315.83 634.79 314.31 632.56 L 301.50 638.72 C 301.34 638.79 301.15 638.79 300.99 638.72 C 300.83 638.65 300.70 638.52 300.64 638.36 L 296.50 627.27 L 265.67 670.70 C 265.48 670.97 265.11 671.05 264.83 670.88 Z" fill="#231f20" fill-rule="nonzero" node-id="165" stroke="none" target-height="81.39996" target-width="131.47" target-x="193.1" target-y="625.28"></path><path d="M 131.69 992.20 L 129.78 887.37 L 152.32 888.42 L 138.14 992.20 L 131.69 992.20 Z" fill="#ffffff" fill-rule="nonzero" node-id="167" stroke="none" target-height="104.83002" target-width="22.540009" target-x="129.78" target-y="887.37"></path><path d="M 138.14 992.83 L 131.69 992.83 C 131.35 992.82 131.07 992.55 131.06 992.21 L 129.16 887.38 C 129.15 887.21 129.22 887.04 129.34 886.92 C 129.47 886.80 129.64 886.73 129.81 886.74 L 152.35 887.80 C 152.53 887.80 152.70 887.88 152.81 888.02 C 152.92 888.16 152.98 888.33 152.95 888.51 L 138.76 992.28 C 138.72 992.59 138.46 992.83 138.14 992.83 Z M 132.31 991.57 L 137.59 991.57 L 151.59 889.02 L 130.40 888.02 Z" fill="#231f20" fill-rule="nonzero" node-id="169" stroke="none" target-height="106.10004" target-width="23.830002" target-x="129.15" target-y="886.73"></path><path d="M 150.70 663.76 L 137.20 782.23 L 137.20 782.23 C 148.20 792.23 138.00 807.30 124.08 801.30 C 120.97 799.90 118.19 797.85 115.92 795.30 C 97.27 775.05 124.31 678.16 124.31 678.16 Z" fill="#ffffff" fill-rule="nonzero" node-id="171" stroke="none" target-height="143.53998" target-width="53.43" target-x="97.27" target-y="663.76"></path><path d="M 130.36 803.32 C 128.11 803.29 125.90 802.81 123.85 801.89 C 120.66 800.45 117.81 798.36 115.48 795.74 C 107.61 787.19 106.61 764.74 112.48 729.04 C 116.87 702.56 123.62 678.24 123.68 678.04 C 123.73 677.88 123.84 677.74 123.99 677.66 L 150.36 663.25 C 150.56 663.13 150.81 663.13 151.01 663.25 C 151.20 663.38 151.31 663.61 151.28 663.84 L 137.86 782.00 C 143.86 787.66 143.17 794.08 140.71 797.90 C 138.41 801.35 134.51 803.40 130.36 803.32 Z M 124.86 678.59 C 123.35 684.12 98.66 775.59 116.40 794.89 C 118.61 797.38 121.32 799.37 124.35 800.74 C 131.35 803.74 137.11 801.16 139.65 797.21 C 141.88 793.75 142.48 787.88 136.80 782.71 C 136.65 782.57 136.56 782.37 136.58 782.16 L 149.94 664.89 Z" fill="#231f20" fill-rule="nonzero" node-id="173" stroke="none" target-height="140.60999" target-width="52.649994" target-x="98.66" target-y="663.13"></path><path d="M 217.39 952.94 L 191.70 952.94 L 173.12 741.07 L 159.64 863.43 L 150.64 952.94 L 127.84 952.94 L 130.31 867.40 L 130.31 713.96 L 215.61 713.96 L 217.39 952.94 Z" fill="#231f20" fill-rule="nonzero" node-id="175" stroke="none" target-height="238.97998" target-width="89.55" target-x="127.84" target-y="713.96"></path><path d="M 217.39 953.57 L 191.70 953.57 C 191.38 953.57 191.11 953.32 191.08 953.00 L 173.08 747.44 L 160.29 863.44 L 151.29 952.96 C 151.26 953.28 150.99 953.52 150.67 953.52 L 127.87 953.52 C 127.70 953.52 127.54 953.45 127.43 953.33 C 127.31 953.21 127.24 953.04 127.25 952.87 L 129.71 867.33 L 129.71 714.00 C 129.71 713.65 129.99 713.37 130.34 713.37 L 215.64 713.37 C 215.98 713.37 216.26 713.65 216.27 713.99 L 218.05 952.99 C 218.05 953.16 217.98 953.32 217.86 953.44 C 217.73 953.54 217.56 953.59 217.39 953.57 Z M 192.28 952.32 L 216.76 952.32 L 215.00 714.58 L 130.94 714.58 L 130.94 867.40 L 128.49 952.32 L 150.07 952.32 L 159.07 863.32 L 172.49 741.00 C 172.53 740.68 172.80 740.44 173.12 740.44 L 173.12 740.44 C 173.44 740.44 173.71 740.69 173.74 741.01 Z" fill="#231f20" fill-rule="nonzero" node-id="177" stroke="none" target-height="240.22003" target-width="90.810005" target-x="127.24" target-y="713.37"></path><path d="M 104.41 770.21 L 108.89 736.43 C 112.61 708.33 120.11 680.85 131.19 654.76 L 132.58 651.49 C 133.25 649.51 134.06 647.59 135.02 645.74 L 135.42 644.74 L 135.48 644.79 C 137.44 641.20 139.91 637.91 142.80 635.02 C 156.28 621.56 177.05 618.65 193.70 627.90 L 193.70 627.84 L 246.86 659.00 L 265.15 670.33 L 283.26 644.77 L 303.11 674.64 C 303.11 674.64 300.06 735.64 218.55 687.64 C 217.55 687.09 216.61 686.51 215.62 685.89 L 215.62 685.89 L 215.62 714.00 C 195.15 723.43 172.02 725.35 150.28 719.43 L 132.06 714.43 L 130.06 778.19 Z" fill="#fbb040" fill-rule="nonzero" node-id="179" stroke="none" target-height="159.53998" target-width="198.69998" target-x="104.41" target-y="618.65"></path><path d="M 130.00 778.81 L 129.81 778.81 L 104.19 770.81 C 103.90 770.72 103.71 770.43 103.75 770.13 L 108.23 736.35 C 111.96 708.19 119.47 680.66 130.57 654.51 L 131.96 651.24 C 132.64 649.25 133.46 647.32 134.42 645.45 L 134.80 644.54 C 134.85 644.42 134.94 644.32 135.05 644.26 C 146.60 623.40 172.84 615.80 193.75 627.26 C 193.84 627.26 193.92 627.29 194.00 627.33 L 247.14 658.46 L 264.94 669.46 L 282.71 644.38 C 282.82 644.20 283.02 644.10 283.23 644.12 C 283.44 644.12 283.63 644.23 283.75 644.40 L 303.59 674.26 C 303.66 674.37 303.70 674.51 303.69 674.64 C 303.69 674.84 302.53 694.47 286.96 702.86 C 271.78 711.03 248.65 706.07 218.19 688.12 C 217.54 687.75 216.87 687.36 216.19 686.95 L 216.19 713.95 C 216.19 714.20 216.04 714.42 215.82 714.52 C 195.23 723.99 171.97 725.93 150.10 720.00 L 132.65 715.25 L 130.65 778.25 C 130.64 778.59 130.36 778.86 130.02 778.85 Z M 105.06 769.81 L 129.40 777.38 L 131.40 714.45 C 131.41 714.26 131.50 714.08 131.66 713.97 C 131.81 713.85 132.01 713.82 132.19 713.87 L 150.41 718.87 C 171.90 724.68 194.75 722.80 215.00 713.55 L 215.00 685.87 C 215.00 685.62 215.15 685.39 215.38 685.29 C 215.57 685.21 215.79 685.23 215.97 685.34 C 216.97 685.96 217.92 686.53 218.87 687.07 C 248.87 704.79 271.64 709.75 286.40 701.80 C 300.52 694.20 302.31 676.88 302.48 674.80 L 283.26 645.87 L 265.67 670.70 C 265.48 670.97 265.10 671.05 264.82 670.87 L 246.53 659.55 L 193.63 628.55 C 193.55 628.55 193.47 628.53 193.40 628.49 C 183.59 623.03 172.01 621.72 161.23 624.85 C 150.45 627.97 141.36 635.28 136.00 645.14 C 135.96 645.21 135.91 645.28 135.84 645.33 L 135.56 645.99 C 134.62 647.83 133.81 649.73 133.14 651.69 L 131.74 655.00 C 120.68 681.04 113.20 708.46 109.48 736.51 Z" fill="#231f20" fill-rule="nonzero" node-id="181" stroke="none" target-height="163.06" target-width="199.99002" target-x="103.71" target-y="615.8"></path><path d="M 163.29 999.24 L 131.12 999.24 L 131.38 992.20 L 137.83 992.20 L 163.29 999.24 Z" fill="#231f20" fill-rule="nonzero" node-id="183" stroke="none" target-height="7.039978" target-width="32.17" target-x="131.12" target-y="992.2"></path><path d="M 163.29 999.86 L 131.12 999.86 C 130.95 999.86 130.79 999.79 130.67 999.67 C 130.55 999.55 130.49 999.38 130.49 999.21 L 130.76 992.21 C 130.77 991.87 131.04 991.61 131.38 991.60 L 137.83 991.60 C 137.89 991.59 137.94 991.59 138.00 991.60 L 163.46 998.60 C 163.76 998.69 163.95 998.98 163.91 999.29 C 163.88 999.61 163.61 999.86 163.29 999.86 Z M 131.77 998.61 L 158.67 998.61 L 137.75 992.83 L 132.00 992.83 Z" fill="#231f20" fill-rule="nonzero" node-id="185" stroke="none" target-height="8.2699585" target-width="33.45999" target-x="130.49" target-y="991.59"></path><path d="M 169.07 633.21 L 165.12 626.07 L 179.81 602.31 L 193.00 602.31 L 184.00 627.88 L 183.78 630.18 C 183.49 633.64 180.96 636.49 177.56 637.19 C 174.16 637.89 170.70 636.27 169.07 633.21 Z" fill="#ffffff" fill-rule="nonzero" node-id="187" stroke="none" target-height="35.580017" target-width="27.880005" target-x="165.12" target-y="602.31"></path><path d="M 175.84 637.88 C 172.78 637.88 169.97 636.21 168.52 633.52 L 164.52 626.37 C 164.41 626.18 164.41 625.93 164.52 625.74 L 179.28 602.00 C 179.40 601.82 179.60 601.71 179.81 601.71 L 193.00 601.71 C 193.20 601.71 193.39 601.81 193.51 601.97 C 193.63 602.13 193.66 602.35 193.59 602.54 L 184.59 628.04 L 184.38 630.26 C 184.06 633.96 181.33 637.01 177.68 637.72 C 177.07 637.84 176.46 637.89 175.84 637.88 Z M 165.84 626.09 L 169.61 632.91 L 169.61 632.91 C 171.14 635.66 174.28 637.10 177.37 636.46 C 180.45 635.83 182.76 633.26 183.07 630.12 L 183.29 627.82 C 183.29 627.77 183.29 627.72 183.29 627.67 L 192.03 602.94 L 180.16 602.94 Z" fill="#231f20" fill-rule="nonzero" node-id="189" stroke="none" target-height="36.179993" target-width="29.25" target-x="164.41" target-y="601.71"></path><path d="M 202.74 599.40 C 202.74 609.79 194.32 618.21 183.93 618.21 C 173.54 618.21 165.12 609.79 165.12 599.40 C 165.12 589.01 173.54 580.59 183.93 580.59 C 194.32 580.59 202.74 589.01 202.74 599.40 Z" fill="#ffffff" fill-rule="nonzero" node-id="191" stroke="none" target-height="37.619995" target-width="37.62001" target-x="165.12" target-y="580.59"></path><path d="M 183.93 618.83 C 176.07 618.83 168.97 614.10 165.96 606.83 C 162.95 599.57 164.61 591.20 170.17 585.64 C 175.73 580.08 184.10 578.42 191.36 581.43 C 198.63 584.44 203.36 591.54 203.36 599.40 C 203.34 610.12 194.65 618.81 183.93 618.83 Z M 183.93 581.22 C 173.89 581.22 165.75 589.36 165.75 599.40 C 165.75 609.44 173.89 617.58 183.93 617.58 C 193.97 617.58 202.11 609.44 202.11 599.40 C 202.10 589.36 193.97 581.23 183.93 581.22 Z" fill="#231f20" fill-rule="nonzero" node-id="193" stroke="none" target-height="40.410034" target-width="40.410004" target-x="162.95" target-y="578.42"></path><path d="M 172.62 746.23 C 172.45 746.23 172.29 746.16 172.17 746.04 C 171.92 745.79 171.92 745.40 172.17 745.15 L 184.76 732.78 C 185.01 732.53 185.40 732.53 185.65 732.78 C 185.77 732.90 185.83 733.05 185.83 733.22 C 185.83 733.39 185.77 733.54 185.65 733.66 L 173.06 746.04 C 172.94 746.16 172.79 746.22 172.62 746.23 Z" fill="#ffffff" fill-rule="nonzero" node-id="195" stroke="none" target-height="13.699951" target-width="13.910004" target-x="171.92" target-y="732.53"></path><path d="M 183.93 525.70 C 209.94 525.61 231.25 546.34 231.89 572.34 C 232.52 598.34 212.25 620.08 186.27 621.27 L 187.47 617.89 C 193.16 616.81 198.04 613.16 200.68 608.01 C 203.32 602.85 203.44 596.76 201.00 591.51 C 187.13 599.08 172.63 591.51 172.63 591.51 L 171.00 608.00 C 171.00 608.00 170.38 600.26 165.10 599.38 L 165.10 599.38 C 165.09 605.20 167.79 610.70 172.40 614.25 L 169.40 619.08 C 146.94 611.92 133.05 589.47 136.66 566.18 C 140.28 542.89 160.32 525.70 183.89 525.68 Z" fill="#231f20" fill-rule="nonzero" node-id="197" stroke="none" target-height="95.660034" target-width="99.47" target-x="133.05" target-y="525.61"></path><path d="M 186.27 621.90 C 186.07 621.90 185.88 621.80 185.76 621.64 C 185.64 621.47 185.61 621.26 185.67 621.06 L 186.88 617.67 C 186.95 617.46 187.13 617.31 187.35 617.27 C 195.92 615.62 202.11 608.13 202.12 599.40 C 202.12 596.99 201.63 594.61 200.69 592.40 C 188.77 598.53 176.42 593.91 173.16 592.47 L 171.64 608.10 C 171.61 608.42 171.34 608.67 171.02 608.67 L 171.02 608.67 C 170.70 608.66 170.43 608.41 170.40 608.09 C 170.40 608.02 169.82 601.60 165.78 600.22 C 165.98 605.56 168.55 610.54 172.78 613.80 C 173.03 614.00 173.09 614.35 172.92 614.62 L 169.92 619.45 C 169.77 619.69 169.47 619.80 169.20 619.72 C 145.26 612.14 131.06 587.54 136.48 563.02 C 141.89 538.50 165.13 522.17 190.04 525.38 C 214.95 528.59 233.28 550.29 232.30 575.38 C 231.31 600.48 211.33 620.67 186.25 621.92 Z M 187.94 618.43 L 187.17 620.59 C 211.37 618.90 230.33 599.11 230.98 574.86 C 231.64 550.61 213.77 529.82 189.70 526.83 C 165.63 523.83 143.21 539.60 137.90 563.27 C 132.59 586.94 146.12 610.78 169.17 618.35 L 171.61 614.42 C 167.10 610.74 164.50 605.23 164.51 599.42 C 164.51 599.32 164.53 599.23 164.57 599.14 C 164.69 598.89 164.97 598.75 165.24 598.80 C 168.32 599.32 169.93 601.87 170.77 604.15 L 172.00 591.45 C 172.02 591.24 172.15 591.06 172.33 590.96 C 172.51 590.86 172.73 590.86 172.92 590.95 C 173.06 591.03 187.30 598.28 200.70 590.95 C 200.86 590.88 201.04 590.88 201.20 590.95 C 201.37 591.00 201.50 591.12 201.57 591.28 C 202.76 593.83 203.38 596.61 203.38 599.43 C 203.36 608.61 196.92 616.53 187.94 618.43 Z" fill="#231f20" fill-rule="nonzero" node-id="199" stroke="none" target-height="99.75" target-width="102.22" target-x="131.06" target-y="522.17"></path><path d="M 215.61 686.50 L 215.56 686.50 C 215.26 686.48 215.02 686.25 214.99 685.95 L 211.75 655.95 C 211.71 655.61 211.96 655.30 212.31 655.26 C 212.65 655.23 212.95 655.48 212.99 655.82 L 215.89 682.54 L 219.22 670.69 C 219.32 670.36 219.66 670.16 220.00 670.25 C 220.33 670.35 220.53 670.70 220.43 671.03 L 216.22 686.03 C 216.14 686.31 215.90 686.50 215.61 686.50 Z" fill="#231f20" fill-rule="nonzero" node-id="201" stroke="none" target-height="31.27002" target-width="8.819992" target-x="211.71" target-y="655.23"></path><path d="M 132.05 715.06 L 132.00 715.06 C 131.66 715.03 131.40 714.73 131.42 714.39 L 135.49 657.84 C 135.52 657.50 135.82 657.24 136.16 657.26 C 136.33 657.27 136.48 657.34 136.59 657.47 C 136.70 657.60 136.76 657.76 136.74 657.93 L 132.67 714.48 C 132.65 714.81 132.38 715.06 132.05 715.06 Z" fill="#231f20" fill-rule="nonzero" node-id="203" stroke="none" target-height="57.820007" target-width="5.3600006" target-x="131.4" target-y="657.24"></path><path d="M 181.11 722.56 C 180.78 722.56 180.51 722.31 180.48 721.98 L 175.24 642.00 L 170.07 638.88 L 164.07 645.18 C 163.93 645.33 163.72 645.40 163.51 645.36 C 163.29 645.35 163.09 645.21 163.00 645.00 L 157.00 631.16 C 156.91 630.96 156.94 630.74 157.06 630.56 L 161.82 623.56 C 161.92 623.34 162.15 623.19 162.40 623.20 C 162.65 623.21 162.87 623.36 162.96 623.59 C 163.05 623.82 163.00 624.09 162.82 624.26 L 158.27 631.00 L 163.81 643.70 L 169.51 637.70 C 169.71 637.48 170.04 637.44 170.29 637.59 L 176.17 641.14 C 176.35 641.24 176.46 641.43 176.47 641.64 L 181.74 721.90 C 181.76 722.24 181.49 722.54 181.15 722.56 Z" fill="#231f20" fill-rule="nonzero" node-id="205" stroke="none" target-height="99.369995" target-width="24.84999" target-x="156.91" target-y="623.19"></path><path d="M 179.16 649.00 C 179.08 649.02 179.00 649.02 178.92 649.00 C 178.77 648.94 178.65 648.81 178.58 648.66 C 178.52 648.50 178.52 648.33 178.59 648.18 L 183.35 637.00 C 183.42 636.83 183.56 636.70 183.74 636.65 C 183.91 636.59 184.10 636.61 184.25 636.71 L 194.75 643.04 L 184.66 624.65 C 184.50 624.35 184.61 623.97 184.91 623.80 C 185.05 623.72 185.23 623.70 185.39 623.74 C 185.54 623.79 185.68 623.89 185.76 624.04 L 197.00 644.48 C 197.14 644.73 197.09 645.05 196.88 645.24 C 196.68 645.43 196.37 645.47 196.13 645.32 L 184.25 638.16 L 179.77 648.62 C 179.67 648.86 179.42 649.02 179.16 649.00 Z" fill="#231f20" fill-rule="nonzero" node-id="207" stroke="none" target-height="25.320007" target-width="18.619995" target-x="178.52" target-y="623.7"></path><path d="M 153.13 683.84 C 150.77 683.94 148.48 683.04 146.81 681.37 C 143.67 678.12 143.81 672.86 143.81 672.64 C 143.81 672.47 143.88 672.32 144.00 672.20 C 144.12 672.09 144.28 672.03 144.45 672.04 C 144.62 672.05 144.78 672.12 144.89 672.24 C 145.00 672.36 145.07 672.52 145.06 672.69 C 145.06 672.69 144.93 677.64 147.70 680.51 C 149.13 681.93 151.09 682.69 153.11 682.59 C 154.66 682.63 156.16 681.98 157.19 680.82 C 160.95 676.75 160.19 667.12 160.19 667.02 C 160.18 666.86 160.23 666.69 160.34 666.57 C 160.44 666.44 160.60 666.36 160.76 666.35 C 161.10 666.33 161.40 666.58 161.44 666.92 C 161.44 667.34 162.23 677.20 158.10 681.67 C 156.84 683.08 155.02 683.87 153.13 683.84 Z" fill="#231f20" fill-rule="nonzero" node-id="209" stroke="none" target-height="17.609985" target-width="18.559998" target-x="143.67" target-y="666.33"></path><path d="M 305.26 688.67 C 305.09 688.67 304.93 688.60 304.82 688.48 L 296.64 680.30 C 296.45 680.15 296.37 679.90 296.42 679.67 C 296.48 679.43 296.66 679.25 296.90 679.19 C 297.13 679.14 297.38 679.23 297.53 679.42 L 305.71 687.60 C 305.89 687.78 305.94 688.05 305.84 688.28 C 305.74 688.52 305.51 688.67 305.26 688.67 Z" fill="#231f20" fill-rule="nonzero" node-id="211" stroke="none" target-height="9.529968" target-width="9.570007" target-x="296.37" target-y="679.14"></path><path d="M 114.88 757.81 L 99.79 754.26" fill="#ffffff" fill-rule="nonzero" node-id="213" stroke="none" target-height="3.5499878" target-width="15.089996" target-x="99.79" target-y="754.26"></path><path d="M 114.88 758.44 L 114.74 758.44 L 99.65 754.89 C 99.31 754.81 99.11 754.48 99.18 754.14 C 99.22 753.98 99.32 753.84 99.46 753.75 C 99.60 753.66 99.77 753.63 99.93 753.67 L 115.00 757.20 C 115.30 757.28 115.50 757.57 115.47 757.88 C 115.43 758.19 115.17 758.43 114.86 758.44 Z" fill="#231f20" fill-rule="nonzero" node-id="215" stroke="none" target-height="4.8099976" target-width="16.39" target-x="99.11" target-y="753.63"></path><path d="M 411.88 323.03 L 1000.91 323.03 L 1000.91 822.76 L 411.88 822.76 Z" fill="#ffffff" fill-rule="nonzero" node-id="217" stroke="none" target-height="499.73" target-width="589.02997" target-x="411.88" target-y="323.03"></path><path d="M 1001.54 823.39 L 411.25 823.39 L 411.25 322.39 L 1001.54 322.39 Z M 412.54 822.13 L 1000.31 822.13 L 1000.31 323.65 L 412.51 323.65 Z" fill="#231f20" fill-rule="nonzero" node-id="219" stroke="none" target-height="501" target-width="590.29" target-x="411.25" target-y="322.39"></path><path d="M 887.11 721.73 C 884.65 721.73 883.04 721.66 882.77 721.65 C 882.43 721.63 882.16 721.33 882.18 720.99 C 882.20 720.65 882.49 720.38 882.83 720.39 C 883.12 720.39 912.01 721.68 921.66 712.55 C 923.59 710.85 924.70 708.42 924.73 705.85 C 924.73 705.50 925.01 705.22 925.36 705.22 L 925.36 705.22 C 925.53 705.22 925.69 705.29 925.80 705.41 C 925.92 705.53 925.98 705.69 925.98 705.86 C 925.95 708.77 924.69 711.53 922.52 713.46 C 914.71 720.85 895.71 721.73 887.11 721.73 Z" fill="#231f20" fill-rule="nonzero" node-id="221" stroke="none" target-height="16.51001" target-width="43.820007" target-x="882.16" target-y="705.22"></path><path d="M 887.77 741.80 L 887.51 740.57 C 896.11 738.61 904.58 736.08 912.85 733.00 C 917.69 731.20 922.42 729.09 927.00 726.70 L 927.29 727.25 L 928.00 727.25 L 928.00 727.62 L 927.67 727.81 C 923.03 730.24 918.24 732.38 913.33 734.20 C 904.98 737.28 896.45 739.82 887.77 741.80 Z" fill="#231f20" fill-rule="nonzero" node-id="223" stroke="none" target-height="15.099976" target-width="40.48999" target-x="887.51" target-y="726.7"></path><path d="M 937.51 750.64 C 927.22 750.64 917.05 746.24 912.51 733.83 C 912.41 733.61 912.44 733.36 912.59 733.18 C 912.74 732.99 912.98 732.90 913.21 732.95 C 913.44 733.00 913.63 733.17 913.69 733.40 C 918.63 746.83 931.27 752.31 947.49 748.06 C 955.68 745.91 961.33 741.87 964.29 736.06 C 966.91 730.89 966.96 725.17 966.37 720.82 C 965.61 725.42 962.56 731.10 953.17 734.82 C 944.09 738.42 937.11 738.90 932.43 736.25 C 930.31 735.05 927.61 732.57 926.79 727.60 L 926.79 727.44 C 926.78 727.38 926.78 727.33 926.79 727.27 C 926.79 727.04 926.92 726.82 927.12 726.71 C 936.06 721.92 941.82 715.22 942.91 708.33 C 943.68 703.51 942.02 698.82 938.13 694.75 C 934.52 690.98 929.99 689.94 925.38 691.82 C 918.17 694.82 910.96 704.91 911.13 718.61 C 911.13 718.78 911.07 718.94 910.95 719.05 C 910.84 719.17 910.68 719.24 910.51 719.24 L 910.51 719.24 C 910.17 719.24 909.89 718.96 909.88 718.62 C 909.70 704.37 917.30 693.77 924.88 690.62 C 930.00 688.53 935.02 689.67 939.02 693.84 C 943.19 698.20 944.96 703.27 944.13 708.49 C 942.99 715.66 937.13 722.59 928.13 727.56 C 928.54 730.72 930.38 733.51 933.13 735.12 C 937.46 737.57 944.13 737.12 952.79 733.61 C 969.56 726.96 964.96 714.21 964.79 713.67 C 964.71 713.36 964.87 713.03 965.17 712.92 C 965.47 712.80 965.81 712.93 965.96 713.22 C 966.17 713.74 970.89 726.00 965.53 736.58 C 962.40 742.75 956.53 747.01 947.93 749.25 C 944.53 750.16 941.03 750.63 937.51 750.64 Z" fill="#231f20" fill-rule="nonzero" node-id="225" stroke="none" target-height="63.77997" target-width="61.190002" target-x="909.7" target-y="688.53"></path><path d="M 445.24 525.65 C 445.24 525.65 363.00 529.42 341.20 514.00 C 341.20 514.00 339.48 524.22 359.29 536.81 C 359.29 536.81 332.80 560.23 318.91 546.11 C 318.91 546.07 332.22 637.75 445.24 525.65 Z" fill="#231f20" fill-rule="nonzero" node-id="227" stroke="none" target-height="123.75" target-width="126.32999" target-x="318.91" target-y="514"></path><path d="M 355.08 582.00 C 351.22 582.03 347.38 581.43 343.71 580.23 C 322.44 573.12 318.33 546.40 318.29 546.13 L 318.01 544.23 L 319.36 545.60 C 331.50 557.95 354.15 540.19 358.24 536.81 C 339.06 524.35 340.51 514.25 340.58 513.81 L 340.75 512.81 L 341.56 513.39 C 362.91 528.55 444.39 525.00 445.21 524.96 L 446.83 524.89 L 445.68 526.03 C 408.18 563.28 377.79 582.00 355.08 582.00 Z M 319.88 547.76 C 321.21 553.82 326.77 573.25 344.12 579.04 C 366.94 586.66 400.41 568.92 443.64 526.31 C 431.86 526.76 363.29 528.77 341.82 515.10 C 342.04 517.98 344.13 526.36 359.62 536.21 L 360.33 536.65 L 359.70 537.21 C 355.07 541.12 349.99 544.48 344.58 547.21 C 334.25 552.34 325.76 552.50 319.88 547.79 Z" fill="#231f20" fill-rule="nonzero" node-id="229" stroke="none" target-height="73.849976" target-width="128.81998" target-x="318.01" target-y="512.81"></path><path d="M 697.31 522.81 L 479.09 522.81 C 367.85 522.81 277.67 612.99 277.67 724.23 L 277.67 724.23 C 277.67 727.23 277.75 730.14 277.88 733.08 L 270.59 733.08 C 265.33 733.08 260.34 735.42 256.97 739.46 C 253.60 743.50 252.20 748.82 253.14 754.00 L 262.00 802.52 C 263.55 810.94 270.89 817.06 279.46 817.06 L 300.28 817.06 C 328.41 871.16 379.51 909.63 439.28 921.71 L 439.28 998.46 L 522.85 998.46 L 522.85 925.65 L 697.31 925.65 C 699.91 925.65 702.49 925.58 705.06 925.49 L 705.06 998.49 L 788.64 998.49 L 788.64 903.80 C 856.20 869.43 898.74 800.03 898.72 724.23 L 898.72 724.23 C 898.72 613.00 808.55 522.81 697.31 522.81 Z" fill="#ffffff" fill-rule="nonzero" node-id="231" stroke="none" target-height="475.68" target-width="646.54" target-x="252.2" target-y="522.81"></path><path d="M 789.26 999.09 L 704.44 999.09 L 704.44 926.09 C 701.81 926.18 699.44 926.23 697.31 926.23 L 523.50 926.23 L 523.50 999.04 L 438.67 999.04 L 438.67 922.23 C 379.06 910.01 328.11 871.62 299.93 817.69 L 279.49 817.69 C 270.62 817.69 263.01 811.36 261.41 802.63 L 252.52 754.14 C 251.54 748.78 252.99 743.25 256.48 739.07 C 259.97 734.88 265.14 732.45 270.59 732.45 L 277.23 732.45 C 277.11 729.51 277.05 726.82 277.05 724.23 C 277.05 612.82 367.69 522.23 479.05 522.23 L 697.31 522.23 C 808.71 522.23 899.31 612.86 899.31 724.23 C 899.51 800.17 856.95 869.76 789.26 904.18 Z M 705.69 997.84 L 788.00 997.84 L 788.00 903.41 L 788.34 903.24 C 855.81 869.11 898.27 799.85 898.09 724.24 C 898.09 613.52 808.01 523.45 697.30 523.45 L 479.09 523.45 C 368.38 523.45 278.30 613.52 278.30 724.24 C 278.30 727.00 278.37 729.88 278.51 733.06 L 278.51 733.71 L 270.57 733.71 C 265.49 733.71 260.67 735.97 257.42 739.87 C 254.16 743.77 252.81 748.92 253.73 753.92 L 262.63 802.42 C 264.13 810.54 271.21 816.43 279.47 816.42 L 300.67 816.42 L 300.85 816.75 C 328.89 870.69 379.83 909.05 439.42 921.10 L 439.92 921.20 L 439.92 997.84 L 522.24 997.84 L 522.24 925.00 L 697.31 925.00 C 699.64 925.00 702.17 925.00 705.04 924.84 L 705.69 924.84 Z" fill="#231f20" fill-rule="nonzero" node-id="233" stroke="none" target-height="476.86005" target-width="647.97003" target-x="251.54" target-y="522.23"></path><path d="M 379.10 587.05 L 379.10 501.00 C 379.10 501.00 434.28 543.72 434.28 587.00 Z" fill="#ffffff" fill-rule="nonzero" node-id="235" stroke="none" target-height="86.04999" target-width="55.179993" target-x="379.1" target-y="501"></path><path d="M 434.91 587.05 L 433.65 587.05 C 433.65 547.78 387.21 508.42 379.72 502.33 L 379.72 587.05 L 378.47 587.05 L 378.47 499.75 L 379.47 500.53 C 380.00 501.00 434.91 543.94 434.91 587.05 Z" fill="#231f20" fill-rule="nonzero" node-id="237" stroke="none" target-height="87.29999" target-width="56.440002" target-x="378.47" target-y="499.75"></path><path d="M 298.81 694.06 C 298.81 694.06 327.38 638.72 350.59 681.56 C 350.59 681.56 320.00 663.89 298.81 694.06 Z" fill="#231f20" fill-rule="nonzero" node-id="239" stroke="none" target-height="55.340027" target-width="51.78" target-x="298.81" target-y="638.72"></path><path d="M 299.33 694.42 L 298.26 693.77 C 301.00 688.68 304.20 683.86 307.82 679.35 C 315.65 669.68 323.27 664.74 330.49 664.67 C 338.16 664.60 345.13 670.18 351.14 681.26 L 352.19 683.26 L 350.27 682.16 C 350.00 681.93 319.88 665.08 299.33 694.42 Z M 330.64 665.92 L 330.50 665.92 C 319.50 666.03 309.20 678.84 303.65 687.22 C 321.19 669.38 342.65 677.22 349.04 680.10 C 343.56 670.69 337.37 665.92 330.64 665.92 Z" fill="#231f20" fill-rule="nonzero" node-id="241" stroke="none" target-height="29.820007" target-width="53.929993" target-x="298.26" target-y="664.6"></path><path d="M 537.86 560.51 L 741.82 560.51 L 741.82 578.18 L 537.86 578.18 Z" fill="#231f20" fill-rule="nonzero" node-id="243" stroke="none" target-height="17.669983" target-width="203.96002" target-x="537.86" target-y="560.51"></path><path d="M 742.44 578.80 L 537.23 578.80 L 537.23 559.88 L 742.44 559.88 Z M 538.44 577.55 L 741.14 577.55 L 741.14 561.14 L 538.49 561.14 Z" fill="#231f20" fill-rule="nonzero" node-id="245" stroke="none" target-height="18.919983" target-width="205.21002" target-x="537.23" target-y="559.88"></path><path d="M 862.54 396.78 C 862.54 448.50 820.62 490.42 768.90 490.42 C 717.18 490.42 675.26 448.50 675.26 396.78 C 675.26 345.06 717.18 303.14 768.90 303.14 C 820.62 303.14 862.54 345.06 862.54 396.78 Z" fill="#fbb040" fill-rule="nonzero" node-id="247" stroke="none" target-height="187.28" target-width="187.27997" target-x="675.26" target-y="303.14"></path><path d="M 769.06 491.09 C 761.15 491.07 753.28 490.06 745.62 488.09 C 697.74 475.68 667.75 428.19 677.12 379.62 C 686.48 331.06 731.98 298.13 781.04 304.41 C 830.10 310.69 865.84 354.01 862.67 403.37 C 859.50 452.73 818.52 491.13 769.06 491.09 Z M 768.73 303.73 C 719.46 303.71 678.66 342.00 675.56 391.18 C 672.46 440.35 708.13 483.46 757.01 489.64 C 805.89 495.81 851.15 462.91 860.37 414.51 C 869.59 366.11 839.59 318.88 791.86 306.65 C 784.30 304.72 776.53 303.74 768.73 303.73 Z" fill="#231f20" fill-rule="nonzero" node-id="249" stroke="none" target-height="197.68" target-width="201.84003" target-x="667.75" target-y="298.13"></path><path d="M 851.34 396.78 C 851.34 442.31 814.43 479.22 768.90 479.22 C 723.37 479.22 686.46 442.31 686.46 396.78 C 686.46 351.25 723.37 314.34 768.90 314.34 C 814.43 314.34 851.34 351.25 851.34 396.78 Z" fill="#fbb040" fill-rule="nonzero" node-id="251" stroke="none" target-height="164.88" target-width="164.88" target-x="686.46" target-y="314.34"></path><path d="M 769.00 479.83 C 728.80 479.90 694.32 451.17 687.14 411.62 C 679.95 372.07 702.12 333.04 739.77 318.97 C 777.43 304.89 819.76 319.80 840.28 354.37 L 840.28 354.37 C 855.55 380.01 855.87 411.88 841.13 437.83 C 826.39 463.78 798.85 479.82 769.00 479.83 Z M 768.72 314.94 C 731.60 315.01 699.17 340.05 689.72 375.95 C 680.27 411.84 696.17 449.60 728.44 467.94 C 760.72 486.27 801.29 480.59 827.29 454.09 C 853.28 427.59 858.19 386.92 839.24 355.00 L 839.24 355.00 C 828.21 336.30 810.15 322.80 789.10 317.50 C 782.45 315.80 775.61 314.94 768.75 314.94 Z" fill="#231f20" fill-rule="nonzero" node-id="253" stroke="none" target-height="181.37997" target-width="178.23999" target-x="679.95" target-y="304.89"></path><path d="M 780.32 358.25 L 777.82 354.03 C 773.49 346.75 764.20 343.93 754.08 345.95 L 747.67 335.16 L 740.77 339.25 L 746.23 348.44 C 744.64 349.14 743.10 349.94 741.61 350.83 C 740.11 351.71 738.67 352.69 737.30 353.75 L 731.84 344.56 L 725.00 348.65 L 731.41 359.44 C 724.79 367.37 722.81 376.88 727.13 384.16 L 734.99 397.39 C 739.31 404.67 748.61 407.49 758.73 405.46 C 761.43 404.92 764.06 404.08 766.58 402.97 C 768.17 402.27 769.71 401.47 771.21 400.59 C 772.71 399.70 774.27 398.93 775.89 398.29 C 778.50 397.24 781.26 396.59 784.07 396.37 C 789.22 396.02 793.57 397.48 795.52 400.76 L 803.33 414.00 C 805.27 417.28 804.48 421.80 801.69 426.15 C 800.16 428.51 798.27 430.63 796.09 432.42 C 793.41 434.65 790.40 436.44 787.16 437.72 C 784.55 438.77 781.79 439.42 778.98 439.64 C 773.82 440.00 769.47 438.54 767.52 435.26 L 765.00 431.00 L 757.53 435.43 L 760.04 439.64 C 764.36 446.93 773.66 449.74 783.78 447.71 L 790.51 459.04 L 797.40 454.95 L 791.62 445.22 C 793.21 444.52 794.76 443.73 796.25 442.84 C 797.74 441.95 799.18 440.98 800.56 439.92 L 806.33 449.64 L 813.22 445.55 L 806.50 434.22 C 813.12 426.30 815.10 416.80 810.77 409.52 L 802.91 396.29 C 798.59 389.00 789.30 386.19 779.17 388.21 C 776.47 388.76 773.85 389.59 771.33 390.70 C 769.74 391.40 768.19 392.19 766.70 393.08 C 765.20 393.97 763.64 394.74 762.02 395.38 C 759.41 396.43 756.65 397.08 753.84 397.30 C 748.68 397.66 744.33 396.20 742.39 392.92 L 734.53 379.69 C 732.58 376.41 733.37 371.88 736.16 367.52 C 737.70 365.17 739.59 363.06 741.76 361.26 C 743.10 360.15 744.52 359.15 746.02 358.26 C 747.52 357.37 749.08 356.61 750.70 355.97 C 753.31 354.91 756.07 354.26 758.88 354.05 C 764.04 353.69 768.39 355.16 770.33 358.43 L 772.84 362.65 Z" fill="#fbb040" fill-rule="nonzero" node-id="255" stroke="none" target-height="123.880005" target-width="92.28998" target-x="722.81" target-y="335.16"></path><path d="M 790.31 459.94 L 783.49 448.45 C 772.95 450.45 763.80 447.21 759.49 440.00 L 756.66 435.25 L 765.21 430.18 L 768.03 434.93 C 769.78 437.88 773.74 439.37 778.91 439.01 C 781.66 438.79 784.35 438.15 786.91 437.13 C 788.49 436.50 790.03 435.75 791.50 434.88 C 792.97 433.99 794.36 432.99 795.67 431.88 C 797.80 430.13 799.64 428.07 801.14 425.76 C 803.93 421.41 804.52 417.22 802.77 414.27 L 794.91 401.04 C 793.16 398.09 789.20 396.60 784.04 396.96 C 781.29 397.18 778.60 397.81 776.04 398.84 C 774.45 399.46 772.92 400.21 771.45 401.08 C 769.93 401.98 768.36 402.79 766.75 403.50 C 764.19 404.64 761.50 405.49 758.75 406.03 C 748.03 408.18 738.68 404.98 734.34 397.67 L 726.48 384.44 C 722.21 377.24 723.76 367.66 730.53 359.35 L 724.03 348.35 L 732.03 343.62 L 737.45 352.75 C 739.90 350.93 742.54 349.36 745.31 348.08 L 739.92 339.00 L 747.92 334.27 L 754.43 345.22 C 764.96 343.22 774.12 346.48 778.43 353.68 L 781.25 358.44 L 772.71 363.51 L 769.88 358.75 C 768.13 355.80 764.17 354.32 759.02 354.67 C 756.27 354.88 753.58 355.52 751.02 356.55 C 749.43 357.17 747.90 357.93 746.43 358.80 C 744.96 359.67 743.56 360.66 742.25 361.75 C 740.13 363.50 738.28 365.57 736.78 367.87 C 733.99 372.23 733.40 376.42 735.16 379.38 L 743.01 392.61 C 744.77 395.56 748.73 397.04 753.89 396.68 C 756.64 396.47 759.33 395.84 761.89 394.81 C 763.48 394.18 765.01 393.42 766.48 392.55 C 768.00 391.65 769.57 390.84 771.18 390.13 C 773.75 389.00 776.43 388.15 779.18 387.60 C 789.90 385.47 799.25 388.67 803.58 395.98 L 811.44 409.21 C 815.72 416.41 814.16 425.99 807.39 434.29 L 814.21 445.78 L 806.21 450.51 L 800.48 440.85 C 799.25 441.76 797.98 442.61 796.67 443.39 C 795.36 444.17 794.01 444.88 792.62 445.52 L 798.36 455.17 Z M 784.11 447.05 L 790.74 458.22 L 796.56 454.77 L 790.74 444.97 L 791.39 444.69 C 792.95 444.00 794.48 443.21 795.95 442.34 C 797.42 441.47 798.84 440.51 800.19 439.46 L 800.76 439.03 L 806.57 448.82 L 812.38 445.37 L 805.75 434.20 L 806.04 433.86 C 812.70 425.86 814.31 416.71 810.25 409.86 L 802.40 396.63 C 798.34 389.79 789.50 386.81 779.31 388.84 C 776.66 389.38 774.08 390.20 771.60 391.29 C 770.04 391.98 768.51 392.77 767.04 393.64 C 765.52 394.55 763.92 395.33 762.27 395.98 C 759.60 397.06 756.78 397.74 753.91 397.98 C 748.25 398.36 743.91 396.66 741.91 393.29 L 734.00 380.05 C 732.00 376.67 732.59 372.00 735.64 367.23 C 737.22 364.82 739.15 362.66 741.37 360.82 C 742.74 359.69 744.19 358.66 745.71 357.75 C 747.24 356.84 748.83 356.06 750.48 355.41 C 753.15 354.32 755.97 353.65 758.85 353.41 C 764.50 353.02 768.85 354.73 770.85 358.10 L 773.04 361.78 L 779.42 357.99 L 777.24 354.31 C 773.18 347.48 764.34 344.50 754.16 346.53 L 753.72 346.62 L 747.45 336.00 L 741.63 339.45 L 747.13 348.71 L 746.49 349.00 C 744.92 349.68 743.40 350.47 741.93 351.35 C 740.45 352.22 739.04 353.18 737.68 354.23 L 737.12 354.66 L 731.62 345.40 L 725.81 348.85 L 732.12 359.49 L 731.84 359.83 C 725.18 367.83 723.57 376.99 727.62 383.83 L 735.48 397.06 C 739.54 403.89 748.38 406.87 758.56 404.84 C 761.21 404.31 763.80 403.48 766.27 402.38 C 767.84 401.69 769.37 400.91 770.84 400.04 C 772.36 399.13 773.96 398.35 775.61 397.70 C 778.28 396.61 781.10 395.93 783.97 395.70 C 789.63 395.31 793.97 397.02 795.97 400.39 L 803.83 413.62 C 805.83 416.99 805.23 421.62 802.18 426.43 C 800.61 428.84 798.68 431.01 796.46 432.84 C 795.09 433.97 793.64 434.99 792.12 435.90 C 790.59 436.80 789.00 437.59 787.35 438.25 C 784.67 439.33 781.85 440.00 778.98 440.25 C 773.34 440.64 768.98 438.94 766.98 435.56 L 764.80 431.89 L 758.41 435.68 L 760.59 439.36 C 764.65 446.19 773.50 449.16 783.68 447.13 Z" fill="#231f20" fill-rule="nonzero" node-id="257" stroke="none" target-height="125.67001" target-width="93.50995" target-x="722.21" target-y="334.27"></path><path d="M 639.84 308.46 C 639.84 360.18 597.92 402.10 546.20 402.10 C 494.48 402.10 452.56 360.18 452.56 308.46 C 452.56 256.74 494.48 214.82 546.20 214.82 C 597.92 214.82 639.84 256.74 639.84 308.46 Z" fill="#fbb040" fill-rule="nonzero" node-id="259" stroke="none" target-height="187.28" target-width="187.28003" target-x="452.56" target-y="214.82"></path><path d="M 546.00 402.75 C 495.15 402.75 453.41 362.51 451.56 311.69 C 449.71 260.87 488.41 217.70 539.12 214.00 C 589.84 210.30 634.39 247.40 639.94 297.95 C 645.48 348.50 610.02 394.37 559.71 401.75 C 555.17 402.41 550.59 402.74 546.00 402.75 Z M 546.39 215.43 C 541.87 215.44 537.35 215.78 532.87 216.43 C 483.58 223.73 448.89 268.73 454.39 318.26 C 459.88 367.79 503.58 404.09 553.28 400.42 C 602.97 396.74 640.85 354.40 639.00 304.60 C 637.15 254.81 596.22 215.40 546.39 215.43 Z" fill="#231f20" fill-rule="nonzero" node-id="261" stroke="none" target-height="193.79" target-width="196.58997" target-x="448.89" target-y="210.3"></path><path d="M 628.64 308.46 C 628.64 353.99 591.73 390.90 546.20 390.90 C 500.67 390.90 463.76 353.99 463.76 308.46 C 463.76 262.93 500.67 226.02 546.20 226.02 C 591.73 226.02 628.64 262.93 628.64 308.46 Z" fill="#fbb040" fill-rule="nonzero" node-id="263" stroke="none" target-height="164.87999" target-width="164.88" target-x="463.76" target-y="226.02"></path><path d="M 546.10 391.50 C 507.64 391.43 474.26 364.95 465.45 327.51 C 456.64 290.06 474.71 251.47 509.11 234.27 C 543.52 217.06 585.23 225.75 609.91 255.25 C 634.59 284.76 635.76 327.35 612.74 358.17 C 597.08 379.23 572.35 391.60 546.10 391.50 Z M 546.30 226.68 C 506.17 226.66 471.96 255.75 465.53 295.36 C 459.11 334.97 482.38 373.39 520.46 386.05 C 558.54 398.70 600.17 381.86 618.74 346.28 C 637.31 310.71 627.32 266.92 595.16 242.92 C 581.05 232.38 563.91 226.69 546.30 226.68 Z" fill="#231f20" fill-rule="nonzero" node-id="265" stroke="none" target-height="181.64001" target-width="180.66998" target-x="456.64" target-y="217.06"></path><path d="M 586.17 304.25 L 589.10 300.32 C 594.17 293.53 593.21 283.87 587.47 275.32 L 595.00 265.23 L 588.58 260.44 L 582.18 269.00 C 580.91 267.80 579.58 266.68 578.18 265.64 C 576.79 264.60 575.34 263.65 573.83 262.79 L 580.23 254.22 L 573.81 249.42 L 566.30 259.48 C 556.44 256.41 546.90 258.22 541.83 265.01 L 532.62 277.33 C 527.55 284.12 528.52 293.79 534.27 302.33 C 535.80 304.61 537.59 306.72 539.58 308.62 C 540.84 309.82 542.18 310.94 543.58 311.98 C 544.98 313.02 546.28 314.18 547.49 315.43 C 549.47 317.43 551.12 319.73 552.40 322.24 C 554.71 326.87 555.02 331.45 552.74 334.50 L 543.53 346.83 C 541.25 349.88 536.77 350.88 531.69 349.98 C 528.92 349.47 526.24 348.53 523.75 347.21 C 522.21 346.40 520.73 345.47 519.34 344.43 C 517.94 343.39 516.62 342.25 515.40 341.00 C 513.42 338.99 511.77 336.69 510.49 334.18 C 508.17 329.55 507.86 324.97 510.14 321.92 L 513.07 317.99 L 506.07 312.80 L 503.13 316.72 C 498.07 323.51 499.03 333.17 504.78 341.72 L 497.00 352.32 L 503.42 357.11 L 510.19 348.06 C 511.46 349.26 512.79 350.38 514.19 351.42 C 515.58 352.46 517.04 353.41 518.55 354.27 L 511.78 363.33 L 518.20 368.13 L 526.00 357.58 C 535.85 360.66 545.39 358.84 550.46 352.06 L 559.67 339.73 C 564.74 332.94 563.78 323.28 558.03 314.73 C 556.49 312.45 554.71 310.34 552.72 308.44 C 551.45 307.24 550.12 306.12 548.72 305.08 C 547.32 304.04 546.01 302.89 544.80 301.64 C 542.83 299.63 541.17 297.33 539.89 294.82 C 537.58 290.19 537.27 285.62 539.55 282.56 L 548.76 270.23 C 551.04 267.18 555.52 266.17 560.62 267.08 C 563.39 267.60 566.06 268.53 568.55 269.85 C 570.10 270.65 571.59 271.57 573.00 272.60 C 574.39 273.63 575.69 274.77 576.90 276.00 C 578.88 278.01 580.53 280.31 581.81 282.83 C 584.12 287.45 584.43 292.03 582.15 295.08 L 579.21 299.01 Z" fill="#fbb040" fill-rule="nonzero" node-id="267" stroke="none" target-height="118.71001" target-width="98" target-x="497" target-y="249.42"></path><path d="M 518.25 369.00 L 510.82 363.45 L 517.54 354.45 C 516.23 353.67 514.96 352.82 513.74 351.91 C 512.52 351.00 511.34 350.02 510.22 348.98 L 503.50 357.98 L 496.07 352.44 L 504.07 341.73 C 498.21 332.73 497.67 323.07 502.68 316.36 L 505.99 311.93 L 513.99 317.87 L 510.68 322.30 C 508.63 325.05 508.78 329.30 511.09 333.91 C 512.34 336.36 513.96 338.61 515.89 340.57 C 518.27 343.03 521.02 345.09 524.05 346.67 C 526.48 347.96 529.09 348.87 531.80 349.38 C 536.89 350.29 540.99 349.23 543.04 346.48 L 552.25 334.15 C 554.25 331.40 554.16 327.15 551.85 322.54 C 550.60 320.09 548.98 317.84 547.05 315.88 C 545.87 314.65 544.59 313.52 543.22 312.50 C 541.82 311.45 540.48 310.31 539.22 309.09 C 537.20 307.16 535.39 305.02 533.83 302.70 C 527.74 293.62 527.12 283.75 532.20 276.95 L 541.41 264.62 C 546.41 257.91 555.87 255.67 566.14 258.74 L 573.76 248.54 L 581.19 254.08 L 574.84 262.59 C 576.15 263.37 577.42 264.22 578.64 265.13 C 579.86 266.05 581.04 267.02 582.16 268.06 L 588.51 259.55 L 595.94 265.10 L 588.31 275.31 C 594.16 284.31 594.70 293.97 589.69 300.68 L 586.38 305.11 L 578.38 299.17 L 581.69 294.74 C 583.74 291.99 583.60 287.74 581.29 283.14 C 580.04 280.69 578.42 278.44 576.49 276.47 C 574.11 274.01 571.36 271.95 568.33 270.37 C 565.90 269.08 563.29 268.17 560.58 267.66 C 555.49 266.75 551.39 267.81 549.33 270.57 L 540.12 282.90 C 538.07 285.65 538.21 289.90 540.52 294.50 C 541.78 296.95 543.39 299.20 545.32 301.17 C 546.51 302.39 547.80 303.52 549.16 304.54 C 550.56 305.59 551.90 306.73 553.16 307.95 C 555.18 309.88 556.99 312.02 558.55 314.34 C 564.63 323.42 565.25 333.29 560.17 340.09 L 551.00 352.43 C 546.00 359.15 536.54 361.38 526.28 358.31 Z M 512.58 363.20 L 517.99 367.20 L 525.76 356.80 L 526.19 356.93 C 536.09 360.03 545.19 358.00 549.96 351.63 L 559.17 339.30 C 563.92 332.94 563.28 323.62 557.51 315.00 C 556.00 312.76 554.25 310.69 552.29 308.82 C 551.05 307.63 549.74 306.53 548.37 305.50 C 546.95 304.44 545.61 303.27 544.37 302.00 C 542.36 299.93 540.67 297.57 539.37 295.00 C 536.84 289.94 536.74 285.23 539.09 282.09 L 548.29 269.76 C 550.65 266.61 555.19 265.37 560.77 266.36 C 563.60 266.90 566.33 267.85 568.88 269.20 C 570.45 270.02 571.95 270.96 573.37 272.03 C 574.80 273.09 576.13 274.26 577.37 275.53 C 579.38 277.60 581.07 279.96 582.37 282.53 C 584.90 287.59 585.00 292.30 582.65 295.44 L 580.09 298.86 L 586.04 303.31 L 588.60 299.88 C 593.36 293.52 592.72 284.21 586.94 275.58 L 586.70 275.21 L 594.10 265.30 L 588.69 261.30 L 582.24 270.00 L 581.73 269.51 C 580.49 268.33 579.18 267.22 577.81 266.20 C 576.44 265.17 575.01 264.23 573.52 263.38 L 572.91 263.03 L 579.36 254.40 L 573.94 250.40 L 566.53 260.31 L 566.11 260.18 C 556.20 257.09 547.11 259.12 542.33 265.48 L 533.12 277.81 C 528.37 284.18 529.01 293.49 534.79 302.11 C 536.30 304.35 538.05 306.43 540.01 308.29 C 541.25 309.48 542.55 310.59 543.93 311.61 C 545.36 312.67 546.70 313.84 547.93 315.12 C 549.95 317.18 551.63 319.54 552.93 322.12 C 555.46 327.19 555.56 331.89 553.21 335.04 L 544.00 347.23 C 541.66 350.38 537.11 351.62 531.55 350.62 C 528.71 350.10 525.98 349.14 523.43 347.79 C 520.29 346.14 517.43 344.00 514.95 341.46 C 512.94 339.39 511.26 337.03 509.95 334.46 C 507.42 329.40 507.32 324.69 509.67 321.54 L 512.23 318.12 L 506.23 313.67 L 503.67 317.10 C 498.91 323.46 499.55 332.78 505.33 341.40 L 505.58 341.77 L 497.81 352.17 L 503.23 356.22 L 510.04 347.09 L 510.55 347.58 C 511.79 348.76 513.10 349.87 514.47 350.89 C 515.84 351.92 517.27 352.86 518.76 353.71 L 519.37 354.06 Z" fill="#231f20" fill-rule="nonzero" node-id="269" stroke="none" target-height="120.46001" target-width="99.869995" target-x="496.07" target-y="248.54"></path><path d="M 733.48 577.79 C 733.48 577.92 733.48 578.05 733.48 578.18 L 546.21 578.18 C 546.21 578.05 546.21 577.92 546.21 577.79 C 546.21 526.07 588.13 484.15 639.85 484.15 C 691.57 484.15 733.49 526.07 733.49 577.79 Z" fill="#fbb040" fill-rule="nonzero" node-id="271" stroke="none" target-height="94.03" target-width="187.27997" target-x="546.21" target-y="484.15"></path><path d="M 734.06 578.80 L 545.62 578.80 L 545.62 578.22 C 545.62 578.08 545.62 577.93 545.62 577.79 C 545.27 543.88 563.16 512.40 592.47 495.34 C 621.78 478.29 657.99 478.29 687.30 495.34 C 716.61 512.40 734.50 543.88 734.15 577.79 C 734.15 577.93 734.15 578.08 734.15 578.22 Z M 546.83 577.55 L 732.83 577.55 C 732.83 526.19 691.19 484.55 639.83 484.55 C 588.47 484.55 546.83 526.19 546.83 577.55 Z" fill="#231f20" fill-rule="nonzero" node-id="273" stroke="none" target-height="100.50998" target-width="189.22998" target-x="545.27" target-y="478.29"></path><path d="M 722.28 577.79 C 722.28 577.92 722.28 578.05 722.28 578.18 L 557.41 578.18 C 557.41 578.05 557.41 577.92 557.41 577.79 C 557.41 532.26 594.32 495.35 639.85 495.35 C 685.38 495.35 722.29 532.26 722.29 577.79 Z" fill="#fbb040" fill-rule="nonzero" node-id="275" stroke="none" target-height="82.82999" target-width="164.88" target-x="557.41" target-y="495.35"></path><path d="M 722.85 578.80 L 556.85 578.80 L 556.85 578.22 C 556.85 578.08 556.85 577.93 556.85 577.79 C 557.35 532.27 594.39 495.63 639.91 495.63 C 685.44 495.63 722.48 532.27 722.98 577.79 C 722.98 577.93 722.98 578.08 722.98 578.22 Z M 558.00 577.55 L 721.65 577.55 C 721.65 532.37 685.02 495.74 639.84 495.74 C 594.66 495.74 558.03 532.37 558.03 577.55 Z" fill="#231f20" fill-rule="nonzero" node-id="277" stroke="none" target-height="83.16998" target-width="166.13" target-x="556.85" target-y="495.63"></path><path d="M 669.34 545.59 L 669.34 550.49 L 660.66 550.49 L 660.66 545.59 C 660.66 541.77 657.66 538.30 653.05 535.97 C 650.53 534.73 647.83 533.87 645.05 533.44 C 641.61 532.89 638.10 532.89 634.66 533.44 C 631.88 533.87 629.19 534.72 626.66 535.96 C 622.03 538.29 619.05 541.77 619.05 545.59 L 619.05 561.00 C 619.05 564.81 622.05 568.29 626.66 570.61 C 629.18 571.86 631.88 572.71 634.66 573.14 C 636.38 573.41 638.12 573.55 639.86 573.55 C 641.59 573.55 643.33 573.66 645.05 573.87 C 647.78 574.20 650.46 574.82 653.05 575.73 C 654.92 576.38 656.73 577.21 658.44 578.20 L 622.33 578.20 C 615.01 574.37 610.33 568.14 610.33 561.00 L 610.33 545.59 C 610.33 537.12 616.89 529.95 626.63 526.52 L 626.63 514.00 L 634.63 514.00 L 634.63 524.70 C 638.08 524.27 641.57 524.27 645.02 524.70 L 645.02 514.00 L 653.02 514.00 L 653.02 526.56 C 662.79 530.00 669.34 537.12 669.34 545.59 Z" fill="#fbb040" fill-rule="nonzero" node-id="279" stroke="none" target-height="64.20001" target-width="59.01001" target-x="610.33" target-y="514"></path><path d="M 660.77 578.80 L 622.17 578.80 L 622.04 578.73 C 614.20 574.63 609.70 568.16 609.70 560.98 L 609.70 545.59 C 609.70 537.21 615.94 529.77 626.01 526.08 L 626.01 513.33 L 635.27 513.33 L 635.27 524.00 C 638.31 523.69 641.37 523.69 644.41 524.00 L 644.41 513.33 L 653.68 513.33 L 653.68 526.08 C 663.74 529.77 669.96 537.21 669.96 545.59 L 669.96 551.12 L 660.00 551.12 L 660.00 545.59 C 660.00 542.16 657.35 538.86 652.74 536.53 C 650.27 535.31 647.62 534.48 644.90 534.06 C 641.52 533.52 638.09 533.52 634.71 534.06 C 631.99 534.48 629.36 535.31 626.89 536.52 C 622.26 538.84 619.61 542.15 619.61 545.59 L 619.61 561.00 C 619.61 564.43 622.26 567.73 626.88 570.06 C 629.35 571.26 631.99 572.09 634.71 572.52 C 636.40 572.79 638.10 572.92 639.81 572.92 C 641.57 572.92 643.33 573.03 645.08 573.24 C 647.86 573.58 650.59 574.22 653.23 575.14 C 655.14 575.80 656.98 576.64 658.73 577.65 Z M 622.48 577.55 L 655.89 577.55 C 654.89 577.09 653.89 576.67 652.89 576.30 C 650.34 575.41 647.69 574.79 645.01 574.47 C 643.31 574.26 641.60 574.16 639.89 574.16 C 638.12 574.16 636.34 574.02 634.59 573.74 C 631.74 573.30 628.98 572.42 626.40 571.15 C 621.34 568.61 618.40 564.90 618.40 560.98 L 618.40 545.59 C 618.40 541.66 621.30 537.94 626.40 535.40 C 628.98 534.13 631.75 533.26 634.59 532.82 C 638.10 532.26 641.67 532.26 645.18 532.82 C 648.03 533.26 650.79 534.13 653.38 535.41 C 658.44 537.96 661.38 541.67 661.38 545.59 L 661.38 549.87 L 668.80 549.87 L 668.80 545.59 C 668.80 537.59 662.72 530.59 652.93 527.11 L 652.51 526.96 L 652.51 514.59 L 645.75 514.59 L 645.75 525.37 L 645.05 525.28 C 641.65 524.87 638.21 524.87 634.81 525.28 L 634.11 525.36 L 634.11 514.59 L 627.35 514.59 L 627.35 527.00 L 626.93 527.15 C 617.00 530.57 611.00 537.64 611.00 545.59 L 611.00 561.00 C 611.00 567.64 615.16 573.67 622.48 577.55 Z" fill="#231f20" fill-rule="nonzero" node-id="281" stroke="none" target-height="65.46997" target-width="60.26001" target-x="609.7" target-y="513.33"></path><path d="M 520.49 425.40 L 521.74 425.40 L 521.74 513.95 L 520.49 513.95 Z" fill="#231f20" fill-rule="nonzero" node-id="283" stroke="none" target-height="88.55002" target-width="1.25" target-x="520.49" target-y="425.4"></path><path d="M 463.13 402.11 L 464.38 402.11 L 464.38 490.66 L 463.13 490.66 Z" fill="#231f20" fill-rule="nonzero" node-id="285" stroke="none" target-height="88.55002" target-width="1.25" target-x="463.13" target-y="402.11"></path><path d="M 656.92 249.42 L 658.17 249.42 L 658.17 440.03 L 656.92 440.03 Z" fill="#231f20" fill-rule="nonzero" node-id="287" stroke="none" target-height="190.61" target-width="1.25" target-x="656.92" target-y="249.42"></path><path d="M 710.65 188.26 L 711.90 188.26 L 711.90 292.44 L 710.65 292.44 Z" fill="#231f20" fill-rule="nonzero" node-id="289" stroke="none" target-height="104.18001" target-width="1.25" target-x="710.65" target-y="188.26"></path><path d="M 594.35 414.26 L 595.60 414.26 L 595.60 454.20 L 594.35 454.20 Z" fill="#231f20" fill-rule="nonzero" node-id="291" stroke="none" target-height="39.940002" target-width="1.25" target-x="594.35" target-y="414.26"></path><path d="M 819.84 249.42 L 821.09 249.42 L 821.09 289.36 L 819.84 289.36 Z" fill="#231f20" fill-rule="nonzero" node-id="293" stroke="none" target-height="39.939987" target-width="1.25" target-x="819.84" target-y="249.42"></path><g node-id="397"><path d="M 271.43 780.46 L 272.21 786.02 L 272.70 790.78 L 272.98 795.18 L 272.98 798.21 L 272.79 800.12 L 272.50 800.93 L 272.21 801.17 L 271.85 801.03 L 271.34 800.34 L 270.57 798.58 L 269.65 795.70 L 268.58 791.42 L 267.60 786.73 L 266.65 781.20 L 265.88 775.64 L 265.38 770.88 L 265.10 766.47 L 265.10 763.45 L 265.30 761.54 L 265.58 760.73 L 265.87 760.49 L 266.23 760.63 L 266.74 761.32 L 267.51 763.07 L 268.43 765.96 L 269.51 770.24 L 270.48 774.93 L 271.43 780.46 Z" fill="#231f20" fill-rule="nonzero" group-id="1" node-id="297" stroke="none" target-height="40.679993" target-width="7.880005" target-x="265.1" target-y="760.49"></path></g><path d="M 272.09 801.84 C 271.32 801.84 270.39 800.91 268.93 795.68 C 267.69 790.95 266.71 786.16 266.00 781.33 C 265.45 777.83 262.88 760.33 265.75 759.89 C 266.54 759.76 267.51 760.42 269.07 766.04 C 270.34 770.76 271.34 775.55 272.07 780.39 L 272.07 780.39 C 272.61 783.89 275.18 801.39 272.31 801.82 Z M 266.00 761.30 C 265.43 762.84 265.54 770.05 267.27 781.13 C 269.00 792.21 271.07 799.13 272.09 800.42 C 272.66 798.87 272.54 791.66 270.82 780.58 C 269.10 769.50 267.00 762.60 266.00 761.30 Z" fill="#231f20" fill-rule="nonzero" node-id="300" stroke="none" target-height="42.080017" target-width="12.299988" target-x="262.88" target-y="759.76"></path><path d="M 102.88 914.86 C 101.87 912.15 100.62 909.54 99.15 907.06 C 101.99 906.51 104.77 905.70 107.46 904.66 C 115.20 901.71 120.86 897.66 120.09 895.66 C 119.32 893.66 112.42 894.40 104.67 897.34 C 101.97 898.35 99.36 899.60 96.87 901.07 C 96.32 898.23 95.51 895.45 94.47 892.76 C 91.47 885.02 87.47 879.37 85.47 880.14 C 83.47 880.91 84.20 887.80 87.14 895.55 C 88.15 898.25 89.41 900.87 90.88 903.35 C 88.04 903.90 85.26 904.71 82.57 905.75 C 74.82 908.75 69.17 912.75 69.94 914.75 C 70.71 916.75 77.61 916.02 85.35 913.07 C 88.05 912.06 90.66 910.81 93.15 909.34 C 93.70 912.18 94.51 914.96 95.55 917.65 C 98.55 925.39 102.55 931.05 104.55 930.28 C 106.55 929.51 105.83 922.61 102.88 914.86 Z" fill="#ffffff" fill-rule="nonzero" node-id="302" stroke="none" target-height="51.679993" target-width="51.690002" target-x="69.17" target-y="879.37"></path><path d="M 104.18 931.00 C 101.41 931.00 97.55 924.65 94.98 917.90 C 94.03 915.45 93.28 912.93 92.72 910.36 C 90.43 911.65 88.04 912.76 85.58 913.69 C 82.21 915.02 78.70 915.94 75.11 916.42 C 71.79 916.78 69.86 916.30 69.36 915.00 C 68.86 913.70 69.99 912.00 72.71 910.12 C 75.71 908.09 78.95 906.44 82.35 905.20 C 84.80 904.25 87.33 903.49 89.90 902.94 C 88.60 900.65 87.49 898.26 86.57 895.80 C 83.81 888.54 82.47 880.64 85.25 879.58 C 88.03 878.52 92.25 885.31 95.06 892.58 C 96.00 895.03 96.75 897.55 97.31 900.12 C 99.60 898.83 101.99 897.73 104.45 896.80 C 111.71 894.03 119.61 892.69 120.67 895.48 C 121.17 896.79 120.05 898.43 117.33 900.36 C 114.33 902.39 111.08 904.04 107.68 905.28 C 105.23 906.23 102.71 906.99 100.14 907.54 C 101.43 909.83 102.54 912.22 103.47 914.68 L 103.47 914.68 C 106.23 921.94 107.57 929.84 104.78 930.90 C 104.59 930.97 104.38 931.01 104.18 931.00 Z M 93.62 908.33 L 93.78 909.22 C 94.33 912.02 95.12 914.76 96.15 917.42 C 99.27 925.62 103.08 930.18 104.34 929.69 C 105.60 929.20 105.41 923.29 102.34 915.09 C 101.34 912.42 100.11 909.84 98.66 907.38 L 98.19 906.61 L 99.09 906.44 C 101.89 905.89 104.63 905.10 107.29 904.07 C 110.59 902.87 113.74 901.27 116.65 899.30 C 118.93 897.68 119.75 896.42 119.55 895.89 C 119.08 894.63 113.15 894.81 104.95 897.89 C 102.28 898.89 99.70 900.12 97.25 901.57 L 96.47 902.04 L 96.30 901.15 C 95.76 898.35 94.97 895.60 93.93 892.95 C 90.81 884.75 87.00 880.19 85.75 880.68 C 84.50 881.17 84.67 887.08 87.75 895.29 C 88.75 897.96 89.98 900.54 91.43 902.99 L 91.90 903.76 L 91.00 904.00 C 88.20 904.55 85.46 905.34 82.80 906.37 C 79.50 907.58 76.35 909.18 73.43 911.14 C 71.15 912.76 70.33 914.02 70.53 914.55 C 70.73 915.08 72.18 915.48 74.97 915.18 C 78.46 914.71 81.87 913.81 85.14 912.51 C 87.81 911.51 90.39 910.28 92.84 908.83 Z" fill="#231f20" fill-rule="nonzero" node-id="304" stroke="none" target-height="52.48999" target-width="52.309998" target-x="68.86" target-y="878.52"></path><path d="M 107.41 906.47 C 104.78 905.28 102.05 904.31 99.25 903.60 C 100.86 901.20 102.26 898.66 103.43 896.02 C 106.82 888.46 107.97 881.62 106.00 880.73 C 104.03 879.84 99.68 885.26 96.29 892.82 C 95.09 895.45 94.12 898.19 93.41 901.00 C 91.01 899.39 88.47 898.00 85.83 896.83 C 78.27 893.43 71.43 892.28 70.54 894.25 C 69.65 896.22 75.07 900.58 82.63 903.97 C 85.26 905.17 87.98 906.13 90.78 906.85 C 89.17 909.25 87.77 911.78 86.61 914.42 C 83.22 922.00 82.06 928.80 84.00 929.68 C 85.94 930.56 90.32 925.15 93.71 917.59 C 94.91 914.96 95.87 912.24 96.59 909.44 C 98.98 911.05 101.52 912.45 104.16 913.62 C 111.72 917.01 118.57 918.16 119.45 916.19 C 120.33 914.22 115.00 909.87 107.41 906.47 Z" fill="#ffffff" fill-rule="nonzero" node-id="306" stroke="none" target-height="50.71997" target-width="50.68" target-x="69.65" target-y="879.84"></path><path d="M 84.48 930.40 C 84.24 930.40 84.00 930.35 83.78 930.25 C 81.06 929.03 82.86 921.25 86.03 914.13 C 87.10 911.73 88.35 909.41 89.77 907.20 C 87.24 906.49 84.77 905.59 82.37 904.51 C 79.03 903.06 75.89 901.21 73.00 899.00 C 70.43 897.00 69.40 895.24 70.00 894.00 C 71.22 891.28 79.00 893.07 86.12 896.25 C 88.51 897.32 90.81 898.58 93.00 900.00 C 93.71 897.47 94.60 894.99 95.69 892.60 C 98.87 885.51 103.51 878.97 106.23 880.20 C 108.95 881.43 107.16 889.20 103.98 896.32 C 102.92 898.72 101.67 901.04 100.24 903.25 C 102.77 903.96 105.25 904.85 107.64 905.94 L 107.64 905.94 C 110.97 907.38 114.11 909.21 116.99 911.41 C 119.59 913.50 120.62 915.21 119.99 916.48 C 118.77 919.20 110.99 917.41 103.87 914.23 C 101.49 913.15 99.19 911.88 97.00 910.45 C 96.30 912.98 95.40 915.46 94.31 917.85 C 91.40 924.36 87.25 930.40 84.48 930.40 Z M 73.11 893.89 C 71.99 893.89 71.29 894.10 71.11 894.48 C 70.93 894.86 71.63 896.30 73.81 898.06 C 76.61 900.19 79.66 901.97 82.89 903.37 C 85.47 904.54 88.15 905.49 90.89 906.21 L 91.78 906.42 L 91.26 907.17 C 89.67 909.54 88.29 912.04 87.14 914.65 C 83.55 922.65 83.03 928.56 84.25 929.11 C 85.47 929.66 89.55 925.34 93.14 917.34 C 94.33 914.75 95.28 912.05 96.00 909.29 L 96.21 908.41 L 96.96 908.92 C 99.33 910.51 101.83 911.89 104.44 913.04 C 112.44 916.64 118.35 917.15 118.90 915.93 C 119.13 915.41 118.39 914.11 116.20 912.35 C 113.40 910.22 110.36 908.44 107.13 907.05 L 107.13 907.05 C 104.54 905.86 101.84 904.91 99.08 904.20 L 98.20 903.99 L 98.71 903.24 C 100.31 900.88 101.69 898.37 102.84 895.76 C 106.43 887.76 106.94 881.85 105.72 881.30 C 104.50 880.75 100.43 885.07 96.84 893.07 C 95.66 895.65 94.71 898.32 94.00 901.07 L 93.78 901.96 L 93.03 901.44 C 90.67 899.85 88.17 898.47 85.56 897.32 C 80.08 894.90 75.58 893.89 73.11 893.89 Z" fill="#231f20" fill-rule="nonzero" node-id="308" stroke="none" target-height="51.430054" target-width="51.22" target-x="69.4" target-y="878.97"></path><path d="M 102.58 905.21 C 102.58 909.39 99.20 912.77 95.02 912.77 C 90.84 912.77 87.46 909.39 87.46 905.21 C 87.46 901.03 90.84 897.65 95.02 897.65 C 99.20 897.65 102.58 901.03 102.58 905.21 Z" fill="#231f20" fill-rule="nonzero" node-id="310" stroke="none" target-height="15.119995" target-width="15.120003" target-x="87.46" target-y="897.65"></path><path d="M 95.00 913.40 C 91.37 913.39 88.18 911.00 87.16 907.52 C 86.14 904.04 87.52 900.30 90.57 898.33 C 93.62 896.36 97.60 896.63 100.35 899.00 C 103.10 901.36 103.97 905.25 102.49 908.56 L 102.49 908.56 C 101.16 911.51 98.23 913.40 95.00 913.40 Z M 95.00 898.27 C 91.55 898.27 88.62 900.81 88.14 904.23 C 87.65 907.64 89.76 910.90 93.07 911.86 C 96.39 912.82 99.91 911.19 101.32 908.04 L 101.32 908.04 C 102.88 904.55 101.32 900.45 97.83 898.88 C 96.94 898.48 95.98 898.27 95.00 898.27 Z" fill="#231f20" fill-rule="nonzero" node-id="312" stroke="none" target-height="17.04004" target-width="17.830002" target-x="86.14" target-y="896.36"></path><path d="M 1071.26 780.39 C 1070.25 777.69 1069.00 775.08 1067.53 772.59 C 1070.37 772.04 1073.15 771.23 1075.84 770.18 C 1083.58 767.24 1089.23 763.18 1088.47 761.18 C 1087.71 759.18 1080.80 759.91 1073.05 762.86 C 1070.34 763.87 1067.73 765.12 1065.25 766.59 C 1064.70 763.75 1063.89 760.97 1062.85 758.28 C 1059.90 750.54 1055.85 744.88 1053.85 745.65 C 1051.85 746.42 1052.58 753.32 1055.53 761.06 C 1056.54 763.77 1057.79 766.38 1059.26 768.87 C 1056.42 769.42 1053.64 770.23 1050.95 771.27 C 1043.21 774.27 1037.56 778.27 1038.32 780.27 C 1039.08 782.27 1045.99 781.54 1053.74 778.59 C 1056.45 777.58 1059.06 776.33 1061.54 774.86 C 1062.09 777.70 1062.90 780.48 1063.94 783.17 C 1066.94 790.92 1070.94 796.57 1072.94 795.80 C 1074.94 795.03 1074.20 788.13 1071.26 780.39 Z" fill="#ffffff" fill-rule="nonzero" node-id="314" stroke="none" target-height="51.690002" target-width="51.66992" target-x="1037.56" target-y="744.88"></path><path d="M 1072.53 796.50 C 1071.34 796.50 1069.91 795.34 1068.28 793.04 C 1066.25 790.04 1064.60 786.80 1063.36 783.40 C 1062.41 780.95 1061.65 778.42 1061.10 775.85 C 1058.81 777.14 1056.42 778.26 1053.96 779.18 C 1046.70 781.94 1038.80 783.28 1037.74 780.50 C 1037.24 779.19 1038.37 777.50 1041.08 775.61 C 1044.09 773.59 1047.33 771.94 1050.73 770.69 C 1053.18 769.75 1055.70 768.99 1058.27 768.43 C 1056.98 766.14 1055.87 763.76 1054.95 761.30 C 1052.18 754.04 1050.84 746.14 1053.63 745.08 C 1056.42 744.02 1060.63 750.81 1063.43 758.08 C 1064.38 760.53 1065.14 763.05 1065.69 765.62 C 1067.98 764.33 1070.37 763.22 1072.83 762.29 C 1076.20 760.96 1079.72 760.04 1083.31 759.55 C 1086.62 759.20 1088.55 759.67 1089.05 760.98 C 1089.55 762.29 1088.42 763.93 1085.71 765.86 C 1082.71 767.89 1079.46 769.54 1076.06 770.78 C 1073.61 771.72 1071.09 772.48 1068.52 773.04 C 1069.81 775.33 1070.92 777.72 1071.84 780.18 L 1071.84 780.18 C 1073.18 783.54 1074.10 787.06 1074.58 790.65 C 1074.94 793.97 1074.47 795.90 1073.16 796.40 C 1072.96 796.47 1072.74 796.50 1072.53 796.50 Z M 1062.00 773.86 L 1062.17 774.75 C 1062.72 777.55 1063.51 780.29 1064.54 782.95 C 1065.75 786.25 1067.35 789.40 1069.31 792.32 C 1070.93 794.60 1072.20 795.42 1072.72 795.22 C 1073.24 795.02 1073.65 793.56 1073.35 790.78 C 1072.87 787.29 1071.98 783.88 1070.68 780.61 L 1070.68 780.61 C 1069.69 777.94 1068.45 775.36 1067.00 772.91 L 1066.53 772.13 L 1067.42 771.97 C 1070.22 771.42 1072.96 770.63 1075.62 769.60 C 1078.93 768.40 1082.07 766.79 1084.99 764.83 C 1087.27 763.20 1088.09 761.94 1087.89 761.41 C 1087.69 760.88 1086.24 760.49 1083.45 760.79 C 1079.96 761.26 1076.55 762.16 1073.28 763.46 C 1070.61 764.45 1068.03 765.69 1065.58 767.14 L 1064.81 767.61 L 1064.64 766.71 C 1064.09 763.91 1063.30 761.17 1062.27 758.51 C 1059.15 750.31 1055.34 745.74 1054.09 746.25 C 1052.84 746.76 1053.01 752.65 1056.09 760.85 C 1057.08 763.52 1058.32 766.10 1059.77 768.55 L 1060.24 769.33 L 1059.35 769.50 C 1056.55 770.04 1053.80 770.83 1051.15 771.87 C 1047.85 773.07 1044.70 774.67 1041.78 776.63 C 1039.50 778.26 1038.68 779.52 1038.88 780.05 C 1039.36 781.30 1045.28 781.13 1053.48 778.05 C 1056.15 777.05 1058.73 775.82 1061.19 774.37 Z" fill="#231f20" fill-rule="nonzero" node-id="316" stroke="none" target-height="52.47998" target-width="52.31006" target-x="1037.24" target-y="744.02"></path><path d="M 1075.78 772.00 C 1073.15 770.80 1070.43 769.84 1067.63 769.12 C 1069.24 766.72 1070.64 764.19 1071.81 761.55 C 1075.20 753.99 1076.35 747.14 1074.38 746.26 C 1072.41 745.38 1068.06 750.78 1064.66 758.34 C 1063.46 760.97 1062.50 763.70 1061.78 766.50 C 1059.39 764.89 1056.85 763.49 1054.21 762.32 C 1046.65 758.93 1039.81 757.78 1038.92 759.75 C 1038.03 761.72 1043.45 766.07 1051.01 769.46 C 1053.63 770.66 1056.36 771.63 1059.16 772.34 C 1057.55 774.74 1056.15 777.28 1054.98 779.92 C 1051.59 787.48 1050.44 794.32 1052.41 795.21 C 1054.38 796.10 1058.73 790.68 1062.13 783.12 C 1063.32 780.50 1064.28 777.79 1065.00 775.00 C 1067.39 776.62 1069.93 778.02 1072.57 779.18 C 1080.13 782.57 1086.97 783.72 1087.86 781.75 C 1088.75 779.78 1083.34 775.39 1075.78 772.00 Z" fill="#ffffff" fill-rule="nonzero" node-id="318" stroke="none" target-height="50.71997" target-width="50.71997" target-x="1038.03" target-y="745.38"></path><path d="M 1052.88 795.93 C 1052.63 795.93 1052.39 795.88 1052.16 795.78 C 1050.88 795.21 1050.52 793.25 1051.07 789.96 C 1051.76 786.40 1052.88 782.94 1054.41 779.66 C 1055.48 777.26 1056.73 774.94 1058.15 772.73 C 1055.62 772.02 1053.14 771.13 1050.75 770.04 C 1047.42 768.60 1044.29 766.76 1041.40 764.56 C 1038.80 762.47 1037.78 760.77 1038.35 759.49 C 1039.57 756.78 1047.35 758.57 1054.47 761.75 C 1056.87 762.81 1059.19 764.06 1061.40 765.49 C 1062.11 762.96 1063.00 760.48 1064.09 758.09 C 1067.27 751.00 1071.92 744.46 1074.63 745.69 C 1077.34 746.92 1075.56 754.69 1072.38 761.80 C 1071.31 764.20 1070.06 766.52 1068.64 768.74 C 1071.17 769.44 1073.65 770.34 1076.04 771.43 L 1076.04 771.43 C 1083.13 774.61 1089.66 779.25 1088.44 781.97 C 1087.22 784.69 1079.44 782.89 1072.32 779.71 C 1069.92 778.65 1067.60 777.40 1065.39 775.98 C 1064.68 778.51 1063.78 780.98 1062.70 783.38 C 1061.26 786.70 1059.42 789.84 1057.23 792.72 C 1055.51 794.86 1054.05 795.93 1052.88 795.93 Z M 1041.49 759.41 C 1040.36 759.41 1039.66 759.62 1039.49 760.01 C 1039.32 760.40 1040.00 761.83 1042.19 763.59 C 1044.99 765.72 1048.03 767.50 1051.26 768.89 C 1053.84 770.07 1056.51 771.02 1059.26 771.73 L 1060.14 771.95 L 1059.63 772.70 C 1058.04 775.06 1056.66 777.56 1055.51 780.17 C 1054.02 783.36 1052.93 786.72 1052.26 790.17 C 1051.79 792.93 1052.10 794.40 1052.62 794.63 C 1053.14 794.86 1054.44 794.12 1056.20 791.94 C 1058.33 789.14 1060.11 786.09 1061.50 782.86 C 1062.69 780.27 1063.64 777.57 1064.35 774.81 L 1064.56 773.93 L 1065.31 774.45 C 1067.68 776.04 1070.18 777.42 1072.79 778.57 C 1080.79 782.16 1086.70 782.68 1087.25 781.46 C 1087.80 780.24 1083.48 776.17 1075.48 772.57 L 1075.48 772.57 C 1072.90 771.39 1070.22 770.44 1067.48 769.73 L 1066.60 769.51 L 1067.11 768.77 C 1068.70 766.40 1070.08 763.90 1071.23 761.29 C 1074.83 753.29 1075.34 747.38 1074.12 746.83 C 1072.90 746.28 1068.83 750.59 1065.24 758.60 C 1064.06 761.18 1063.10 763.85 1062.39 766.60 L 1062.18 767.48 L 1061.43 766.97 C 1059.06 765.38 1056.56 763.99 1053.95 762.84 C 1048.46 760.43 1044.00 759.41 1041.49 759.41 Z" fill="#231f20" fill-rule="nonzero" node-id="320" stroke="none" target-height="51.46997" target-width="51.880005" target-x="1037.78" target-y="744.46"></path><path d="M 1070.95 770.73 C 1070.95 774.91 1067.57 778.29 1063.39 778.29 C 1059.21 778.29 1055.83 774.91 1055.83 770.73 C 1055.83 766.55 1059.21 763.17 1063.39 763.17 C 1067.57 763.17 1070.95 766.55 1070.95 770.73 Z" fill="#231f20" fill-rule="nonzero" node-id="322" stroke="none" target-height="15.119995" target-width="15.119995" target-x="1055.83" target-y="763.17"></path><path d="M 1063.38 778.92 C 1060.61 778.92 1058.02 777.51 1056.52 775.18 C 1055.01 772.85 1054.79 769.91 1055.92 767.38 C 1057.59 763.66 1061.75 761.73 1065.67 762.86 C 1069.59 764.00 1072.08 767.84 1071.50 771.89 C 1070.93 775.93 1067.46 778.93 1063.38 778.92 Z M 1063.38 763.80 C 1059.84 763.80 1056.87 766.47 1056.50 770.00 C 1056.13 773.52 1058.48 776.75 1061.94 777.49 C 1065.41 778.23 1068.87 776.23 1069.96 772.86 C 1071.06 769.49 1069.43 765.84 1066.20 764.40 C 1065.32 764.01 1064.37 763.80 1063.41 763.80 Z" fill="#231f20" fill-rule="nonzero" node-id="324" stroke="none" target-height="17.200012" target-width="17.289917" target-x="1054.79" target-y="761.73"></path><path d="M 156.90 468.20 C 153.59 464.85 149.99 461.79 146.14 459.08 C 149.99 456.38 153.59 453.34 156.90 450.00 C 166.46 440.44 172.18 430.68 169.69 428.19 C 167.20 425.70 157.43 431.42 147.88 440.97 C 144.53 444.28 141.48 447.88 138.76 451.73 C 136.04 447.88 132.99 444.28 129.64 440.97 C 120.09 431.42 110.32 425.70 107.83 428.19 C 105.34 430.68 111.06 440.44 120.61 450.00 C 123.92 453.35 127.52 456.40 131.37 459.12 C 127.52 461.84 123.92 464.89 120.61 468.24 C 111.06 477.79 105.34 487.55 107.83 490.05 C 110.32 492.55 120.09 486.82 129.64 477.26 C 132.99 473.95 136.04 470.35 138.76 466.50 C 141.48 470.35 144.53 473.95 147.88 477.26 C 157.43 486.82 167.20 492.54 169.69 490.05 C 172.18 487.56 166.46 477.75 156.90 468.20 Z" fill="#ffffff" fill-rule="nonzero" node-id="326" stroke="none" target-height="66.849976" target-width="66.84" target-x="105.34" target-y="425.7"></path><path d="M 168.00 491.22 C 163.44 491.22 154.65 484.86 147.45 477.66 C 144.29 474.53 141.39 471.15 138.78 467.55 C 136.17 471.15 133.27 474.53 130.10 477.66 C 121.50 486.27 110.63 493.66 107.41 490.45 C 104.19 487.24 111.59 476.35 120.19 467.75 C 123.32 464.59 126.70 461.69 130.30 459.08 C 126.70 456.47 123.32 453.56 120.19 450.40 C 115.98 446.30 112.29 441.71 109.19 436.72 C 107.37 433.62 105.59 429.53 107.42 427.72 C 109.25 425.91 113.33 427.72 116.42 429.50 C 121.41 432.59 126.01 436.29 130.10 440.50 C 133.27 443.63 136.17 447.01 138.78 450.61 C 141.39 447.01 144.29 443.63 147.45 440.50 C 156.06 431.90 166.93 424.50 170.15 427.71 C 171.98 429.54 170.15 433.63 168.37 436.71 C 165.27 441.70 161.58 446.29 157.37 450.39 C 154.24 453.55 150.86 456.46 147.26 459.07 C 150.86 461.68 154.24 464.58 157.37 467.74 C 165.97 476.34 173.37 487.22 170.15 490.44 C 169.57 490.99 168.79 491.27 168.00 491.22 Z M 109.55 428.22 C 109.10 428.18 108.64 428.32 108.29 428.61 C 107.55 429.35 107.69 431.71 110.29 436.11 C 113.33 441.01 116.96 445.52 121.10 449.53 C 124.38 452.86 127.95 455.89 131.77 458.58 L 132.52 459.10 L 131.77 459.61 C 127.95 462.31 124.38 465.34 121.10 468.66 C 111.17 478.59 106.39 487.66 108.31 489.58 C 110.23 491.50 119.31 486.73 129.24 476.80 C 132.55 473.52 135.56 469.94 138.24 466.13 L 138.76 465.38 L 139.27 466.13 C 141.95 469.94 144.96 473.51 148.27 476.80 C 158.20 486.73 167.27 491.50 169.19 489.58 C 171.11 487.66 166.34 478.58 156.41 468.66 L 156.41 468.66 C 153.13 465.34 149.56 462.31 145.74 459.61 L 144.99 459.10 L 145.74 458.58 C 149.56 455.89 153.13 452.86 156.41 449.53 C 160.54 445.51 164.17 441.00 167.22 436.11 C 169.80 431.71 169.93 429.35 169.22 428.61 C 167.30 426.69 158.22 431.46 148.30 441.40 C 144.99 444.69 141.98 448.26 139.30 452.07 L 138.79 452.82 L 138.27 452.07 C 135.59 448.25 132.58 444.68 129.27 441.40 C 125.25 437.26 120.74 433.63 115.84 430.58 C 112.81 428.83 110.77 428.20 109.53 428.20 Z" fill="#231f20" fill-rule="nonzero" node-id="328" stroke="none" target-height="69.16" target-width="69.17999" target-x="104.19" target-y="424.5"></path><path d="M 158.00 452.70 C 153.31 452.67 148.62 453.06 144.00 453.86 C 144.80 449.22 145.19 444.51 145.16 439.80 C 145.16 426.29 142.30 415.34 138.78 415.34 C 135.26 415.34 132.40 426.34 132.40 439.80 C 132.37 444.51 132.76 449.22 133.56 453.86 C 128.92 453.06 124.21 452.67 119.50 452.70 C 106.00 452.70 95.00 455.55 95.00 459.08 C 95.00 462.61 106.00 465.46 119.46 465.46 C 124.17 465.49 128.88 465.10 133.52 464.30 C 132.72 468.94 132.33 473.65 132.36 478.36 C 132.36 491.87 135.21 502.82 138.74 502.82 C 142.27 502.82 145.12 491.87 145.12 478.36 C 145.16 473.65 144.79 468.94 144.00 464.30 C 148.62 465.10 153.31 465.49 158.00 465.46 C 171.51 465.46 182.46 462.60 182.46 459.08 C 182.46 455.56 171.55 452.70 158.00 452.70 Z" fill="#ffffff" fill-rule="nonzero" node-id="330" stroke="none" target-height="87.48001" target-width="87.46001" target-x="95" target-y="415.34"></path><path d="M 138.76 503.45 C 134.21 503.45 131.76 490.52 131.76 478.36 C 131.73 473.91 132.07 469.47 132.76 465.07 C 128.37 465.77 123.93 466.10 119.48 466.07 C 107.32 466.07 94.39 463.61 94.39 459.07 C 94.39 454.53 107.32 452.07 119.48 452.07 C 123.93 452.04 128.37 452.38 132.76 453.07 C 132.07 448.68 131.74 444.24 131.76 439.79 C 131.76 427.63 134.22 414.70 138.76 414.70 C 143.30 414.70 145.76 427.63 145.76 439.79 C 145.79 444.24 145.46 448.68 144.76 453.07 C 149.16 452.38 153.60 452.04 158.05 452.07 C 170.21 452.07 183.14 454.52 183.14 459.07 C 183.14 463.62 170.21 466.07 158.05 466.07 C 153.60 466.10 149.16 465.77 144.76 465.07 C 145.46 469.47 145.79 473.91 145.76 478.36 C 145.77 490.52 143.31 503.45 138.76 503.45 Z M 134.32 463.52 L 134.15 464.41 C 133.36 469.02 132.97 473.69 133.00 478.36 C 133.00 492.36 136.00 502.19 138.76 502.19 C 141.52 502.19 144.51 492.40 144.51 478.36 C 144.54 473.68 144.16 469.02 143.36 464.41 L 143.20 463.52 L 144.09 463.68 C 148.68 464.47 153.34 464.86 158.00 464.83 C 172.00 464.83 181.83 461.83 181.83 459.08 C 181.83 456.33 172.04 453.32 158.00 453.32 C 153.33 453.29 148.66 453.68 144.05 454.47 L 143.16 454.64 L 143.32 453.74 C 144.12 449.14 144.50 444.47 144.47 439.80 C 144.47 425.75 141.47 415.96 138.72 415.96 C 135.97 415.96 133.00 425.75 133.00 439.80 C 132.97 444.47 133.36 449.14 134.15 453.74 L 134.32 454.64 L 133.42 454.47 C 128.82 453.68 124.15 453.29 119.48 453.32 C 105.48 453.32 95.64 456.32 95.64 459.08 C 95.64 461.84 105.43 464.83 119.48 464.83 C 124.15 464.86 128.82 464.47 133.42 463.68 Z" fill="#231f20" fill-rule="nonzero" node-id="332" stroke="none" target-height="88.75" target-width="88.75" target-x="94.39" target-y="414.7"></path><path d="M 151.09 459.08 C 151.09 465.89 145.57 471.41 138.76 471.41 C 131.95 471.41 126.43 465.89 126.43 459.08 C 126.43 452.27 131.95 446.75 138.76 446.75 C 145.57 446.75 151.09 452.27 151.09 459.08 Z" fill="#231f20" fill-rule="nonzero" node-id="334" stroke="none" target-height="24.660004" target-width="24.659996" target-x="126.43" target-y="446.75"></path><path d="M 138.76 472.00 C 131.58 472.00 125.76 466.18 125.76 459.00 C 125.76 451.82 131.58 446.00 138.76 446.00 C 145.94 446.00 151.76 451.82 151.76 459.00 C 151.76 466.18 145.94 472.00 138.76 472.00 Z M 138.76 447.33 C 134.02 447.33 129.75 450.18 127.93 454.55 C 126.12 458.93 127.12 463.97 130.47 467.32 C 133.81 470.67 138.85 471.67 143.23 469.86 C 147.61 468.05 150.46 463.78 150.46 459.04 C 150.43 452.59 145.21 447.38 138.76 447.37 Z" fill="#231f20" fill-rule="nonzero" node-id="336" stroke="none" target-height="26" target-width="25.999992" target-x="125.76" target-y="446"></path><path d="M 928.57 906.76 C 925.26 903.41 921.66 900.36 917.81 897.64 C 921.66 894.92 925.26 891.87 928.57 888.52 C 938.12 878.97 943.85 869.20 941.35 866.71 C 938.85 864.22 929.10 869.94 919.54 879.50 C 916.19 882.81 913.14 886.41 910.42 890.26 C 907.71 886.41 904.66 882.81 901.30 879.50 C 891.75 869.94 881.99 864.22 879.49 866.71 C 876.99 869.20 882.73 878.97 892.28 888.52 C 895.58 891.87 899.17 894.92 903.00 897.64 C 899.15 900.36 895.55 903.41 892.24 906.76 C 882.69 916.31 876.96 926.08 879.45 928.57 C 881.94 931.06 891.71 925.34 901.26 915.78 C 904.63 912.47 907.70 908.86 910.42 905.00 C 913.14 908.84 916.19 912.44 919.54 915.75 C 929.10 925.31 938.86 931.03 941.35 928.54 C 943.84 926.05 938.12 916.31 928.57 906.76 Z" fill="#ffffff" fill-rule="nonzero" node-id="338" stroke="none" target-height="66.84003" target-width="66.88995" target-x="876.96" target-y="864.22"></path><path d="M 881.20 929.78 C 880.41 929.83 879.63 929.55 879.05 929.01 C 877.22 927.18 879.05 923.10 880.83 920.01 C 883.92 915.02 887.62 910.42 891.83 906.33 C 894.98 903.16 898.38 900.25 902.00 897.64 C 898.38 895.04 894.99 892.15 891.84 889.00 C 887.63 884.90 883.94 880.31 880.84 875.32 C 879.02 872.21 877.23 868.13 879.06 866.32 C 882.28 863.10 893.16 870.50 901.76 879.10 C 904.91 882.23 907.81 885.61 910.43 889.21 C 913.05 885.61 915.95 882.23 919.11 879.10 C 927.71 870.50 938.59 863.10 941.81 866.32 C 943.63 868.15 941.81 872.23 940.03 875.32 C 936.92 880.31 933.22 884.90 929.00 889.00 C 925.87 892.16 922.49 895.06 918.89 897.67 C 922.49 900.28 925.87 903.17 929.00 906.32 C 933.21 910.41 936.91 915.01 940.00 920.00 C 941.82 923.10 943.60 927.18 941.78 929.00 C 938.56 932.22 927.68 924.82 919.08 916.22 C 915.92 913.09 913.02 909.71 910.40 906.11 C 907.79 909.71 904.89 913.09 901.73 916.22 C 894.55 923.42 885.76 929.78 881.20 929.78 Z M 881.20 866.78 C 880.73 866.74 880.27 866.89 879.92 867.20 C 879.18 867.94 879.31 870.30 881.92 874.70 C 884.97 879.60 888.60 884.11 892.73 888.13 C 896.01 891.44 899.58 894.45 903.40 897.13 L 904.15 897.65 L 903.41 898.17 C 899.59 900.85 896.02 903.86 892.73 907.17 C 888.60 911.20 884.97 915.70 881.92 920.60 C 879.34 925.00 879.21 927.36 879.92 928.10 C 881.84 930.02 890.92 925.24 900.84 915.31 C 904.15 912.02 907.16 908.45 909.84 904.64 L 910.35 903.89 L 910.87 904.64 C 913.55 908.46 916.56 912.03 919.87 915.31 C 929.80 925.24 938.87 930.02 940.79 928.10 C 941.53 927.36 941.40 925.00 938.79 920.60 C 935.74 915.70 932.11 911.19 927.97 907.17 L 927.97 907.17 C 924.69 903.86 921.11 900.85 917.30 898.17 L 916.55 897.65 L 917.30 897.13 C 921.12 894.45 924.69 891.44 927.97 888.13 C 932.11 884.11 935.74 879.60 938.79 874.70 C 941.37 870.30 941.50 867.94 940.79 867.20 C 938.86 865.29 929.79 870.06 919.87 879.99 C 916.56 883.27 913.55 886.84 910.87 890.66 L 910.35 891.41 L 909.84 890.66 C 907.16 886.85 904.15 883.28 900.84 879.99 C 892.38 871.46 884.53 866.73 881.22 866.73 Z" fill="#231f20" fill-rule="nonzero" node-id="340" stroke="none" target-height="69.119995" target-width="66.410034" target-x="877.22" target-y="863.1"></path><path d="M 929.70 891.26 C 924.99 891.23 920.29 891.62 915.65 892.42 C 916.45 887.78 916.84 883.07 916.81 878.36 C 916.81 864.85 913.95 853.90 910.42 853.90 C 906.89 853.90 904.04 864.90 904.04 878.36 C 904.01 883.07 904.40 887.78 905.20 892.42 C 900.56 891.62 895.86 891.23 891.15 891.26 C 877.64 891.26 866.68 894.12 866.68 897.64 C 866.68 901.16 877.68 904.02 891.15 904.02 C 895.86 904.05 900.56 903.66 905.20 902.86 C 904.39 907.50 903.98 912.21 904.00 916.92 C 904.00 930.43 906.86 941.38 910.38 941.38 C 913.90 941.38 916.77 930.38 916.77 916.92 C 916.80 912.21 916.41 907.50 915.61 902.86 C 920.26 903.66 924.98 904.04 929.70 904.00 C 943.21 904.00 954.17 901.15 954.17 897.62 C 954.17 894.09 943.21 891.26 929.70 891.26 Z" fill="#ffffff" fill-rule="nonzero" node-id="342" stroke="none" target-height="87.47998" target-width="87.48999" target-x="866.68" target-y="853.9"></path><path d="M 910.42 942.00 C 905.87 942.00 903.42 929.07 903.42 916.91 C 903.39 912.46 903.73 908.02 904.42 903.62 C 900.03 904.31 895.59 904.65 891.14 904.62 C 878.97 904.62 866.05 902.16 866.05 897.62 C 866.05 893.08 878.97 890.62 891.14 890.62 C 895.59 890.59 900.03 890.92 904.42 891.62 C 903.73 887.22 903.39 882.78 903.42 878.33 C 903.42 866.17 905.88 853.24 910.42 853.24 C 914.96 853.24 917.42 866.17 917.42 878.33 C 917.44 882.78 917.11 887.22 916.42 891.62 C 920.81 890.92 925.25 890.59 929.70 890.62 C 941.86 890.62 954.79 893.08 954.79 897.62 C 954.79 902.16 941.86 904.62 929.70 904.62 C 925.25 904.65 920.81 904.32 916.42 903.62 C 917.11 908.02 917.44 912.46 917.42 916.91 C 917.43 929.08 915.00 942.00 910.42 942.00 Z M 906.00 902.08 L 905.84 902.97 C 905.05 907.58 904.66 912.25 904.69 916.92 C 904.69 930.97 907.69 940.75 910.44 940.75 C 913.19 940.75 916.20 930.97 916.20 916.92 C 916.21 912.25 915.81 907.60 915.00 903.00 L 914.83 902.11 L 915.73 902.27 C 920.33 903.07 925.00 903.46 929.67 903.43 C 943.67 903.43 953.51 900.43 953.51 897.67 C 953.51 894.91 943.72 891.92 929.67 891.92 C 925.01 891.87 920.36 892.23 915.76 893.00 L 914.86 893.16 L 915.03 892.27 C 915.82 887.66 916.21 882.99 916.18 878.32 C 916.18 864.32 913.18 854.49 910.42 854.49 C 907.66 854.49 904.67 864.28 904.67 878.32 C 904.64 882.99 905.03 887.66 905.82 892.27 L 905.98 893.16 L 905.09 893.00 C 900.49 892.20 895.82 891.82 891.15 891.85 C 877.15 891.85 867.31 894.85 867.31 897.60 C 867.31 900.35 877.10 903.36 891.15 903.36 C 895.82 903.39 900.49 903.00 905.09 902.20 Z" fill="#231f20" fill-rule="nonzero" node-id="344" stroke="none" target-height="88.76001" target-width="88.73999" target-x="866.05" target-y="853.24"></path><path d="M 922.75 897.64 C 922.75 904.45 917.23 909.97 910.42 909.97 C 903.61 909.97 898.09 904.45 898.09 897.64 C 898.09 890.83 903.61 885.31 910.42 885.31 C 917.23 885.31 922.75 890.83 922.75 897.64 Z" fill="#231f20" fill-rule="nonzero" node-id="346" stroke="none" target-height="24.659973" target-width="24.659973" target-x="898.09" target-y="885.31"></path><path d="M 910.42 910.60 C 903.24 910.60 897.42 904.78 897.42 897.60 C 897.42 890.42 903.24 884.60 910.42 884.60 C 917.60 884.60 923.42 890.42 923.42 897.60 C 923.42 904.78 917.60 910.60 910.42 910.60 Z M 910.42 885.93 C 903.95 885.93 898.71 891.17 898.71 897.64 C 898.71 904.11 903.95 909.35 910.42 909.35 C 916.89 909.35 922.13 904.11 922.13 897.64 C 922.12 891.18 916.88 885.94 910.42 885.93 Z" fill="#231f20" fill-rule="nonzero" node-id="348" stroke="none" target-height="26" target-width="26" target-x="897.42" target-y="884.6"></path><path d="M 940.90 582.43 C 937.59 579.08 933.99 576.02 930.14 573.31 C 933.99 570.59 937.59 567.54 940.90 564.19 C 950.45 554.64 956.18 544.87 953.69 542.38 C 951.20 539.89 941.43 545.61 931.88 555.16 C 928.53 558.47 925.47 562.07 922.76 565.92 C 920.04 562.07 916.99 558.47 913.64 555.16 C 904.08 545.61 894.32 539.89 891.83 542.38 C 889.34 544.87 895.06 554.64 904.61 564.19 C 907.92 567.54 911.52 570.59 915.37 573.31 C 911.52 576.02 907.92 579.08 904.61 582.43 C 895.06 591.98 889.33 601.75 891.83 604.24 C 894.33 606.73 904.08 601.01 913.64 591.45 C 916.99 588.14 920.04 584.54 922.76 580.69 C 925.47 584.54 928.53 588.14 931.88 591.45 C 941.43 601.01 951.19 606.73 953.69 604.24 C 956.19 601.75 950.45 592.00 940.90 582.43 Z" fill="#ffffff" fill-rule="nonzero" node-id="350" stroke="none" target-height="66.839966" target-width="66.859985" target-x="889.33" target-y="539.89"></path><path d="M 952.00 605.45 C 950.00 605.45 947.31 604.18 945.12 602.90 C 940.13 599.80 935.54 596.11 931.44 591.90 C 928.28 588.77 925.38 585.38 922.77 581.78 C 920.15 585.38 917.25 588.77 914.09 591.90 C 909.99 596.11 905.40 599.80 900.41 602.90 C 897.31 604.72 893.22 606.51 891.41 604.68 C 889.60 602.85 891.41 598.77 893.19 595.68 C 896.29 590.69 899.98 586.10 904.19 582.00 C 907.32 578.84 910.70 575.94 914.30 573.33 C 910.70 570.72 907.32 567.81 904.19 564.65 C 895.59 556.05 888.19 545.17 891.40 541.95 C 894.61 538.73 905.50 546.14 914.10 554.74 C 917.26 557.87 920.17 561.25 922.78 564.85 C 925.39 561.25 928.29 557.87 931.45 554.74 C 935.55 550.53 940.14 546.84 945.13 543.74 C 948.24 541.92 952.32 540.14 954.13 541.97 C 955.94 543.80 954.13 547.88 952.35 550.97 C 949.26 555.96 945.56 560.56 941.35 564.65 C 938.22 567.81 934.84 570.72 931.24 573.33 C 934.84 575.94 938.21 578.84 941.34 582.00 C 945.55 586.10 949.24 590.69 952.34 595.68 C 954.16 598.79 955.95 602.87 954.12 604.68 C 953.55 605.21 952.78 605.49 952.00 605.45 Z M 922.77 579.59 L 923.28 580.34 C 925.97 584.15 929.00 587.72 932.32 591.00 C 936.34 595.14 940.85 598.77 945.75 601.81 C 950.15 604.39 952.50 604.52 953.24 603.81 C 953.98 603.10 953.85 600.72 951.24 596.32 C 948.20 591.42 944.57 586.91 940.43 582.89 L 940.43 582.89 C 937.14 579.58 933.57 576.57 929.75 573.89 L 929.01 573.38 L 929.76 572.86 C 933.57 570.18 937.15 567.17 940.43 563.86 C 944.56 559.83 948.19 555.33 951.24 550.43 C 953.82 546.03 953.95 543.67 953.24 542.93 C 952.53 542.19 950.15 542.32 945.75 544.93 C 940.85 547.97 936.34 551.60 932.32 555.74 C 929.00 559.02 925.97 562.59 923.27 566.41 L 922.76 567.16 L 922.24 566.41 C 919.56 562.59 916.55 559.02 913.24 555.74 C 903.31 545.80 894.24 541.03 892.32 542.95 C 890.40 544.87 895.17 553.95 905.11 563.88 C 908.39 567.19 911.97 570.20 915.78 572.88 L 916.53 573.40 L 915.78 573.91 C 911.96 576.59 908.39 579.60 905.11 582.91 C 900.97 586.93 897.34 591.44 894.29 596.34 C 891.71 600.74 891.58 603.10 892.29 603.83 C 893.00 604.56 895.39 604.44 899.79 601.83 C 904.68 598.78 909.18 595.14 913.19 591.00 C 916.50 587.72 919.51 584.15 922.19 580.33 Z" fill="#231f20" fill-rule="nonzero" node-id="352" stroke="none" target-height="67.78003" target-width="67.76001" target-x="888.19" target-y="538.73"></path><path d="M 942.00 566.93 C 937.31 566.90 932.62 567.29 928.00 568.09 C 928.80 563.44 929.18 558.72 929.14 554.00 C 929.14 540.49 926.28 529.54 922.76 529.54 C 919.24 529.54 916.37 540.49 916.37 554.00 C 916.34 558.71 916.73 563.42 917.54 568.06 C 912.90 567.26 908.19 566.87 903.48 566.90 C 889.97 566.90 879.02 569.75 879.02 573.28 C 879.02 576.81 890.02 579.66 903.48 579.66 C 908.19 579.69 912.90 579.30 917.54 578.50 C 916.73 583.14 916.34 587.85 916.37 592.56 C 916.37 606.07 919.23 617.02 922.76 617.02 C 926.29 617.02 929.14 606.07 929.14 592.56 C 929.17 587.86 928.79 583.16 928.00 578.53 C 932.62 579.33 937.31 579.72 942.00 579.69 C 955.52 579.69 966.47 576.83 966.47 573.31 C 966.47 569.79 955.55 566.93 942.00 566.93 Z" fill="#ffffff" fill-rule="nonzero" node-id="354" stroke="none" target-height="87.48004" target-width="87.44995" target-x="879.02" target-y="529.54"></path><path d="M 922.76 617.68 C 918.20 617.68 915.76 604.75 915.76 592.59 C 915.73 588.14 916.07 583.70 916.76 579.30 C 912.37 580.00 907.93 580.33 903.48 580.30 C 891.32 580.30 878.39 577.84 878.39 573.30 C 878.39 568.76 891.32 566.30 903.48 566.30 C 907.93 566.28 912.37 566.61 916.76 567.30 C 916.07 562.91 915.74 558.47 915.76 554.02 C 915.76 541.86 918.21 528.93 922.76 528.93 C 927.31 528.93 929.76 541.86 929.76 554.02 C 929.79 558.47 929.46 562.91 928.76 567.30 C 933.15 566.61 937.59 566.28 942.04 566.30 C 954.21 566.30 967.13 568.76 967.13 573.30 C 967.13 577.84 954.21 580.30 942.04 580.30 C 937.59 580.33 933.15 580.00 928.76 579.30 C 929.46 583.70 929.79 588.14 929.76 592.59 C 929.77 604.75 927.31 617.68 922.76 617.68 Z M 918.32 577.75 L 918.15 578.64 C 917.35 583.26 916.97 587.95 917.00 592.64 C 917.00 606.64 920.00 616.47 922.76 616.47 C 925.52 616.47 928.51 606.68 928.51 592.64 C 928.54 587.95 928.16 583.26 927.36 578.64 L 927.20 577.75 L 928.09 577.91 C 932.68 578.71 937.34 579.09 942.00 579.06 C 956.05 579.06 965.84 576.06 965.84 573.31 C 965.84 570.56 956.05 567.55 942.00 567.55 C 937.33 567.52 932.66 567.91 928.06 568.70 L 927.17 568.87 L 927.33 567.97 C 928.14 563.36 928.53 558.68 928.51 554.00 C 928.51 540.00 925.51 530.16 922.76 530.16 C 920.01 530.16 917.00 540.00 917.00 554.00 C 916.97 558.69 917.35 563.38 918.15 568.00 L 918.32 568.90 L 917.42 568.73 C 912.82 567.94 908.15 567.55 903.48 567.58 C 889.43 567.58 879.64 570.58 879.64 573.34 C 879.64 576.10 889.43 579.09 903.48 579.09 C 908.15 579.12 912.82 578.74 917.42 577.94 Z" fill="#231f20" fill-rule="nonzero" node-id="356" stroke="none" target-height="88.75" target-width="88.73999" target-x="878.39" target-y="528.93"></path><path d="M 935.09 573.31 C 935.09 580.12 929.57 585.64 922.76 585.64 C 915.95 585.64 910.43 580.12 910.43 573.31 C 910.43 566.50 915.95 560.98 922.76 560.98 C 929.57 560.98 935.09 566.50 935.09 573.31 Z" fill="#231f20" fill-rule="nonzero" node-id="358" stroke="none" target-height="24.660034" target-width="24.660034" target-x="910.43" target-y="560.98"></path><path d="M 922.76 586.27 C 915.58 586.27 909.76 580.45 909.76 573.27 C 909.76 566.09 915.58 560.27 922.76 560.27 C 929.94 560.27 935.76 566.09 935.76 573.27 C 935.76 580.45 929.94 586.27 922.76 586.27 Z M 922.76 561.60 C 918.02 561.60 913.75 564.45 911.93 568.82 C 910.12 573.20 911.12 578.24 914.47 581.59 C 917.81 584.94 922.85 585.94 927.23 584.13 C 931.61 582.32 934.46 578.05 934.46 573.31 C 934.45 566.85 929.22 561.61 922.76 561.60 Z" fill="#231f20" fill-rule="nonzero" node-id="360" stroke="none" target-height="26" target-width="26" target-x="909.76" target-y="560.27"></path><path d="M 277.33 491.34 L 277.33 491.34 C 268.60 487.42 258.35 491.32 254.43 500.05 L 249.51 511.00 L 238.68 506.13 C 229.95 502.21 219.69 506.10 215.77 514.83 L 215.77 514.83 C 212.50 522.10 215.74 530.65 223.00 533.94 L 265.47 553.00 L 265.47 552.89 L 278.47 524.01 L 284.57 510.45 C 287.84 503.17 284.60 494.63 277.33 491.34 Z" fill="#ffffff" fill-rule="nonzero" node-id="362" stroke="none" target-height="65.57999" target-width="75.34" target-x="212.5" target-y="487.42"></path><path d="M 265.84 553.73 L 265.22 553.59 L 222.78 534.51 C 215.19 531.09 211.80 522.17 215.20 514.57 C 219.29 505.55 229.90 501.53 238.94 505.57 L 249.19 510.18 L 253.85 499.81 C 257.94 490.79 268.55 486.77 277.59 490.81 L 277.59 490.81 C 281.25 492.45 284.11 495.48 285.53 499.24 C 286.95 502.99 286.82 507.15 285.17 510.81 Z M 231.58 505.22 C 225.00 505.22 219.04 509.08 216.34 515.08 C 213.22 522.05 216.33 530.23 223.29 533.37 L 265.16 552.19 L 284.02 510.19 C 285.53 506.84 285.64 503.04 284.34 499.61 C 283.04 496.17 280.43 493.40 277.08 491.90 L 277.08 491.90 C 273.04 490.08 268.44 489.95 264.30 491.53 C 260.16 493.10 256.81 496.26 255.00 500.30 L 249.82 511.82 L 238.42 506.69 C 236.27 505.72 233.94 505.22 231.58 505.22 Z" fill="#231f20" fill-rule="nonzero" node-id="364" stroke="none" target-height="66.95999" target-width="75.15001" target-x="211.8" target-y="486.77"></path><path d="M 363.00 426.31 L 363.00 426.31 C 353.82 417.32 339.09 417.47 330.09 426.64 L 318.82 438.14 L 307.45 427.00 C 298.27 418.00 283.54 418.15 274.54 427.32 L 274.54 427.32 C 267.04 434.98 267.16 447.27 274.82 454.78 L 319.42 498.52 L 319.54 498.40 L 349.31 468.00 L 363.31 453.75 C 370.79 446.08 370.65 433.81 363.00 426.31 Z" fill="#ffffff" fill-rule="nonzero" node-id="366" stroke="none" target-height="81.19998" target-width="103.75" target-x="267.04" target-y="417.32"></path><path d="M 319.43 499.38 L 318.99 498.94 L 274.38 455.21 C 266.48 447.46 266.35 434.77 274.10 426.86 C 283.34 417.45 298.46 417.30 307.89 426.53 L 318.82 437.25 L 329.66 426.20 C 334.08 421.65 340.14 419.06 346.48 419.00 C 352.83 418.94 358.94 421.39 363.48 425.83 C 371.38 433.58 371.51 446.27 363.76 454.18 Z M 291.16 421.00 C 285.09 420.99 279.26 423.41 275.00 427.74 C 267.74 435.15 267.86 447.04 275.26 454.31 L 319.42 497.61 L 362.84 453.33 C 370.10 445.92 369.98 434.03 362.58 426.76 C 358.28 422.57 352.50 420.24 346.50 420.29 C 340.49 420.33 334.75 422.78 330.56 427.08 L 318.84 439.00 L 307.00 427.42 C 302.76 423.29 297.08 420.98 291.16 421.00 Z" fill="#231f20" fill-rule="nonzero" node-id="368" stroke="none" target-height="82.08002" target-width="105.16" target-x="266.35" target-y="417.3"></path><path d="M 907.63 984.03 L 1096.71 984.03 L 1096.71 998.46 L 907.63 998.46 Z" fill="#fbb040" fill-rule="nonzero" node-id="370" stroke="none" target-height="14.429993" target-width="189.07996" target-x="907.63" target-y="984.03"></path><path d="M 1097.35 999.09 L 907.00 999.09 L 907.00 983.41 L 1097.34 983.41 Z M 908.26 997.84 L 1096.09 997.84 L 1096.09 984.66 L 908.26 984.66 Z" fill="#231f20" fill-rule="nonzero" node-id="372" stroke="none" target-height="15.680054" target-width="190.34998" target-x="907" target-y="983.41"></path><path d="M 889.49 969.61 L 1078.57 969.61 L 1078.57 984.04 L 889.49 984.04 Z" fill="#fbb040" fill-rule="nonzero" node-id="374" stroke="none" target-height="14.429993" target-width="189.07996" target-x="889.49" target-y="969.61"></path><path d="M 1079.20 984.66 L 888.86 984.66 L 888.86 969.00 L 1079.20 969.00 Z M 890.11 983.41 L 1078.00 983.41 L 1078.00 970.23 L 890.11 970.23 Z" fill="#231f20" fill-rule="nonzero" node-id="376" stroke="none" target-height="15.659973" target-width="190.33997" target-x="888.86" target-y="969"></path><path d="M 900.10 955.18 L 1089.18 955.18 L 1089.18 969.61 L 900.10 969.61 Z" fill="#fbb040" fill-rule="nonzero" node-id="378" stroke="none" target-height="14.429993" target-width="189.08008" target-x="900.1" target-y="955.18"></path><path d="M 1089.81 970.23 L 899.47 970.23 L 899.47 954.55 L 1089.81 954.55 Z M 900.72 969.00 L 1088.55 969.00 L 1088.55 955.80 L 900.72 955.80 Z" fill="#231f20" fill-rule="nonzero" node-id="380" stroke="none" target-height="15.679993" target-width="190.34009" target-x="899.47" target-y="954.55"></path><path d="M 900.10 940.75 L 1089.18 940.75 L 1089.18 955.18 L 900.10 955.18 Z" fill="#fbb040" fill-rule="nonzero" node-id="382" stroke="none" target-height="14.429993" target-width="189.08008" target-x="900.1" target-y="940.75"></path><path d="M 1089.81 955.80 L 899.47 955.80 L 899.47 940.12 L 1089.81 940.12 Z M 900.72 954.55 L 1088.55 954.55 L 1088.55 941.38 L 900.72 941.38 Z" fill="#231f20" fill-rule="nonzero" node-id="384" stroke="none" target-height="15.679993" target-width="190.34009" target-x="899.47" target-y="940.12"></path><path d="M 915.37 926.32 L 1104.45 926.32 L 1104.45 940.75 L 915.37 940.75 Z" fill="#fbb040" fill-rule="nonzero" node-id="386" stroke="none" target-height="14.429993" target-width="189.07996" target-x="915.37" target-y="926.32"></path><path d="M 1105.09 941.38 L 914.75 941.38 L 914.75 925.69 L 1105.09 925.69 Z M 916.00 940.12 L 1103.83 940.12 L 1103.83 927.00 L 916.00 927.00 Z" fill="#231f20" fill-rule="nonzero" node-id="388" stroke="none" target-height="15.690002" target-width="190.33997" target-x="914.75" target-y="925.69"></path><path d="M 819.97 986.96 L 971.57 873.96 L 980.19 885.53 L 828.59 998.53 Z" fill="#fbb040" fill-rule="nonzero" group-id="2" node-id="392" stroke="none" target-height="124.57001" target-width="160.22003" target-x="819.97" target-y="873.96"></path><path d="M 828.48 999.34 L 819.11 986.77 L 971.71 873.00 L 981.09 885.57 Z M 820.86 987.00 L 828.74 997.57 L 979.33 885.33 L 971.46 874.76 Z" fill="#231f20" fill-rule="nonzero" node-id="395" stroke="none" target-height="126.34003" target-width="161.98004" target-x="819.11" target-y="873"></path></svg>