<?xml version="1.0" standalone="no"?><!DOCTYPE svg PUBLIC "-//W3C//DTD SVG 1.1//EN" "http://www.w3.org/Graphics/SVG/1.1/DTD/svg11.dtd"><svg height="1200" node-id="1" sillyvg="true" template-height="1200" template-width="1200" version="1.1" viewBox="0 0 1200 1200" width="1200" xmlns="http://www.w3.org/2000/svg" xmlns:xlink="http://www.w3.org/1999/xlink"><defs node-id="185"></defs><path d="M 425.44 235.79 L 1084.48 235.79 L 1084.48 697.93 L 425.44 697.93 Z" fill="#ffffff" fill-rule="nonzero" node-id="187" stroke="none" target-height="462.14" target-width="659.04" target-x="425.44" target-y="235.79"></path><path d="M 1085.00 698.49 L 424.89 698.49 L 424.89 235.24 L 1085.00 235.24 Z M 426.00 697.38 L 1083.93 697.38 L 1083.93 236.38 L 426.00 236.38 Z" fill="#231f20" fill-rule="nonzero" node-id="189" stroke="none" target-height="463.25" target-width="660.11" target-x="424.89" target-y="235.24"></path><path d="M 742.50 313.44 L 883.61 313.44 L 883.61 498.49 L 742.50 498.49 Z" fill="#ffffff" fill-rule="nonzero" node-id="191" stroke="none" target-height="185.04999" target-width="141.10999" target-x="742.5" target-y="313.44"></path><path d="M 884.17 499.00 L 742.00 499.00 L 742.00 312.89 L 884.17 312.89 Z M 743.05 497.90 L 883.05 497.90 L 883.05 314.00 L 743.05 314.00 Z" fill="#231f20" fill-rule="nonzero" node-id="193" stroke="none" target-height="186.10999" target-width="142.16998" target-x="742" target-y="312.89"></path><path d="M 742.86 448.08 L 742.14 447.23 L 813.17 386.95 L 845.44 434.58 L 883.28 405.53 L 883.95 406.40 L 845.18 436.17 L 812.95 388.60 L 742.86 448.08 Z" fill="#231f20" fill-rule="nonzero" node-id="195" stroke="none" target-height="61.129974" target-width="141.81" target-x="742.14" target-y="386.95"></path><path d="M 803.28 369.35 C 803.28 379.52 795.03 387.77 784.86 387.77 C 774.69 387.77 766.44 379.52 766.44 369.35 C 766.44 359.18 774.69 350.93 784.86 350.93 C 795.03 350.93 803.28 359.18 803.28 369.35 Z" fill="#ffffff" fill-rule="nonzero" node-id="197" stroke="none" target-height="36.839996" target-width="36.840027" target-x="766.44" target-y="350.93"></path><path d="M 784.86 388.33 C 774.37 388.33 765.86 379.82 765.86 369.33 C 765.86 358.84 774.37 350.33 784.86 350.33 C 795.35 350.33 803.86 358.84 803.86 369.33 C 803.86 379.82 795.35 388.33 784.86 388.33 Z M 784.86 351.48 C 774.99 351.48 766.99 359.48 766.99 369.35 C 766.99 379.22 774.99 387.22 784.86 387.22 C 794.73 387.22 802.73 379.22 802.73 369.35 C 802.72 359.49 794.72 351.49 784.86 351.48 Z" fill="#231f20" fill-rule="nonzero" node-id="199" stroke="none" target-height="38" target-width="38" target-x="765.86" target-y="350.33"></path><path d="M 912.89 474.04 L 1054.00 474.04 L 1054.00 585.88 L 912.89 585.88 Z" fill="#ffffff" fill-rule="nonzero" node-id="201" stroke="none" target-height="111.84" target-width="141.10999" target-x="912.89" target-y="474.04"></path><path d="M 1054.55 586.43 L 912.34 586.43 L 912.34 473.48 L 1054.55 473.48 Z M 913.44 585.33 L 1053.44 585.33 L 1053.44 474.59 L 913.44 474.59 Z" fill="#231f20" fill-rule="nonzero" node-id="203" stroke="none" target-height="112.94998" target-width="142.21002" target-x="912.34" target-y="473.48"></path><path d="M 1054.55 586.43 L 941.20 586.43 L 941.20 585.86 C 942.29 558.43 955.57 532.92 977.41 516.30 C 999.25 499.68 1027.37 493.67 1054.10 499.93 L 1054.53 500.03 Z M 942.35 585.33 L 1053.44 585.33 L 1053.44 500.91 C 1027.18 494.86 999.58 500.79 978.12 517.10 C 956.66 533.41 943.56 558.40 942.35 585.33 Z" fill="#231f20" fill-rule="nonzero" node-id="205" stroke="none" target-height="92.75998" target-width="113.35004" target-x="941.2" target-y="493.67"></path><path d="M 1060.44 923.71 C 1034.63 888.44 996.78 913.39 957.21 923.96 C 917.64 934.53 914.21 917.33 914.21 917.33 L 999.62 831.83 Z" fill="#231f20" fill-rule="nonzero" node-id="207" stroke="none" target-height="102.70001" target-width="146.22992" target-x="914.21" target-y="831.83"></path><path d="M 934.90 927.92 C 927.19 927.92 922.33 926.24 919.31 924.36 C 914.48 921.36 913.68 917.59 913.65 917.43 C 913.61 917.25 913.67 917.07 913.80 916.94 L 999.21 831.44 C 999.33 831.32 999.49 831.27 999.65 831.28 C 999.82 831.30 999.97 831.39 1000.06 831.53 L 1060.90 923.41 C 1061.07 923.66 1061.01 924.00 1060.76 924.17 C 1060.51 924.34 1060.18 924.28 1060.00 924.04 C 1039.87 896.54 1011.81 906.27 982.10 916.57 C 974.05 919.37 965.72 922.26 957.35 924.49 C 948.00 927.00 940.66 927.92 934.90 927.92 Z M 914.81 917.49 C 915.76 920.03 917.57 922.16 919.94 923.49 C 925.04 926.64 935.62 929.19 957.06 923.49 C 965.39 921.27 973.70 918.39 981.74 915.60 C 1009.11 906.11 1035.11 897.09 1055.09 916.70 L 999.51 832.70 Z" fill="#231f20" fill-rule="nonzero" node-id="209" stroke="none" target-height="97.91998" target-width="147.45996" target-x="913.61" target-y="831.27"></path><path d="M 989.10 697.79 L 1017.25 971.66 L 984.90 971.66 L 1011.64 964.81 L 970.39 697.79 L 989.10 697.79 Z" fill="#ffffff" fill-rule="nonzero" node-id="211" stroke="none" target-height="273.87" target-width="46.859985" target-x="970.39" target-y="697.79"></path><path d="M 1017.25 972.21 L 984.90 972.21 C 984.63 972.20 984.40 972.00 984.37 971.73 C 984.34 971.46 984.51 971.20 984.77 971.13 L 1011.02 964.39 L 969.85 697.87 C 969.82 697.71 969.87 697.55 969.97 697.43 C 970.08 697.31 970.23 697.24 970.39 697.24 L 989.10 697.24 C 989.38 697.24 989.62 697.45 989.65 697.73 L 1017.80 971.61 C 1017.82 971.76 1017.77 971.92 1017.66 972.03 C 1017.56 972.15 1017.41 972.21 1017.25 972.21 Z M 989.25 971.11 L 1016.60 971.11 L 988.60 698.34 L 971.00 698.34 L 1012.15 964.72 C 1012.19 965.00 1012.02 965.27 1011.74 965.34 Z" fill="#231f20" fill-rule="nonzero" node-id="213" stroke="none" target-height="274.97003" target-width="48" target-x="969.82" target-y="697.24"></path><path d="M 979.37 697.79 L 976.09 971.66 L 943.74 971.66 L 970.48 964.81 L 960.67 697.79 L 979.37 697.79 Z" fill="#ffffff" fill-rule="nonzero" node-id="215" stroke="none" target-height="273.87" target-width="35.630005" target-x="943.74" target-y="697.79"></path><path d="M 976.09 972.21 L 943.74 972.21 C 943.47 972.21 943.24 972.00 943.20 971.73 C 943.17 971.46 943.34 971.20 943.60 971.13 L 969.91 964.38 L 960.11 697.81 C 960.11 697.66 960.17 697.52 960.27 697.41 C 960.37 697.30 960.52 697.24 960.67 697.24 L 979.37 697.24 C 979.52 697.24 979.66 697.30 979.77 697.40 C 979.87 697.51 979.93 697.65 979.93 697.80 L 976.64 971.67 C 976.63 971.97 976.39 972.21 976.09 972.21 Z M 948.09 971.11 L 975.51 971.11 L 978.78 698.34 L 961.24 698.34 L 971.00 964.78 C 971.02 965.04 970.84 965.28 970.59 965.34 Z" fill="#231f20" fill-rule="nonzero" node-id="217" stroke="none" target-height="274.97003" target-width="36.76001" target-x="943.17" target-y="697.24"></path><path d="M 969.00 574.54 C 969.00 574.54 992.50 572.54 993.22 599.54 C 993.94 626.54 1018.42 614.41 1018.22 648.91 C 1017.97 699.14 939.62 682.38 939.48 643.63 C 939.36 614.41 958.07 629.45 953.88 603.83 C 949.69 578.21 969.00 574.54 969.00 574.54 Z" fill="#231f20" fill-rule="nonzero" node-id="219" stroke="none" target-height="126.60004" target-width="79.06" target-x="939.36" target-y="572.54"></path><path d="M 985.90 680.66 L 985.90 680.66 C 963.77 680.66 939.07 665.43 938.98 643.60 C 938.93 628.60 943.74 625.04 947.98 621.86 C 951.98 618.86 955.41 616.31 953.38 603.86 C 949.14 578.00 968.70 574.00 968.90 574.00 L 969.00 574.00 C 969.40 574.00 978.82 573.23 986.00 579.66 C 990.94 584.07 993.56 590.75 993.80 599.50 C 994.12 611.83 999.49 615.81 1005.17 620.02 C 1011.93 625.02 1018.91 630.20 1018.82 648.90 C 1018.70 672.32 1001.74 680.66 985.90 680.66 Z M 969.08 575.09 C 967.98 575.31 950.45 579.19 954.46 603.71 C 956.60 616.79 952.73 619.71 948.64 622.71 C 944.55 625.71 940.01 629.15 940.07 643.55 C 940.15 664.73 964.28 679.55 985.88 679.55 L 985.88 679.55 C 1005.71 679.55 1017.59 668.08 1017.69 648.87 C 1017.77 630.74 1011.02 625.73 1004.49 620.87 C 998.58 616.49 993.00 612.36 992.66 599.49 C 992.44 591.06 989.94 584.65 985.24 580.49 C 978.60 574.53 969.64 575.05 969.08 575.09 Z" fill="#231f20" fill-rule="nonzero" node-id="221" stroke="none" target-height="107.42999" target-width="79.97998" target-x="938.93" target-y="573.23"></path><path d="M 956.00 631.38 L 926.69 688.64 L 886.76 675.00 L 882.44 662.13 L 879.55 672.13 L 858.41 675.50 C 858.41 675.50 865.61 691.83 885.32 684.39 L 917.32 707.70 C 925.83 713.87 937.52 713.16 945.22 706.00 L 966.28 686.43 Z" fill="#ffffff" fill-rule="nonzero" node-id="223" stroke="none" target-height="82.48999" target-width="107.870056" target-x="858.41" target-y="631.38"></path><path d="M 930.24 712.44 C 925.48 712.44 920.84 710.93 917.00 708.12 L 885.23 685.00 C 865.48 692.28 857.97 675.88 857.90 675.71 C 857.83 675.55 857.84 675.37 857.92 675.22 C 858.00 675.07 858.15 674.97 858.32 674.94 L 879.12 671.63 L 881.90 662.00 C 881.97 661.77 882.18 661.61 882.42 661.60 C 882.66 661.61 882.87 661.76 882.96 661.98 L 887.20 674.58 L 926.42 688.00 L 955.51 631.17 C 955.62 630.96 955.85 630.84 956.08 630.88 C 956.32 630.91 956.50 631.09 956.55 631.32 L 966.82 686.38 C 966.85 686.56 966.79 686.75 966.65 686.88 L 945.65 706.46 C 941.46 710.33 935.95 712.47 930.24 712.44 Z M 885.32 683.80 C 885.44 683.80 885.55 683.84 885.65 683.91 L 917.65 707.23 C 925.95 713.26 937.36 712.59 944.89 705.61 L 965.72 686.24 L 955.80 633.08 L 927.22 688.89 C 927.10 689.13 926.81 689.25 926.55 689.16 L 886.62 675.51 C 886.46 675.46 886.33 675.33 886.28 675.16 L 882.48 664.00 L 880.08 672.28 C 880.02 672.48 879.85 672.64 879.64 672.67 L 859.23 675.92 C 860.81 678.92 868.17 690.26 885.12 683.86 C 885.18 683.83 885.25 683.81 885.32 683.80 Z" fill="#231f20" fill-rule="nonzero" node-id="225" stroke="none" target-height="82.41998" target-width="109.01996" target-x="857.83" target-y="630.84"></path><path d="M 948.09 703.18 L 948.09 657.92 C 948.09 656.43 948.15 654.92 948.28 653.51 C 949.98 633.70 962.98 618.32 978.77 618.32 C 987.24 618.32 994.92 622.75 1000.47 629.91 C 1002.26 632.23 1003.78 634.73 1005.02 637.38 C 1009.04 646.17 1009.99 656.06 1007.72 665.46 L 999.00 703.18 L 1060.46 923.71 C 1060.46 923.71 1030.35 928.02 994.22 900.35 C 958.09 872.68 914.22 917.35 914.22 917.35 Z" fill="#fbb040" fill-rule="nonzero" node-id="227" stroke="none" target-height="309.7" target-width="146.23999" target-x="914.22" target-y="618.32"></path><path d="M 1055.93 924.48 C 1046.08 924.48 1021.60 922.03 993.86 900.79 C 975.43 886.67 954.86 892.00 940.86 898.96 C 931.22 903.89 922.36 910.20 914.56 917.71 C 914.39 917.88 914.13 917.93 913.92 917.82 C 913.70 917.71 913.58 917.48 913.62 917.24 L 947.51 703.13 L 947.51 657.92 C 947.51 656.41 947.57 654.92 947.70 653.46 C 949.45 633.11 962.79 617.76 978.70 617.76 C 987.07 617.76 994.93 621.96 1000.84 629.58 C 1002.65 631.93 1004.20 634.46 1005.45 637.15 C 1009.51 646.05 1010.48 656.06 1008.18 665.58 L 999.48 703.16 L 1061.00 923.57 C 1061.04 923.72 1061.01 923.89 1060.93 924.02 C 1060.84 924.15 1060.70 924.24 1060.54 924.26 C 1059.01 924.43 1057.47 924.50 1055.93 924.48 Z M 967.88 890.80 C 977.54 890.76 986.93 893.97 994.54 899.91 C 1027.23 924.91 1055.23 923.63 1059.73 923.23 L 998.45 703.32 C 998.43 703.23 998.43 703.14 998.45 703.05 L 1007.19 665.33 C 1009.42 656.06 1008.49 646.30 1004.53 637.62 C 1003.31 635.01 1001.81 632.54 1000.05 630.25 C 994.35 622.91 986.80 618.87 978.78 618.87 C 963.41 618.87 950.54 633.78 948.84 653.55 C 948.72 654.98 948.65 656.45 948.65 657.92 L 948.65 703.26 L 915.00 915.78 C 922.60 908.70 931.15 902.72 940.40 898.00 C 950.00 893.19 959.24 890.80 967.88 890.80 Z M 948.09 703.18 L 948.09 703.18 Z" fill="#231f20" fill-rule="nonzero" node-id="229" stroke="none" target-height="307.14996" target-width="147.46002" target-x="913.58" target-y="617.76"></path><path d="M 977.25 629.80 L 982.46 623.69 L 976.93 600.07 L 965.00 597.37 L 970.45 620.66 L 969.45 626.11 C 969.06 628.11 970.07 630.12 971.91 630.99 C 973.76 631.86 975.95 631.37 977.25 629.80 Z" fill="#ffffff" fill-rule="nonzero" node-id="231" stroke="none" target-height="34.48999" target-width="17.460022" target-x="965" target-y="597.37"></path><path d="M 973.91 631.94 C 973.15 631.94 972.39 631.77 971.71 631.43 C 969.63 630.49 968.48 628.24 968.93 626.01 L 969.93 620.67 L 964.51 597.50 C 964.47 597.31 964.52 597.12 964.66 596.98 C 964.79 596.84 964.99 596.79 965.17 596.83 L 977.08 599.53 C 977.29 599.58 977.45 599.74 977.50 599.95 L 983.00 623.57 C 983.04 623.74 982.99 623.92 982.88 624.05 L 977.68 630.16 C 976.75 631.28 975.37 631.93 973.91 631.94 Z M 965.76 598.10 L 971.00 620.53 C 971.02 620.61 971.02 620.68 971.00 620.76 L 970.00 626.21 C 969.68 627.95 970.57 629.68 972.16 630.44 C 973.76 631.20 975.67 630.79 976.81 629.44 L 976.81 629.44 L 981.81 623.55 L 976.42 600.55 Z" fill="#231f20" fill-rule="nonzero" node-id="233" stroke="none" target-height="35.150024" target-width="18.570007" target-x="964.47" target-y="596.79"></path><path d="M 988.84 595.81 C 988.84 605.45 981.02 613.27 971.38 613.27 C 961.74 613.27 953.92 605.45 953.92 595.81 C 953.92 586.17 961.74 578.35 971.38 578.35 C 981.02 578.35 988.84 586.17 988.84 595.81 Z" fill="#ffffff" fill-rule="nonzero" node-id="235" stroke="none" target-height="34.920044" target-width="34.920044" target-x="953.92" target-y="578.35"></path><path d="M 971.38 613.83 C 961.44 613.83 953.38 605.77 953.38 595.83 C 953.38 585.89 961.44 577.83 971.38 577.83 C 981.32 577.83 989.38 585.89 989.38 595.83 C 989.38 605.77 981.32 613.83 971.38 613.83 Z M 971.38 578.90 C 962.04 578.90 954.47 586.47 954.47 595.81 C 954.47 605.15 962.04 612.72 971.38 612.72 C 980.72 612.72 988.29 605.15 988.29 595.81 C 988.28 586.48 980.71 578.91 971.38 578.90 Z" fill="#231f20" fill-rule="nonzero" node-id="237" stroke="none" target-height="36" target-width="36" target-x="953.38" target-y="577.83"></path><path d="M 971.38 591.78 L 967.82 591.78 L 966.36 584.56 L 965.20 591.78 L 960.46 591.78 L 958.00 584.56 L 957.69 591.78 L 951.52 591.78 C 951.52 591.78 952.74 576.43 971.36 578.34 C 989.98 580.25 988.83 595.81 988.83 595.81 C 988.83 595.81 990.32 599.87 982.21 609.49 C 983.62 606.58 984.77 603.54 985.62 600.41 C 985.91 599.24 985.26 598.03 984.12 597.63 C 982.98 597.23 981.72 597.75 981.21 598.85 L 978.00 605.60 C 978.00 605.60 978.63 591.78 971.38 591.78 Z" fill="#231f20" fill-rule="nonzero" node-id="239" stroke="none" target-height="33.059998" target-width="38.799988" target-x="951.52" target-y="576.43"></path><path d="M 982.23 610.05 C 982.12 610.05 982.01 610.02 981.92 609.96 C 981.69 609.80 981.61 609.50 981.73 609.25 C 983.13 606.36 984.25 603.35 985.10 600.25 C 985.31 599.36 984.81 598.45 983.95 598.14 C 983.09 597.84 982.13 598.23 981.73 599.05 L 978.52 605.81 C 978.39 606.00 978.15 606.09 977.93 606.03 C 977.71 605.97 977.54 605.78 977.52 605.55 C 977.52 605.46 977.85 597.06 974.60 593.67 C 973.79 592.78 972.63 592.28 971.43 592.30 L 967.87 592.30 C 967.61 592.30 967.38 592.12 967.33 591.86 L 966.47 587.63 L 965.80 591.84 C 965.75 592.11 965.52 592.30 965.25 592.30 L 960.51 592.30 C 960.27 592.30 960.06 592.15 959.99 591.93 L 958.50 587.52 L 958.32 591.77 C 958.30 592.07 958.06 592.30 957.76 592.30 L 951.59 592.30 C 951.44 592.30 951.29 592.24 951.19 592.13 C 951.08 592.01 951.03 591.86 951.04 591.71 C 951.52 587.70 953.48 584.01 956.54 581.36 C 960.18 578.36 965.22 577.12 971.54 577.76 C 989.67 579.63 989.54 594.32 989.54 595.76 C 989.74 596.54 990.34 600.90 982.79 609.86 C 982.65 610.02 982.44 610.10 982.23 610.05 Z M 983.31 596.94 C 983.65 596.95 983.99 597.01 984.31 597.12 C 985.74 597.59 986.55 599.09 986.16 600.54 C 985.72 602.28 985.16 603.98 984.49 605.64 C 989.19 598.97 988.32 596.02 988.30 595.99 C 988.29 595.92 988.29 595.84 988.30 595.77 C 988.35 595.16 989.19 580.77 971.30 578.89 C 965.30 578.28 960.58 579.41 957.18 582.24 C 954.53 584.57 952.76 587.75 952.18 591.24 L 957.18 591.24 L 957.47 584.55 C 957.47 584.26 957.71 584.02 958.00 584.00 C 958.26 583.97 958.51 584.12 958.60 584.37 L 960.91 591.22 L 964.78 591.22 L 965.86 584.46 C 965.90 584.20 966.13 584.00 966.40 584.00 C 966.66 584.01 966.89 584.19 966.95 584.44 L 968.32 591.22 L 971.43 591.22 C 972.95 591.19 974.40 591.81 975.43 592.93 C 977.87 595.47 978.49 600.28 978.63 603.19 L 980.81 598.60 C 981.25 597.61 982.22 596.96 983.31 596.94 Z" fill="#231f20" fill-rule="nonzero" node-id="241" stroke="none" target-height="32.97998" target-width="39.309998" target-x="951.03" target-y="577.12"></path><path d="M 975.69 704.79 C 972.66 704.78 969.64 704.41 966.69 703.71 C 958.56 701.83 951.95 695.21 947.59 684.57 C 947.47 684.39 947.48 684.15 947.60 683.97 C 947.72 683.79 947.94 683.70 948.15 683.73 C 948.37 683.77 948.54 683.94 948.59 684.15 C 952.82 694.44 959.15 700.84 966.91 702.63 C 982.36 706.21 992.38 700.05 1000.91 692.86 C 1001.15 692.67 1001.49 692.70 1001.69 692.93 C 1001.79 693.04 1001.83 693.19 1001.82 693.33 C 1001.80 693.48 1001.73 693.62 1001.62 693.71 C 994.66 699.59 986.70 704.79 975.69 704.79 Z" fill="#231f20" fill-rule="nonzero" node-id="243" stroke="none" target-height="22.51001" target-width="54.360046" target-x="947.47" target-y="683.7"></path><path d="M 976.57 693.42 C 972.26 693.42 968.64 691.17 965.81 686.74 C 956.34 671.90 958.97 661.06 961.28 651.50 C 963.28 643.19 965.03 636.02 958.80 627.71 C 958.62 627.47 958.67 627.12 958.91 626.94 C 959.16 626.76 959.50 626.81 959.69 627.05 C 966.22 635.78 964.34 643.54 962.36 651.76 C 960.09 661.10 957.53 671.70 966.74 686.14 C 969.45 690.38 972.87 692.44 976.98 692.31 C 987.49 691.93 999.98 677.51 1007.60 663.39 C 1007.67 663.26 1007.79 663.16 1007.93 663.12 C 1008.07 663.08 1008.22 663.10 1008.35 663.17 C 1008.62 663.32 1008.72 663.65 1008.58 663.92 C 1000.76 678.32 988.00 693.00 977.00 693.41 Z" fill="#231f20" fill-rule="nonzero" node-id="245" stroke="none" target-height="66.65997" target-width="52.379944" target-x="956.34" target-y="626.76"></path><path d="M 978.51 778.93 C 962.18 778.93 947.66 774.05 937.63 767.86 C 937.37 767.70 937.29 767.36 937.45 767.10 C 937.61 766.84 937.95 766.76 938.21 766.92 C 955.57 777.64 986.60 784.37 1016.93 768.05 C 1017.20 767.91 1017.53 768.01 1017.68 768.28 C 1017.75 768.41 1017.77 768.56 1017.73 768.70 C 1017.69 768.84 1017.59 768.96 1017.46 769.03 C 1005.50 775.52 992.12 778.93 978.51 778.93 Z" fill="#231f20" fill-rule="nonzero" node-id="247" stroke="none" target-height="17.609985" target-width="80.48004" target-x="937.29" target-y="766.76"></path><path d="M 981.42 758.28 C 975.90 758.28 968.18 754.87 960.13 751.28 C 953.89 748.52 947.43 745.67 941.55 744.15 C 941.25 744.08 941.08 743.78 941.15 743.48 C 941.22 743.18 941.52 743.01 941.82 743.08 C 947.82 744.62 954.29 747.49 960.57 750.27 C 970.92 754.84 980.69 759.16 985.36 756.18 C 987.36 754.91 988.36 752.37 988.36 748.42 C 988.59 734.10 969.25 730.84 952.18 727.96 C 949.43 727.50 946.83 727.06 944.31 726.58 C 944.09 726.57 943.90 726.43 943.82 726.23 C 943.74 726.02 943.79 725.79 943.94 725.64 C 944.09 725.48 944.31 725.42 944.52 725.49 C 947.03 725.97 949.62 726.41 952.37 726.87 C 969.87 729.87 989.71 733.16 989.46 748.43 C 989.39 752.79 988.22 755.63 985.90 757.11 C 984.55 757.92 982.99 758.33 981.42 758.28 Z" fill="#231f20" fill-rule="nonzero" node-id="249" stroke="none" target-height="33.73999" target-width="48.630005" target-x="941.08" target-y="725.42"></path><path d="M 1006.51 731.92 C 1000.51 731.92 993.92 729.92 987.04 726.01 C 971.26 717.01 957.39 709.30 947.56 705.88 C 947.36 705.74 947.27 705.48 947.36 705.24 C 947.44 705.01 947.67 704.86 947.92 704.88 C 957.84 708.32 971.76 716.07 987.59 725.09 C 994.42 728.99 1000.86 730.92 1006.84 730.85 L 1006.84 730.85 C 1007.15 730.85 1007.39 731.09 1007.40 731.40 C 1007.40 731.71 1007.16 731.95 1006.85 731.96 Z" fill="#231f20" fill-rule="nonzero" node-id="251" stroke="none" target-height="27.100037" target-width="60.130005" target-x="947.27" target-y="704.86"></path><path d="M 973.76 877.82 C 955.98 877.82 937.95 869.26 923.90 853.74 C 923.80 853.64 923.74 853.50 923.74 853.35 C 923.74 853.20 923.80 853.06 923.90 852.96 C 924.00 852.85 924.14 852.79 924.29 852.79 C 924.44 852.79 924.58 852.85 924.68 852.96 C 941.33 871.35 963.63 879.82 984.33 875.61 C 996.61 873.10 1003.33 870.17 1005.33 866.37 C 1006.87 863.50 1005.58 860.37 1004.21 856.97 C 1002.66 853.14 1001.05 849.19 1003.10 845.04 C 1005.73 839.71 1013.90 835.34 1028.80 831.26 C 1030.59 830.77 1032.41 830.36 1034.36 830.00 C 1034.66 829.95 1034.94 830.14 1035.00 830.44 C 1035.03 830.58 1035.00 830.73 1034.92 830.85 C 1034.83 830.97 1034.70 831.06 1034.56 831.08 C 1032.64 831.44 1030.86 831.84 1029.10 832.33 C 1014.72 836.26 1006.54 840.58 1004.10 845.53 C 1002.27 849.23 1003.78 852.95 1005.24 856.53 C 1006.65 859.98 1008.09 863.53 1006.31 866.87 C 1004.11 870.98 997.20 874.09 984.57 876.67 C 981.01 877.42 977.39 877.80 973.76 877.82 Z" fill="#231f20" fill-rule="nonzero" node-id="253" stroke="none" target-height="49.869995" target-width="111.29004" target-x="923.74" target-y="829.95"></path><path d="M 967.62 846.06 C 967.41 846.06 967.20 846.04 967.00 846.00 C 963.00 845.16 959.71 836.29 955.57 825.07 C 950.44 811.18 944.06 793.89 934.40 788.53 C 934.12 788.38 934.02 788.04 934.17 787.76 C 934.32 787.48 934.66 787.38 934.94 787.53 C 944.94 793.09 951.41 810.60 956.60 824.66 C 960.31 834.66 963.80 844.17 967.23 844.89 C 968.25 844.99 969.26 844.55 969.87 843.72 C 974.53 838.86 971.77 828.72 969.33 819.82 C 967.15 811.82 965.27 804.97 968.63 802.39 C 971.99 799.81 980.70 802.51 996.38 811.58 C 1007.70 818.12 1019.11 818.51 1029.38 812.73 C 1029.65 812.59 1029.98 812.68 1030.14 812.94 C 1030.21 813.07 1030.23 813.22 1030.19 813.36 C 1030.15 813.50 1030.05 813.62 1029.92 813.69 C 1019.28 819.69 1007.48 819.28 995.81 812.54 C 981.00 804.00 972.30 801.00 969.28 803.29 C 966.52 805.42 968.39 812.29 970.38 819.56 C 972.89 828.77 975.74 839.21 970.65 844.56 C 969.89 845.46 968.79 846.00 967.62 846.06 Z" fill="#231f20" fill-rule="nonzero" node-id="255" stroke="none" target-height="58.679993" target-width="96.20996" target-x="934.02" target-y="787.38"></path><path d="M 987.86 896.82 C 987.62 896.81 987.42 896.66 987.34 896.44 C 987.27 896.21 987.34 895.97 987.53 895.82 C 1000.22 886.35 1016.20 884.11 1035.02 889.14 C 1040.22 890.65 1045.70 890.92 1051.02 889.92 C 1051.31 889.89 1051.57 890.08 1051.63 890.36 C 1051.69 890.64 1051.52 890.92 1051.25 891.01 C 1045.75 892.04 1040.08 891.77 1034.70 890.21 C 1016.22 885.21 1000.56 887.45 988.15 896.71 C 988.07 896.77 987.97 896.81 987.86 896.82 Z" fill="#231f20" fill-rule="nonzero" node-id="257" stroke="none" target-height="12.710022" target-width="64.41992" target-x="987.27" target-y="884.11"></path><path d="M 931.50 904.22 C 931.39 904.22 931.28 904.19 931.19 904.13 C 926.25 900.92 921.73 897.11 917.73 892.79 C 917.53 892.56 917.54 892.21 917.77 892.01 C 918.00 891.81 918.35 891.82 918.55 892.05 C 922.49 896.30 926.94 900.05 931.80 903.21 C 931.92 903.29 932.01 903.41 932.04 903.56 C 932.07 903.70 932.04 903.85 931.96 903.97 C 931.86 904.12 931.69 904.22 931.50 904.22 Z" fill="#231f20" fill-rule="nonzero" node-id="259" stroke="none" target-height="12.409973" target-width="14.539978" target-x="917.53" target-y="891.81"></path><path d="M 982.53 666.00 L 982.53 666.00 C 980.94 666.00 979.58 664.47 978.27 661.21 C 973.13 648.45 983.61 633.34 993.27 622.91 C 993.49 622.70 993.84 622.70 994.06 622.91 C 994.16 623.01 994.22 623.15 994.22 623.30 C 994.22 623.45 994.16 623.59 994.06 623.69 C 984.59 633.89 974.32 648.61 979.24 660.83 C 980.32 663.50 981.44 664.92 982.48 664.92 L 982.48 664.92 C 985.05 664.92 988.24 657.21 991.33 649.75 C 994.10 643.07 997.23 635.51 1000.83 630.75 C 1001.01 630.50 1001.36 630.45 1001.61 630.63 C 1001.85 630.82 1001.90 631.16 1001.72 631.41 C 998.20 636.08 995.10 643.58 992.36 650.19 C 988.74 659.00 985.84 666.00 982.53 666.00 Z" fill="#231f20" fill-rule="nonzero" node-id="261" stroke="none" target-height="43.299988" target-width="28.77002" target-x="973.13" target-y="622.7"></path><path d="M 970.48 964.81 L 976.09 971.66 L 943.74 971.66 L 970.48 964.81 Z" fill="#231f20" fill-rule="nonzero" node-id="263" stroke="none" target-height="6.8499756" target-width="32.350037" target-x="943.74" target-y="964.81"></path><path d="M 976.09 972.21 L 943.74 972.21 C 943.47 972.21 943.24 972.00 943.20 971.73 C 943.17 971.46 943.34 971.20 943.60 971.13 L 970.34 964.27 C 970.55 964.21 970.77 964.29 970.91 964.46 L 976.52 971.31 C 976.65 971.48 976.68 971.71 976.59 971.90 C 976.50 972.09 976.30 972.21 976.09 972.21 Z M 948.09 971.11 L 974.89 971.11 L 970.25 965.43 Z" fill="#231f20" fill-rule="nonzero" node-id="265" stroke="none" target-height="8" target-width="33.51001" target-x="943.17" target-y="964.21"></path><path d="M 1011.64 964.81 L 1017.25 971.66 L 984.90 971.66 L 1011.64 964.81 Z" fill="#231f20" fill-rule="nonzero" node-id="267" stroke="none" target-height="6.8499756" target-width="32.349976" target-x="984.9" target-y="964.81"></path><path d="M 1017.25 972.21 L 984.90 972.21 C 984.63 972.20 984.40 972.00 984.37 971.73 C 984.34 971.46 984.51 971.20 984.77 971.13 L 1011.51 964.27 C 1011.72 964.21 1011.94 964.29 1012.07 964.46 L 1017.68 971.31 C 1017.82 971.48 1017.84 971.71 1017.75 971.90 C 1017.66 972.09 1017.46 972.21 1017.25 972.21 Z M 989.25 971.11 L 1016.05 971.11 L 1011.40 965.43 Z" fill="#231f20" fill-rule="nonzero" node-id="269" stroke="none" target-height="8" target-width="33.5" target-x="984.34" target-y="964.21"></path><path d="M 998.24 627.31 C 998.24 627.31 978.89 640.67 996.06 665.48 L 1004.32 680.11 L 953.92 667.79 L 952.41 655.79 L 949.41 667.79 L 926.21 674.20 C 926.21 674.20 938.21 686.41 951.59 682.13 L 1017.51 704.13 C 1029.98 708.30 1040.78 694.52 1033.76 683.41 Z" fill="#ffffff" fill-rule="nonzero" node-id="271" stroke="none" target-height="80.98999" target-width="114.57001" target-x="926.21" target-y="627.31"></path><path d="M 1022.00 705.48 C 1020.41 705.48 1018.82 705.22 1017.31 704.71 L 951.56 682.71 C 938.08 686.89 925.91 674.71 925.79 674.59 C 925.65 674.45 925.60 674.24 925.65 674.05 C 925.71 673.86 925.85 673.72 926.04 673.66 L 948.92 667.34 L 951.92 655.70 C 951.97 655.43 952.22 655.25 952.49 655.28 C 952.75 655.30 952.97 655.50 953.00 655.76 L 954.46 667.34 L 1003.25 679.27 L 995.62 665.75 C 989.75 657.27 987.45 649.15 988.82 641.65 C 989.94 635.76 993.20 630.49 997.97 626.85 C 998.10 626.77 998.25 626.74 998.40 626.77 C 998.54 626.80 998.67 626.89 998.75 627.01 L 1034.22 683.16 C 1037.03 687.63 1037.21 693.27 1034.68 697.90 C 1032.14 702.54 1027.30 705.44 1022.02 705.48 Z M 951.56 681.58 L 951.74 681.58 L 1017.66 703.58 C 1023.05 705.38 1028.98 703.60 1032.48 699.13 C 1035.99 694.66 1036.30 688.47 1033.27 683.67 L 998.10 628.11 C 995.22 630.35 981.16 642.98 996.51 665.11 L 1004.80 679.79 C 1004.92 679.97 1004.92 680.21 1004.80 680.39 C 1004.67 680.57 1004.45 680.65 1004.23 680.60 L 953.82 668.28 C 953.60 668.22 953.44 668.04 953.41 667.81 L 952.27 658.74 L 949.94 667.88 C 949.89 668.07 949.74 668.22 949.55 668.27 L 927.30 674.42 C 930.03 676.86 940.30 685.10 951.41 681.56 C 951.45 681.56 951.50 681.57 951.54 681.58 Z" fill="#231f20" fill-rule="nonzero" node-id="273" stroke="none" target-height="78.73999" target-width="111.609985" target-x="925.6" target-y="626.74"></path><path d="M 1013.47 681.92 L 1004.32 680.11" fill="#ffffff" fill-rule="nonzero" node-id="275" stroke="none" target-height="1.8099976" target-width="9.149963" target-x="1004.32" target-y="680.11"></path><path d="M 1013.47 682.47 L 1013.36 682.47 L 1004.22 680.66 C 1003.92 680.60 1003.72 680.31 1003.78 680.01 C 1003.81 679.87 1003.89 679.74 1004.02 679.66 C 1004.14 679.58 1004.29 679.55 1004.43 679.58 L 1013.58 681.39 C 1013.86 681.44 1014.05 681.70 1014.02 681.99 C 1013.99 682.27 1013.75 682.48 1013.47 682.48 Z" fill="#231f20" fill-rule="nonzero" node-id="277" stroke="none" target-height="2.9299927" target-width="10.330017" target-x="1003.72" target-y="679.55"></path><path d="M 271.60 971.64 C 271.60 971.64 77.31 481.71 222.35 474.80 C 359.06 468.29 326.77 971.64 326.77 971.64 Z" fill="#ffffff" fill-rule="nonzero" node-id="279" stroke="none" target-height="503.35" target-width="281.75" target-x="77.31" target-y="468.29"></path><path d="M 326.77 972.20 L 271.60 972.20 C 271.37 972.20 271.17 972.06 271.08 971.85 C 270.71 970.85 233.21 875.98 203.79 770.51 C 186.50 708.51 175.34 655.13 170.62 611.72 C 164.71 557.36 168.93 518.61 183.18 496.53 C 192.18 482.53 205.36 475.06 222.32 474.25 C 238.08 473.50 252.40 479.53 264.84 492.18 C 284.84 512.52 300.57 550.40 311.58 604.78 C 320.38 648.23 326.21 702.26 328.92 765.38 C 333.53 872.84 327.39 970.70 327.32 971.68 C 327.30 971.97 327.06 972.20 326.77 972.20 Z M 272.00 971.09 L 326.28 971.09 C 326.76 963.25 332.28 868.78 327.84 765.42 C 325.14 702.36 319.31 648.42 310.53 604.99 C 299.53 550.83 283.93 513.14 264.08 492.99 C 251.87 480.57 237.83 474.64 222.40 475.38 C 205.82 476.17 192.94 483.50 184.14 497.15 C 170.00 519.00 165.84 557.50 171.72 611.59 C 176.44 654.94 187.58 708.31 204.85 770.20 C 233.36 872.39 269.45 964.67 272.00 971.09 Z" fill="#231f20" fill-rule="nonzero" node-id="281" stroke="none" target-height="498.7" target-width="168.81999" target-x="164.71" target-y="473.5"></path><path d="M 271.60 971.64 L 240.22 546.58" fill="#ffffff" fill-rule="nonzero" node-id="283" stroke="none" target-height="425.06" target-width="31.380005" target-x="240.22" target-y="546.58"></path><path d="M 271.60 972.20 C 271.31 972.20 271.07 971.98 271.05 971.69 L 239.66 546.62 C 239.64 546.32 239.87 546.06 240.17 546.03 C 240.48 546.01 240.74 546.23 240.77 546.54 L 272.15 971.60 C 272.17 971.90 271.94 972.17 271.64 972.20 Z" fill="#231f20" fill-rule="nonzero" node-id="285" stroke="none" target-height="426.19" target-width="32.530014" target-x="239.64" target-y="546.01"></path><path d="M 286.22 971.64 C 286.22 971.64 249.75 697.13 393.74 704.00 C 529.52 710.49 341.40 971.64 341.40 971.64 Z" fill="#ffffff" fill-rule="nonzero" node-id="287" stroke="none" target-height="274.51" target-width="279.77002" target-x="249.75" target-y="697.13"></path><path d="M 341.40 972.20 L 286.22 972.20 C 285.94 972.19 285.71 971.99 285.67 971.72 C 282.04 940.19 280.81 908.43 281.99 876.72 C 283.88 829.45 292.93 765.72 325.30 730.49 C 343.00 711.23 366.04 702.14 393.76 703.49 C 416.17 704.56 431.20 712.70 438.43 727.69 C 451.66 755.11 439.43 804.58 402.04 874.69 C 383.91 908.28 363.81 940.77 341.84 971.99 C 341.73 972.12 341.57 972.20 341.40 972.20 Z M 286.71 971.09 L 341.11 971.09 C 363.00 939.96 383.03 907.57 401.11 874.09 C 426.68 826.09 453.75 761.82 437.47 728.09 C 430.47 713.49 415.73 705.56 393.75 704.52 C 366.34 703.21 343.62 712.18 326.16 731.18 C 294.01 766.18 285.02 829.62 283.16 876.70 C 281.97 908.21 283.15 939.76 286.71 971.09 Z" fill="#231f20" fill-rule="nonzero" node-id="289" stroke="none" target-height="270.06" target-width="172.94" target-x="280.81" target-y="702.14"></path><path d="M 233.16 971.64 C 233.16 971.64 -22.00 765.68 109.64 704.39 C 241.28 643.10 288.33 971.64 288.33 971.64 Z" fill="#ffffff" fill-rule="nonzero" node-id="291" stroke="none" target-height="328.54004" target-width="310.33" target-x="-22" target-y="643.1"></path><path d="M 288.33 972.20 L 233.16 972.20 C 233.03 972.20 232.91 972.15 232.81 972.07 C 203.03 947.40 174.87 920.83 148.52 892.53 C 110.59 851.40 66.52 793.27 71.81 749.82 C 74.26 729.82 86.91 714.36 109.41 703.89 C 131.68 693.51 153.02 693.69 172.82 704.42 C 216.43 728.03 245.66 799.42 262.51 855.19 C 273.88 893.35 282.69 932.23 288.88 971.57 C 288.90 971.73 288.86 971.89 288.75 972.01 C 288.64 972.13 288.49 972.20 288.33 972.20 Z M 233.33 971.09 L 287.66 971.09 C 281.48 932.02 272.72 893.41 261.45 855.50 C 244.66 800.00 215.57 728.83 172.30 705.39 C 152.82 694.84 131.81 694.67 109.87 704.89 C 87.74 715.19 75.31 730.36 72.87 749.96 C 69.97 773.70 80.87 817.58 149.28 891.77 C 175.58 919.99 203.66 946.48 233.36 971.09 Z" fill="#231f20" fill-rule="nonzero" node-id="293" stroke="none" target-height="278.69" target-width="222.38" target-x="66.52" target-y="693.51"></path><path d="M 257.85 972.15 L 137.50 752.67" fill="#ffffff" fill-rule="nonzero" node-id="295" stroke="none" target-height="219.48004" target-width="120.350006" target-x="137.5" target-y="752.67"></path><path d="M 257.85 972.71 C 257.65 972.71 257.47 972.60 257.37 972.42 L 137.00 752.94 C 136.85 752.66 136.96 752.32 137.24 752.17 C 137.51 752.03 137.85 752.13 138.00 752.41 L 258.34 971.89 C 258.43 972.06 258.42 972.27 258.32 972.44 C 258.22 972.60 258.04 972.71 257.85 972.71 Z" fill="#231f20" fill-rule="nonzero" node-id="297" stroke="none" target-height="220.68" target-width="121.57999" target-x="136.85" target-y="752.03"></path><path d="M 292.52 971.13 L 384.07 752.16" fill="#ffffff" fill-rule="nonzero" node-id="299" stroke="none" target-height="218.97003" target-width="91.55002" target-x="292.52" target-y="752.16"></path><path d="M 292.52 971.69 C 292.45 971.69 292.38 971.67 292.31 971.64 C 292.17 971.58 292.07 971.48 292.01 971.34 C 291.95 971.21 291.95 971.06 292.01 970.92 L 383.56 751.92 C 383.68 751.64 384.00 751.51 384.28 751.62 C 384.42 751.68 384.53 751.78 384.58 751.92 C 384.64 752.06 384.64 752.21 384.58 752.35 L 293.00 971.35 C 292.92 971.55 292.73 971.68 292.52 971.69 Z" fill="#231f20" fill-rule="nonzero" node-id="301" stroke="none" target-height="220.18" target-width="92.69" target-x="291.95" target-y="751.51"></path><path d="M 712.57 201.82 L 712.57 938.20 C 712.57 956.74 696.76 971.77 677.29 971.77 L 350.22 971.77 C 330.74 971.77 314.94 956.77 314.94 938.20 L 314.94 201.82 C 314.94 183.28 330.74 168.26 350.22 168.26 L 677.29 168.26 C 696.76 168.26 712.57 183.28 712.57 201.82 Z" fill="#231f20" fill-rule="nonzero" node-id="303" stroke="none" target-height="803.51" target-width="397.63" target-x="314.94" target-y="168.26"></path><path d="M 677.29 972.32 L 350.22 972.32 C 330.46 972.32 314.38 957.01 314.38 938.20 L 314.38 201.82 C 314.38 183.01 330.46 167.70 350.22 167.70 L 677.29 167.70 C 697.05 167.70 713.12 183.01 713.12 201.82 L 713.12 938.20 C 713.12 957.00 697.05 972.32 677.29 972.32 Z M 350.22 168.81 C 331.07 168.81 315.49 183.62 315.49 201.81 L 315.49 938.20 C 315.49 956.40 331.07 971.20 350.22 971.20 L 677.29 971.20 C 696.44 971.20 712.01 956.39 712.01 938.20 L 712.01 201.82 C 712.01 183.62 696.44 168.82 677.29 168.82 Z" fill="#231f20" fill-rule="nonzero" node-id="305" stroke="none" target-height="804.62" target-width="398.74" target-x="314.38" target-y="167.7"></path><path d="M 672.00 217.64 L 672.00 931.37 C 672.00 949.37 657.81 963.90 640.32 963.90 L 346.61 963.90 C 329.13 963.90 314.94 949.34 314.94 931.37 L 314.94 217.64 C 314.94 199.64 329.13 185.11 346.61 185.11 L 409.36 185.11 C 409.36 198.46 419.89 209.29 432.90 209.29 L 554.00 209.29 C 560.28 209.29 566.29 206.73 570.65 202.21 C 575.09 197.63 577.57 191.49 577.55 185.11 L 640.29 185.11 C 657.77 185.11 672.00 199.67 672.00 217.64 Z" fill="#ffffff" fill-rule="nonzero" node-id="307" stroke="none" target-height="778.79004" target-width="357.06" target-x="314.94" target-y="185.11"></path><path d="M 640.28 964.46 L 346.61 964.46 C 328.84 964.46 314.38 949.61 314.38 931.37 L 314.38 217.64 C 314.38 199.40 328.84 184.56 346.61 184.56 L 409.91 184.56 L 409.91 185.11 C 409.91 198.11 420.22 208.74 432.91 208.74 L 554.00 208.74 C 560.14 208.74 566.01 206.24 570.26 201.82 C 574.61 197.35 577.03 191.35 577.00 185.11 L 577.00 184.56 L 640.29 184.56 C 658.06 184.56 672.52 199.40 672.52 217.64 L 672.52 931.37 C 672.51 949.61 658.05 964.46 640.28 964.46 Z M 346.61 185.66 C 329.45 185.66 315.49 200.01 315.49 217.66 L 315.49 931.37 C 315.49 949.00 329.49 963.37 346.61 963.37 L 640.28 963.37 C 657.45 963.37 671.41 949.02 671.41 931.37 L 671.41 217.64 C 671.41 200.01 657.41 185.64 640.28 185.64 L 578.09 185.64 C 577.97 191.99 575.44 198.05 571.00 202.59 C 566.55 207.22 560.42 209.84 554.00 209.85 L 432.90 209.85 C 419.79 209.85 409.10 199.05 408.81 185.66 Z" fill="#231f20" fill-rule="nonzero" node-id="309" stroke="none" target-height="779.9" target-width="358.14" target-x="314.38" target-y="184.56"></path><path d="M 343.50 538.49 L 640.20 538.49 L 640.20 600.34 L 343.50 600.34 Z" fill="#231f20" fill-rule="nonzero" node-id="311" stroke="none" target-height="61.850037" target-width="296.7" target-x="343.5" target-y="538.49"></path><path d="M 640.21 600.90 L 343.50 600.90 C 343.19 600.89 342.95 600.65 342.95 600.34 L 342.95 538.49 C 342.95 538.19 343.20 537.94 343.50 537.94 L 640.21 537.94 C 640.51 537.94 640.76 538.19 640.76 538.49 L 640.76 600.34 C 640.76 600.65 640.52 600.89 640.21 600.90 Z M 344.06 599.79 L 639.66 599.79 L 639.66 539.00 L 344.06 539.00 Z" fill="#231f20" fill-rule="nonzero" node-id="313" stroke="none" target-height="62.960022" target-width="297.81" target-x="342.95" target-y="537.94"></path><path d="M 677.29 965.00 C 676.92 965.00 676.57 964.82 676.37 964.51 C 676.03 964.00 676.17 963.32 676.67 962.97 C 676.84 962.86 693.00 951.83 693.00 932.38 L 693.00 286.27 C 692.96 285.85 693.16 285.44 693.52 285.22 C 693.88 285.00 694.33 285.00 694.69 285.22 C 695.05 285.44 695.25 285.85 695.21 286.27 L 695.21 932.39 C 695.21 953.05 678.61 964.39 677.90 964.82 C 677.72 964.94 677.51 965.00 677.29 965.00 Z" fill="#ffffff" fill-rule="nonzero" node-id="315" stroke="none" target-height="680" target-width="19.21997" target-x="676.03" target-y="285"></path><path d="M 314.94 835.15 L 671.96 835.15 L 671.96 836.26 L 314.94 836.26 Z" fill="#231f20" fill-rule="nonzero" node-id="317" stroke="none" target-height="1.1099854" target-width="357.02002" target-x="314.94" target-y="835.15"></path><path d="M 579.00 931.95 L 632.07 931.95 C 636.57 931.95 640.21 935.59 640.21 940.09 L 640.21 943.85 C 640.21 948.35 636.57 951.99 632.07 951.99 L 579.00 951.99 C 574.50 951.99 570.86 948.35 570.86 943.85 L 570.86 940.09 C 570.86 935.59 574.50 931.95 579.00 931.95 Z" fill="#ffffff" fill-rule="nonzero" node-id="319" stroke="none" target-height="20.039978" target-width="69.35004" target-x="570.86" target-y="931.95"></path><path d="M 631.21 952.54 L 579.86 952.54 C 574.59 952.53 570.32 948.26 570.31 942.99 L 570.31 940.99 C 570.32 935.72 574.59 931.45 579.86 931.44 L 631.21 931.44 C 636.48 931.45 640.75 935.72 640.76 940.99 L 640.76 942.99 C 640.75 948.26 636.48 952.53 631.21 952.54 Z M 579.86 932.54 C 575.20 932.55 571.42 936.33 571.41 940.99 L 571.41 942.99 C 571.42 947.65 575.20 951.43 579.86 951.43 L 631.21 951.43 C 635.87 951.43 639.65 947.65 639.66 942.99 L 639.66 940.99 C 639.65 936.33 635.87 932.55 631.21 932.54 Z" fill="#231f20" fill-rule="nonzero" node-id="321" stroke="none" target-height="21.099976" target-width="70.45001" target-x="570.31" target-y="931.44"></path><path d="M 343.50 624.66 L 374.35 624.66 L 374.35 655.51 L 343.50 655.51 Z" fill="#ffffff" fill-rule="nonzero" node-id="323" stroke="none" target-height="30.850037" target-width="30.850006" target-x="343.5" target-y="624.66"></path><path d="M 374.35 656.06 L 343.50 656.06 C 343.20 656.06 342.95 655.81 342.95 655.51 L 342.95 624.66 C 342.95 624.36 343.20 624.11 343.50 624.11 L 374.35 624.11 C 374.66 624.11 374.90 624.35 374.91 624.66 L 374.91 655.51 C 374.91 655.66 374.85 655.80 374.75 655.90 C 374.64 656.01 374.50 656.06 374.35 656.06 Z M 344.06 655.00 L 373.80 655.00 L 373.80 625.21 L 344.06 625.21 Z" fill="#231f20" fill-rule="nonzero" node-id="325" stroke="none" target-height="31.950012" target-width="31.959991" target-x="342.95" target-y="624.11"></path><path d="M 343.50 676.62 L 374.35 676.62 L 374.35 707.47 L 343.50 707.47 Z" fill="#231f20" fill-rule="nonzero" node-id="327" stroke="none" target-height="30.849976" target-width="30.850006" target-x="343.5" target-y="676.62"></path><path d="M 374.35 708.00 L 343.50 708.00 C 343.20 708.00 342.95 707.75 342.95 707.45 L 342.95 676.62 C 342.95 676.32 343.20 676.07 343.50 676.07 L 374.35 676.07 C 374.50 676.07 374.64 676.12 374.75 676.23 C 374.85 676.33 374.91 676.47 374.91 676.62 L 374.91 707.47 C 374.89 707.77 374.65 708.00 374.35 708.00 Z M 344.06 706.89 L 373.80 706.89 L 373.80 677.17 L 344.06 677.17 Z" fill="#231f20" fill-rule="nonzero" node-id="329" stroke="none" target-height="31.929993" target-width="31.959991" target-x="342.95" target-y="676.07"></path><path d="M 343.50 728.57 L 374.35 728.57 L 374.35 759.42 L 343.50 759.42 Z" fill="#ffffff" fill-rule="nonzero" node-id="331" stroke="none" target-height="30.849976" target-width="30.850006" target-x="343.5" target-y="728.57"></path><path d="M 374.35 760.00 L 343.50 760.00 C 343.19 759.99 342.95 759.75 342.95 759.44 L 342.95 728.57 C 342.95 728.27 343.20 728.02 343.50 728.02 L 374.35 728.02 C 374.66 728.02 374.90 728.26 374.91 728.57 L 374.91 759.42 C 374.92 759.57 374.86 759.72 374.75 759.83 C 374.65 759.94 374.50 760.00 374.35 760.00 Z M 344.06 758.89 L 373.80 758.89 L 373.80 729.13 L 344.06 729.13 Z" fill="#231f20" fill-rule="nonzero" node-id="333" stroke="none" target-height="31.97998" target-width="31.970001" target-x="342.95" target-y="728.02"></path><path d="M 343.50 780.53 L 374.35 780.53 L 374.35 811.38 L 343.50 811.38 Z" fill="#ffffff" fill-rule="nonzero" node-id="335" stroke="none" target-height="30.849976" target-width="30.850006" target-x="343.5" target-y="780.53"></path><path d="M 374.35 811.93 L 343.50 811.93 C 343.20 811.93 342.95 811.68 342.95 811.38 L 342.95 780.53 C 342.95 780.23 343.20 779.98 343.50 779.98 L 374.35 779.98 C 374.66 779.98 374.90 780.22 374.91 780.53 L 374.91 811.38 C 374.91 811.53 374.85 811.67 374.75 811.77 C 374.64 811.88 374.50 811.93 374.35 811.93 Z M 344.06 810.83 L 373.80 810.83 L 373.80 781.08 L 344.06 781.08 Z" fill="#231f20" fill-rule="nonzero" node-id="337" stroke="none" target-height="31.950012" target-width="31.959991" target-x="342.95" target-y="779.98"></path><path d="M 405.33 684.60 L 640.21 684.60 L 640.21 699.48 L 405.33 699.48 Z" fill="#ffffff" fill-rule="nonzero" node-id="339" stroke="none" target-height="14.880005" target-width="234.88004" target-x="405.33" target-y="684.6"></path><path d="M 640.76 700.00 L 404.76 700.00 L 404.76 684.00 L 640.76 684.00 Z M 405.88 698.89 L 639.66 698.89 L 639.66 685.16 L 405.88 685.16 Z" fill="#231f20" fill-rule="nonzero" node-id="341" stroke="none" target-height="16" target-width="236" target-x="404.76" target-y="684"></path><path d="M 405.33 736.56 L 640.21 736.56 L 640.21 751.44 L 405.33 751.44 Z" fill="#ffffff" fill-rule="nonzero" node-id="343" stroke="none" target-height="14.880005" target-width="234.88004" target-x="405.33" target-y="736.56"></path><path d="M 640.76 752.00 L 404.76 752.00 L 404.76 736.00 L 640.76 736.00 Z M 405.88 750.90 L 639.66 750.90 L 639.66 737.11 L 405.88 737.11 Z" fill="#231f20" fill-rule="nonzero" node-id="345" stroke="none" target-height="16" target-width="236" target-x="404.76" target-y="736"></path><path d="M 405.33 788.51 L 640.21 788.51 L 640.21 803.39 L 405.33 803.39 Z" fill="#ffffff" fill-rule="nonzero" node-id="347" stroke="none" target-height="14.880005" target-width="234.88004" target-x="405.33" target-y="788.51"></path><path d="M 640.76 804.00 L 404.76 804.00 L 404.76 788.00 L 640.76 788.00 Z M 405.88 802.89 L 639.66 802.89 L 639.66 789.07 L 405.88 789.07 Z" fill="#231f20" fill-rule="nonzero" node-id="349" stroke="none" target-height="16" target-width="236" target-x="404.76" target-y="788"></path><path d="M 405.33 632.65 L 640.21 632.65 L 640.21 647.53 L 405.33 647.53 Z" fill="#ffffff" fill-rule="nonzero" node-id="351" stroke="none" target-height="14.880005" target-width="234.88004" target-x="405.33" target-y="632.65"></path><path d="M 640.76 648.08 L 404.76 648.08 L 404.76 632.08 L 640.76 632.08 Z M 405.88 647.00 L 639.66 647.00 L 639.66 633.20 L 405.88 633.20 Z" fill="#231f20" fill-rule="nonzero" node-id="353" stroke="none" target-height="16" target-width="236" target-x="404.76" target-y="632.08"></path><path d="M 354.88 229.38 L 583.04 229.38 C 589.33 229.38 594.42 234.47 594.42 240.76 L 594.42 243.17 C 594.42 249.46 589.33 254.55 583.04 254.55 L 354.88 254.55 C 348.59 254.55 343.50 249.46 343.50 243.17 L 343.50 240.76 C 343.50 234.47 348.59 229.38 354.88 229.38 Z" fill="#ffffff" fill-rule="nonzero" node-id="355" stroke="none" target-height="25.169998" target-width="250.91998" target-x="343.5" target-y="229.38"></path><path d="M 581.84 255.10 L 356.09 255.10 C 351.31 255.23 346.84 252.76 344.41 248.64 C 341.98 244.52 341.98 239.41 344.41 235.29 C 346.84 231.17 351.31 228.70 356.09 228.83 L 581.84 228.83 C 586.62 228.70 591.09 231.17 593.52 235.29 C 595.95 239.41 595.95 244.52 593.52 248.64 C 591.09 252.76 586.62 255.23 581.84 255.10 Z M 356.09 229.93 C 349.44 229.93 344.06 235.32 344.06 241.97 C 344.06 248.61 349.44 254.00 356.09 254.00 L 581.84 254.00 C 588.49 254.00 593.88 248.61 593.88 241.97 C 593.88 235.32 588.49 229.93 581.84 229.93 Z" fill="#231f20" fill-rule="nonzero" node-id="357" stroke="none" target-height="26.529999" target-width="253.97" target-x="341.98" target-y="228.7"></path><path d="M 626.42 229.38 L 628.83 229.38 C 635.12 229.38 640.21 234.47 640.21 240.76 L 640.21 243.17 C 640.21 249.46 635.12 254.55 628.83 254.55 L 626.42 254.55 C 620.13 254.55 615.04 249.46 615.04 243.17 L 615.04 240.76 C 615.04 234.47 620.13 229.38 626.42 229.38 Z" fill="#ffffff" fill-rule="nonzero" node-id="359" stroke="none" target-height="25.169998" target-width="25.170044" target-x="615.04" target-y="229.38"></path><path d="M 627.62 255.10 C 622.30 255.10 617.51 251.89 615.48 246.98 C 613.44 242.06 614.58 236.41 618.34 232.65 C 622.11 228.90 627.77 227.79 632.68 229.83 C 637.59 231.88 640.78 236.68 640.76 242.00 C 640.73 249.24 634.86 255.09 627.62 255.10 Z M 627.62 229.93 C 620.99 229.93 615.62 235.30 615.62 241.93 C 615.62 248.56 620.99 253.93 627.62 253.93 C 634.25 253.93 639.62 248.56 639.62 241.93 C 639.62 235.30 634.25 229.93 627.62 229.93 Z" fill="#231f20" fill-rule="nonzero" node-id="361" stroke="none" target-height="27.310013" target-width="27.340027" target-x="613.44" target-y="227.79"></path><path d="M 508.54 435.19 C 508.54 517.85 441.53 584.86 358.87 584.86 C 276.21 584.86 209.20 517.85 209.20 435.19 C 209.20 352.53 276.21 285.52 358.87 285.52 L 358.87 435.19 Z" fill="#ffffff" fill-rule="nonzero" node-id="363" stroke="none" target-height="299.34" target-width="299.34003" target-x="209.2" target-y="285.52"></path><path d="M 358.87 585.41 C 276.00 585.41 208.65 518.00 208.65 435.19 C 208.65 352.38 276.00 285.00 358.87 285.00 C 359.17 285.00 359.42 285.25 359.42 285.55 L 359.42 434.64 L 508.54 434.64 C 508.84 434.64 509.09 434.89 509.09 435.19 C 509.09 518.00 441.70 585.41 358.87 585.41 Z M 358.32 286.07 C 276.32 286.38 209.75 353.15 209.75 435.19 C 209.75 517.41 276.65 584.31 358.87 584.31 C 440.87 584.31 507.68 517.71 507.98 435.75 L 358.87 435.75 C 358.72 435.75 358.58 435.69 358.48 435.59 C 358.37 435.48 358.32 435.34 358.32 435.19 Z" fill="#231f20" fill-rule="nonzero" node-id="365" stroke="none" target-height="300.40997" target-width="300.44" target-x="208.65" target-y="285"></path><path d="M 529.56 414.17 L 379.89 414.17 L 379.89 264.50 C 462.55 264.50 529.56 331.51 529.56 414.17 Z" fill="#231f20" fill-rule="nonzero" node-id="367" stroke="none" target-height="149.67001" target-width="149.66998" target-x="379.89" target-y="264.5"></path><path d="M 529.56 414.72 L 379.89 414.72 C 379.59 414.72 379.34 414.47 379.34 414.17 L 379.34 264.50 C 379.34 264.20 379.59 263.95 379.89 263.95 C 462.72 263.95 530.11 331.34 530.11 414.17 C 530.11 414.47 529.86 414.72 529.56 414.72 Z M 380.45 413.62 L 529.00 413.62 C 528.70 331.83 462.23 265.35 380.45 265.05 Z" fill="#231f20" fill-rule="nonzero" node-id="369" stroke="none" target-height="150.76999" target-width="150.76999" target-x="379.34" target-y="263.95"></path><path d="M 213.74 471.77 L 358.87 435.19 L 282.11 563.68 C 248.00 543.36 223.39 510.28 213.74 471.77 Z" fill="#ffffff" fill-rule="nonzero" node-id="371" stroke="none" target-height="128.48999" target-width="145.12999" target-x="213.74" target-y="435.19"></path><path d="M 282.11 564.24 C 282.01 564.24 281.92 564.21 281.83 564.16 C 247.55 543.81 222.84 510.59 213.21 471.91 C 213.17 471.77 213.19 471.62 213.27 471.49 C 213.34 471.36 213.47 471.27 213.61 471.24 L 358.73 434.65 C 358.95 434.60 359.18 434.68 359.31 434.86 C 359.44 435.04 359.44 435.29 359.31 435.47 L 282.59 564.00 C 282.48 564.16 282.30 564.25 282.11 564.24 Z M 214.42 472.17 C 224.03 510.16 248.30 542.79 281.92 562.92 L 357.71 436.05 Z" fill="#231f20" fill-rule="nonzero" node-id="373" stroke="none" target-height="129.65" target-width="146.27" target-x="213.17" target-y="434.6"></path><path d="M 314.94 835.70 L 360.50 835.70 L 360.50 881.26 L 314.94 881.26 Z" fill="#ffffff" fill-rule="nonzero" node-id="375" stroke="none" target-height="45.559998" target-width="45.559998" target-x="314.94" target-y="835.7"></path><path d="M 361.05 881.82 L 314.38 881.82 L 314.38 835.15 L 361.05 835.15 Z M 315.49 880.71 L 360.00 880.71 L 360.00 836.25 L 315.49 836.25 Z" fill="#231f20" fill-rule="nonzero" node-id="377" stroke="none" target-height="46.669983" target-width="46.669983" target-x="314.38" target-y="835.15"></path><path d="M 359.43 835.70 L 404.99 835.70 L 404.99 881.26 L 359.43 881.26 Z" fill="#ffffff" fill-rule="nonzero" node-id="379" stroke="none" target-height="45.559998" target-width="45.559998" target-x="359.43" target-y="835.7"></path><path d="M 405.55 881.82 L 358.88 881.82 L 358.88 835.15 L 405.55 835.15 Z M 360.00 880.71 L 404.46 880.71 L 404.46 836.25 L 360.00 836.25 Z" fill="#231f20" fill-rule="nonzero" node-id="381" stroke="none" target-height="46.669983" target-width="46.669983" target-x="358.88" target-y="835.15"></path><path d="M 403.93 835.70 L 449.49 835.70 L 449.49 881.26 L 403.93 881.26 Z" fill="#ffffff" fill-rule="nonzero" node-id="383" stroke="none" target-height="45.559998" target-width="45.559998" target-x="403.93" target-y="835.7"></path><path d="M 450.00 881.82 L 403.37 881.82 L 403.37 835.15 L 450.00 835.15 Z M 404.44 880.71 L 448.90 880.71 L 448.90 836.25 L 404.48 836.25 Z" fill="#231f20" fill-rule="nonzero" node-id="385" stroke="none" target-height="46.669983" target-width="46.630005" target-x="403.37" target-y="835.15"></path><path d="M 448.42 835.70 L 493.98 835.70 L 493.98 881.26 L 448.42 881.26 Z" fill="#ffffff" fill-rule="nonzero" node-id="387" stroke="none" target-height="45.559998" target-width="45.559998" target-x="448.42" target-y="835.7"></path><path d="M 494.54 881.82 L 447.87 881.82 L 447.87 835.15 L 494.54 835.15 Z M 449.00 880.71 L 493.46 880.71 L 493.46 836.25 L 449.00 836.25 Z" fill="#231f20" fill-rule="nonzero" node-id="389" stroke="none" target-height="46.669983" target-width="46.670013" target-x="447.87" target-y="835.15"></path><path d="M 492.91 835.70 L 538.47 835.70 L 538.47 881.26 L 492.91 881.26 Z" fill="#ffffff" fill-rule="nonzero" node-id="391" stroke="none" target-height="45.559998" target-width="45.559967" target-x="492.91" target-y="835.7"></path><path d="M 539.00 881.82 L 492.36 881.82 L 492.36 835.15 L 539.00 835.15 Z M 493.44 880.71 L 537.89 880.71 L 537.89 836.25 L 493.47 836.25 Z" fill="#231f20" fill-rule="nonzero" node-id="393" stroke="none" target-height="46.669983" target-width="46.640015" target-x="492.36" target-y="835.15"></path><path d="M 537.41 835.70 L 582.97 835.70 L 582.97 881.26 L 537.41 881.26 Z" fill="#ffffff" fill-rule="nonzero" node-id="395" stroke="none" target-height="45.559998" target-width="45.559998" target-x="537.41" target-y="835.7"></path><path d="M 583.52 881.82 L 536.85 881.82 L 536.85 835.15 L 583.52 835.15 Z M 538.00 880.71 L 582.46 880.71 L 582.46 836.25 L 538.00 836.25 Z" fill="#231f20" fill-rule="nonzero" node-id="397" stroke="none" target-height="46.669983" target-width="46.670044" target-x="536.85" target-y="835.15"></path><path d="M 581.90 835.70 L 627.46 835.70 L 627.46 881.26 L 581.90 881.26 Z" fill="#ffffff" fill-rule="nonzero" node-id="399" stroke="none" target-height="45.559998" target-width="45.559998" target-x="581.9" target-y="835.7"></path><path d="M 628.00 881.82 L 581.35 881.82 L 581.35 835.15 L 628.00 835.15 Z M 582.43 880.71 L 626.89 880.71 L 626.89 836.25 L 582.45 836.25 Z" fill="#231f20" fill-rule="nonzero" node-id="401" stroke="none" target-height="46.669983" target-width="46.650024" target-x="581.35" target-y="835.15"></path><path d="M 626.40 835.70 L 671.96 835.70 L 671.96 881.26 L 626.40 881.26 Z" fill="#ffffff" fill-rule="nonzero" node-id="403" stroke="none" target-height="45.559998" target-width="45.559998" target-x="626.4" target-y="835.7"></path><path d="M 672.51 881.82 L 625.84 881.82 L 625.84 835.15 L 672.51 835.15 Z M 627.00 880.71 L 671.46 880.71 L 671.46 836.25 L 627.00 836.25 Z" fill="#231f20" fill-rule="nonzero" node-id="405" stroke="none" target-height="46.669983" target-width="46.669983" target-x="625.84" target-y="835.15"></path><path d="M 819.95 865.23 L 820.06 965.04 L 826.22 965.04 L 833.59 864.59 L 819.95 865.23 Z" fill="#ffffff" fill-rule="nonzero" node-id="407" stroke="none" target-height="100.44995" target-width="13.640015" target-x="819.95" target-y="864.59"></path><path d="M 826.22 965.60 L 820.06 965.60 C 819.76 965.60 819.51 965.35 819.51 965.05 L 819.40 865.23 C 819.40 864.94 819.63 864.70 819.92 864.68 L 833.56 864.04 C 833.72 864.03 833.88 864.09 833.98 864.21 C 834.09 864.32 834.15 864.47 834.14 864.63 L 826.78 965.08 C 826.75 965.37 826.51 965.60 826.22 965.60 Z M 820.62 964.49 L 825.71 964.49 L 833.00 865.17 L 820.51 865.76 Z" fill="#231f20" fill-rule="nonzero" node-id="409" stroke="none" target-height="101.56995" target-width="14.75" target-x="819.4" target-y="864.03"></path><path d="M 796.04 971.77 L 826.77 971.77 L 826.52 965.04 L 820.36 965.04 L 796.04 971.77 Z" fill="#231f20" fill-rule="nonzero" node-id="411" stroke="none" target-height="6.7300415" target-width="30.730042" target-x="796.04" target-y="965.04"></path><path d="M 826.77 972.32 L 796.00 972.32 C 795.72 972.32 795.49 972.11 795.46 971.84 C 795.42 971.57 795.59 971.31 795.86 971.23 L 820.17 964.51 L 820.32 964.51 L 826.48 964.51 C 826.78 964.51 827.02 964.74 827.03 965.04 L 827.28 971.77 C 827.29 971.92 827.23 972.06 827.13 972.17 C 827.03 972.26 826.90 972.31 826.77 972.32 Z M 800.12 971.21 L 826.20 971.21 L 826.00 965.60 L 820.44 965.60 Z" fill="#231f20" fill-rule="nonzero" node-id="413" stroke="none" target-height="7.8099976" target-width="31.869995" target-x="795.42" target-y="964.51"></path><path d="M 891.19 965.04 L 893.01 864.91 L 871.48 865.92 L 885.03 965.04 L 891.19 965.04 Z" fill="#ffffff" fill-rule="nonzero" node-id="415" stroke="none" target-height="100.130005" target-width="21.53003" target-x="871.48" target-y="864.91"></path><path d="M 891.19 965.60 L 885.00 965.60 C 884.72 965.60 884.49 965.39 884.45 965.12 L 870.93 866.00 C 870.91 865.85 870.96 865.70 871.05 865.58 C 871.15 865.46 871.29 865.39 871.45 865.38 L 892.99 864.38 C 893.14 864.37 893.29 864.43 893.40 864.54 C 893.50 864.64 893.56 864.79 893.56 864.94 L 891.74 965.07 C 891.73 965.37 891.49 965.60 891.19 965.60 Z M 885.51 964.49 L 890.64 964.49 L 892.45 865.49 L 872.11 866.49 Z" fill="#231f20" fill-rule="nonzero" node-id="417" stroke="none" target-height="101.22998" target-width="22.650024" target-x="870.91" target-y="864.37"></path><path d="M 811.41 957.32 L 831.58 957.32 L 851.62 725.16 L 873.99 957.73 L 895.76 957.73 L 892.51 845.84 L 892.51 699.27 L 811.03 699.27 L 811.41 957.32 Z" fill="#fbb040" fill-rule="nonzero" node-id="419" stroke="none" target-height="258.45996" target-width="84.72998" target-x="811.03" target-y="699.27"></path><path d="M 895.76 958.28 L 874.00 958.28 C 873.71 958.28 873.48 958.06 873.45 957.78 L 851.65 731.25 L 832.13 957.36 C 832.11 957.65 831.87 957.87 831.58 957.87 L 811.41 957.87 C 811.10 957.87 810.86 957.63 810.85 957.32 L 810.47 699.27 C 810.47 699.12 810.53 698.98 810.64 698.88 C 810.74 698.78 810.88 698.72 811.03 698.72 L 892.51 698.72 C 892.81 698.72 893.06 698.97 893.06 699.27 L 893.06 845.84 L 896.32 957.71 C 896.32 957.86 896.26 958.01 896.16 958.12 C 896.05 958.22 895.91 958.28 895.76 958.28 Z M 874.49 957.18 L 895.19 957.18 L 892.00 845.85 L 892.00 699.85 L 811.58 699.85 L 812.00 956.76 L 831.11 956.76 L 851.11 725.12 C 851.13 724.83 851.37 724.61 851.66 724.61 L 851.66 724.61 C 851.94 724.61 852.18 724.83 852.21 725.11 Z" fill="#231f20" fill-rule="nonzero" node-id="421" stroke="none" target-height="259.56006" target-width="85.85004" target-x="810.47" target-y="698.72"></path><path d="M 811.00 652.72 L 811.00 699.27 L 811.00 699.27 C 830.55 708.28 852.64 710.12 873.41 704.46 L 892.48 699.27 L 892.48 652.72 C 892.50 631.09 875.61 613.22 854.01 612.01 C 832.42 610.80 813.64 626.68 811.25 648.18 C 811.08 649.69 811.00 651.20 811.00 652.72 Z" fill="#231f20" fill-rule="nonzero" node-id="423" stroke="none" target-height="99.32001" target-width="81.5" target-x="811" target-y="610.8"></path><path d="M 849.40 708.22 C 836.07 708.23 822.91 705.34 810.80 699.77 C 810.60 699.68 810.47 699.49 810.47 699.27 L 810.47 652.72 C 810.47 629.91 828.96 611.42 851.77 611.42 C 874.58 611.42 893.07 629.91 893.07 652.72 L 893.07 699.27 C 893.07 699.52 892.90 699.74 892.66 699.80 L 873.59 705.00 C 865.70 707.14 857.57 708.22 849.40 708.22 Z M 811.58 698.92 C 830.94 707.73 852.77 709.50 873.30 703.92 L 892.00 698.85 L 892.00 652.72 C 892.00 631.39 875.35 613.78 854.05 612.59 C 832.76 611.40 814.25 627.05 811.87 648.24 C 811.70 649.73 811.62 651.22 811.62 652.72 Z" fill="#231f20" fill-rule="nonzero" node-id="425" stroke="none" target-height="98.099976" target-width="82.60004" target-x="810.47" target-y="611.4"></path><path d="M 861.01 971.77 L 891.73 971.77 L 891.48 965.04 L 885.32 965.04 L 861.01 971.77 Z" fill="#231f20" fill-rule="nonzero" node-id="427" stroke="none" target-height="6.7300415" target-width="30.71997" target-x="861.01" target-y="965.04"></path><path d="M 891.73 972.32 L 861.00 972.32 C 860.73 972.31 860.51 972.10 860.47 971.84 C 860.44 971.57 860.60 971.32 860.85 971.23 L 885.17 964.51 L 885.31 964.51 L 891.47 964.51 C 891.77 964.51 892.01 964.74 892.03 965.04 L 892.28 971.77 C 892.28 971.92 892.23 972.06 892.12 972.17 C 892.02 972.27 891.87 972.32 891.73 972.32 Z M 865.08 971.21 L 891.16 971.21 L 891.00 965.60 L 885.40 965.60 Z" fill="#231f20" fill-rule="nonzero" node-id="429" stroke="none" target-height="7.8099976" target-width="31.840027" target-x="860.44" target-y="964.51"></path><path d="M 851.19 624.41 L 856.84 619.04 L 850.27 593.18 L 838.27 589.40 L 839.16 615.29 L 838.71 617.45 C 838.02 620.66 839.50 623.95 842.37 625.55 C 845.24 627.15 848.82 626.69 851.19 624.41 Z" fill="#ffffff" fill-rule="nonzero" node-id="431" stroke="none" target-height="37.75" target-width="18.820007" target-x="838.02" target-y="589.4"></path><path d="M 846.08 627.05 C 844.68 627.07 843.30 626.73 842.08 626.05 C 838.98 624.37 837.37 620.83 838.14 617.38 L 838.59 615.29 L 837.70 589.47 C 837.69 589.29 837.78 589.12 837.92 589.01 C 838.06 588.91 838.25 588.87 838.42 588.93 L 850.42 592.70 C 850.60 592.76 850.74 592.91 850.79 593.09 L 857.35 618.96 C 857.40 619.15 857.34 619.35 857.20 619.49 L 851.55 624.86 L 851.55 624.86 C 850.07 626.26 848.12 627.04 846.08 627.05 Z M 838.87 590.17 L 839.74 615.27 C 839.74 615.32 839.74 615.36 839.74 615.41 L 839.29 617.56 C 838.67 620.52 840.04 623.53 842.68 625.01 C 845.32 626.48 848.60 626.08 850.80 624.00 L 856.22 618.86 L 849.81 593.61 Z M 851.19 624.41 L 851.19 624.41 Z" fill="#231f20" fill-rule="nonzero" node-id="433" stroke="none" target-height="38.200012" target-width="20.03003" target-x="837.37" target-y="588.87"></path><path d="M 862.52 592.61 C 862.52 602.53 854.47 610.58 844.55 610.58 C 834.63 610.58 826.58 602.53 826.58 592.61 C 826.58 582.69 834.63 574.64 844.55 574.64 C 854.47 574.64 862.52 582.69 862.52 592.61 Z" fill="#ffffff" fill-rule="nonzero" node-id="435" stroke="none" target-height="35.940002" target-width="35.940002" target-x="826.58" target-y="574.64"></path><path d="M 844.56 611.13 C 836.35 611.12 829.12 605.71 826.79 597.84 L 826.79 597.84 C 823.90 588.03 829.51 577.73 839.32 574.84 C 849.13 571.95 859.43 577.56 862.32 587.37 C 865.21 597.18 859.60 607.48 849.79 610.37 C 848.09 610.88 846.33 611.13 844.56 611.13 Z M 827.85 597.52 C 830.57 606.74 840.24 612.02 849.47 609.30 C 858.69 606.59 863.97 596.91 861.25 587.69 C 858.54 578.47 848.86 573.19 839.64 575.90 C 830.42 578.62 825.15 588.30 827.85 597.52 Z" fill="#231f20" fill-rule="nonzero" node-id="437" stroke="none" target-height="40.070007" target-width="41.309998" target-x="823.9" target-y="571.95"></path><path d="M 851.62 725.72 C 851.51 725.72 851.41 725.69 851.32 725.63 L 845.54 721.88 C 845.42 721.80 845.33 721.68 845.30 721.53 C 845.27 721.39 845.30 721.24 845.38 721.12 C 845.55 720.87 845.89 720.79 846.14 720.96 L 851.92 724.70 C 852.04 724.78 852.13 724.91 852.16 725.05 C 852.19 725.20 852.16 725.35 852.08 725.47 C 851.98 725.63 851.81 725.72 851.62 725.72 Z" fill="#231f20" fill-rule="nonzero" node-id="439" stroke="none" target-height="4.9299927" target-width="6.919983" target-x="845.27" target-y="720.79"></path><path d="M 882.25 702.07 L 887.59 957.73" fill="#ffffff" fill-rule="nonzero" node-id="441" stroke="none" target-height="255.65997" target-width="5.340027" target-x="882.25" target-y="702.07"></path><path d="M 887.59 958.28 C 887.29 958.28 887.05 958.04 887.04 957.74 L 881.69 702.08 C 881.68 701.77 881.92 701.52 882.23 701.51 L 882.23 701.51 C 882.53 701.51 882.77 701.75 882.78 702.05 L 888.12 957.72 C 888.13 957.87 888.07 958.01 887.97 958.11 C 887.87 958.22 887.73 958.28 887.58 958.28 Z" fill="#231f20" fill-rule="nonzero" node-id="443" stroke="none" target-height="256.77002" target-width="6.450012" target-x="881.68" target-y="701.51"></path><path d="M 845.09 659.14 L 834.65 678.84 C 834.65 678.84 813.00 718.44 790.42 702.84 C 782.30 697.22 776.85 676.07 794.42 654.08 C 803.92 642.37 814.49 631.58 826.00 621.84 L 812.21 673.29 L 810.74 678.78 C 821.75 651.73 845.09 659.14 845.09 659.14 Z" fill="#ffffff" fill-rule="nonzero" node-id="445" stroke="none" target-height="96.599976" target-width="68.24005" target-x="776.85" target-y="621.84"></path><path d="M 801.41 707.00 C 797.35 706.95 793.40 705.65 790.11 703.26 C 786.34 700.66 783.53 695.26 782.58 688.83 C 781.58 682.25 781.80 668.95 793.95 653.70 C 803.50 641.97 814.12 631.15 825.68 621.39 C 825.87 621.24 826.13 621.22 826.33 621.35 C 826.53 621.48 826.62 621.73 826.56 621.96 L 812.84 673.20 C 824.60 652.36 845.03 658.55 845.25 658.62 C 845.41 658.66 845.54 658.78 845.60 658.93 C 845.67 659.08 845.67 659.25 845.60 659.40 L 835.16 679.10 C 832.69 683.40 829.87 687.48 826.72 691.31 C 821.93 697.12 814.43 704.47 805.96 706.48 C 804.47 706.83 802.94 707.01 801.41 707.00 Z M 825.00 623.39 C 814.02 632.81 803.91 643.18 794.77 654.39 C 782.88 669.31 782.69 682.27 783.63 688.66 C 784.54 694.80 787.18 699.92 790.69 702.35 C 794.99 705.50 800.45 706.60 805.63 705.35 C 821.33 701.63 834.00 678.75 834.12 678.51 L 844.24 659.43 C 840.39 658.43 821.02 654.84 811.24 678.92 C 811.10 679.12 810.84 679.21 810.61 679.12 C 810.37 679.04 810.22 678.82 810.24 678.57 Z" fill="#231f20" fill-rule="nonzero" node-id="447" stroke="none" target-height="85.79004" target-width="64.089966" target-x="781.58" target-y="621.22"></path><path d="M 807.36 579.43 C 807.36 579.43 819.76 610.43 854.46 589.69 L 858.96 595.69 C 858.96 595.69 857.71 587.35 860.84 590.69 C 864.84 594.94 859.35 602.76 859.35 602.76 C 859.35 602.76 880.18 582.67 861.35 571.66 C 842.52 560.65 807.36 579.43 807.36 579.43 Z" fill="#231f20" fill-rule="nonzero" node-id="449" stroke="none" target-height="49.77997" target-width="72.82001" target-x="807.36" target-y="560.65"></path><path d="M 859.35 603.35 C 859.22 603.35 859.09 603.30 858.99 603.21 C 858.78 603.03 858.74 602.71 858.90 602.48 C 858.95 602.40 864.06 594.97 860.44 591.10 C 859.87 590.49 859.63 590.48 859.61 590.48 L 859.61 590.48 C 859.20 590.73 859.15 593.24 859.50 595.64 C 859.54 595.89 859.40 596.14 859.17 596.23 C 858.93 596.33 858.66 596.26 858.51 596.05 L 854.32 590.42 C 843.00 597.11 832.77 599.00 824.00 596.05 C 811.88 591.96 806.88 579.76 806.83 579.63 C 806.72 579.37 806.83 579.07 807.08 578.94 C 813.50 575.68 820.19 573.01 827.08 570.94 C 837.34 567.94 851.65 565.47 861.56 571.25 C 866.40 574.07 869.12 577.74 869.65 582.16 C 870.87 592.33 860.16 602.79 859.71 603.23 C 859.61 603.31 859.48 603.35 859.35 603.35 Z M 859.61 589.35 C 860.26 589.47 860.85 589.82 861.25 590.35 C 863.58 592.85 862.97 596.35 861.92 599.08 C 865.02 595.22 869.34 588.57 868.58 582.26 C 868.09 578.20 865.58 574.81 861.04 572.18 C 843.81 562.18 812.24 577.57 808.04 579.69 C 809.04 581.91 814.04 591.54 824.34 595.02 C 832.88 597.90 842.90 595.95 854.14 589.23 C 854.38 589.09 854.70 589.15 854.87 589.37 L 858.15 593.78 C 858.03 592.01 858.15 589.96 859.10 589.49 C 859.26 589.42 859.43 589.38 859.61 589.38 Z" fill="#231f20" fill-rule="nonzero" node-id="451" stroke="none" target-height="41.169983" target-width="64.150024" target-x="806.72" target-y="562.18"></path><path d="M 826.00 621.84 L 812.21 673.29 L 794.35 654.07 C 803.87 642.36 814.47 631.57 826.00 621.84 Z" fill="#231f20" fill-rule="nonzero" node-id="453" stroke="none" target-height="51.44995" target-width="31.650024" target-x="794.35" target-y="621.84"></path><path d="M 812.24 673.85 C 812.09 673.85 811.94 673.78 811.84 673.67 L 794.00 654.44 C 793.82 654.23 793.82 653.93 794.00 653.72 C 803.55 641.99 814.17 631.17 825.73 621.41 C 825.92 621.26 826.18 621.24 826.38 621.37 C 826.58 621.50 826.67 621.75 826.61 621.98 L 812.82 673.44 C 812.77 673.63 812.61 673.78 812.42 673.83 Z M 795.11 654.00 L 812.00 672.18 L 825.00 623.39 C 814.16 632.70 804.16 642.94 795.11 654.00 Z" fill="#231f20" fill-rule="nonzero" node-id="455" stroke="none" target-height="52.609985" target-width="32.849976" target-x="793.82" target-y="621.24"></path><g node-id="547"><path d="M 806.71 642.39 L 843.87 626.20 L 866.89 679.04 L 829.73 695.22 Z" fill="#ffffff" fill-rule="nonzero" group-id="1" node-id="459" stroke="none" target-height="69.01996" target-width="60.179993" target-x="806.71" target-y="626.2"></path></g><path d="M 829.71 695.85 C 829.49 695.85 829.29 695.71 829.20 695.51 L 806.20 642.68 C 806.08 642.40 806.21 642.08 806.49 641.96 L 843.64 625.77 C 843.77 625.71 843.93 625.70 844.07 625.76 C 844.21 625.81 844.32 625.92 844.37 626.06 L 867.37 678.89 C 867.42 679.02 867.42 679.18 867.37 679.31 C 867.32 679.45 867.21 679.56 867.07 679.62 L 829.93 695.80 C 829.86 695.83 829.79 695.85 829.71 695.85 Z M 807.43 642.75 L 830.00 694.57 L 866.14 678.82 L 843.57 627.00 Z" fill="#231f20" fill-rule="nonzero" node-id="462" stroke="none" target-height="70.14996" target-width="61.339966" target-x="806.08" target-y="625.7"></path><path d="M 905.17 704.81 C 882.00 715.31 844.00 681.08 844.00 681.08 C 844.00 681.08 826.92 669.61 835.12 657.58 L 852.12 665.33 L 856.18 658.97 L 853.55 648.51 L 862.76 659.83 L 861.65 668.83 L 885.65 672.23 L 885.12 667.23 L 880.57 623.94 C 889.67 633.77 897.87 644.39 905.07 655.69 L 905.07 655.69 C 916.69 674.42 924.31 696.16 905.17 704.81 Z" fill="#ffffff" fill-rule="nonzero" node-id="464" stroke="none" target-height="91.369995" target-width="97.390015" target-x="826.92" target-y="623.94"></path><path d="M 895.32 707.33 C 886.98 707.33 876.91 703.98 865.59 697.33 C 857.80 692.71 850.43 687.40 843.59 681.46 C 843.27 681.24 834.12 675.03 832.53 666.78 C 831.88 663.45 832.64 659.99 834.63 657.24 C 834.78 657.02 835.07 656.94 835.31 657.05 L 851.87 664.60 L 855.54 658.85 L 853.00 648.65 C 852.94 648.40 853.06 648.14 853.29 648.02 C 853.52 647.90 853.80 647.97 853.96 648.17 L 863.17 659.48 C 863.27 659.59 863.31 659.74 863.29 659.89 L 862.29 668.35 L 885.09 671.58 L 880.00 624.00 C 879.97 623.76 880.10 623.54 880.32 623.44 C 880.53 623.34 880.79 623.39 880.95 623.56 C 890.07 633.42 898.29 644.08 905.52 655.40 C 905.53 655.42 905.53 655.45 905.52 655.47 C 915.52 671.66 919.20 684.47 916.43 693.57 C 914.84 698.78 911.11 702.75 905.33 705.36 L 905.33 705.36 C 902.17 706.72 898.76 707.39 895.32 707.33 Z M 835.32 658.28 C 833.69 660.72 833.08 663.71 833.65 666.60 C 835.15 674.39 844.21 680.60 844.30 680.60 C 844.74 680.99 882.30 714.51 904.95 704.29 C 910.42 701.81 913.95 698.08 915.44 693.19 C 918.12 684.40 914.44 671.87 904.62 655.93 C 904.62 655.91 904.62 655.88 904.62 655.86 C 897.73 645.09 889.93 634.93 881.30 625.50 L 886.21 672.17 C 886.23 672.34 886.17 672.51 886.05 672.63 C 885.93 672.75 885.76 672.80 885.59 672.78 L 861.59 669.37 C 861.45 669.35 861.32 669.28 861.23 669.16 C 861.14 669.05 861.10 668.90 861.12 668.76 L 862.21 659.99 L 854.72 650.79 L 856.72 658.84 C 856.76 658.99 856.73 659.14 856.65 659.27 L 852.59 665.63 C 852.44 665.86 852.15 665.95 851.90 665.83 Z M 905.18 704.81 L 905.18 704.81 Z" fill="#231f20" fill-rule="nonzero" node-id="466" stroke="none" target-height="91.16998" target-width="87.32001" target-x="831.88" target-y="623.34"></path><path d="M 814.29 637.29 L 834.97 628.28 L 836.40 631.58 L 815.73 640.59 Z" fill="#ffffff" fill-rule="nonzero" group-id="2" node-id="470" stroke="none" target-height="12.309998" target-width="22.110046" target-x="814.29" target-y="628.28"></path><path d="M 815.72 641.22 C 815.65 641.24 815.59 641.24 815.52 641.22 C 815.38 641.17 815.27 641.06 815.21 640.93 L 813.78 637.62 C 813.72 637.49 813.71 637.34 813.76 637.20 C 813.82 637.06 813.92 636.95 814.06 636.90 L 834.73 627.90 C 835.01 627.78 835.34 627.91 835.46 628.19 L 836.90 631.49 C 836.96 631.62 836.97 631.78 836.91 631.92 C 836.86 632.06 836.75 632.17 836.61 632.22 L 815.94 641.22 C 815.87 641.24 815.79 641.24 815.72 641.22 Z M 815.01 637.65 L 816.01 639.94 L 835.66 631.38 L 834.66 629.09 Z" fill="#231f20" fill-rule="nonzero" node-id="473" stroke="none" target-height="13.459961" target-width="23.259949" target-x="813.71" target-y="627.78"></path><path d="M 905.08 655.65 L 905.08 655.65 L 885.08 667.18 L 880.53 623.89 C 889.65 633.72 897.87 644.35 905.08 655.65 Z" fill="#231f20" fill-rule="nonzero" node-id="475" stroke="none" target-height="43.289978" target-width="24.549988" target-x="880.53" target-y="623.89"></path><path d="M 885.13 667.74 C 885.04 667.74 884.96 667.72 884.88 667.68 C 884.71 667.60 884.60 667.43 884.58 667.25 L 880.00 624.00 C 879.97 623.76 880.10 623.54 880.32 623.44 C 880.53 623.34 880.79 623.39 880.95 623.56 C 890.07 633.42 898.29 644.08 905.52 655.40 C 905.57 655.49 905.60 655.59 905.60 655.69 L 905.60 655.69 C 905.60 655.89 905.49 656.07 905.32 656.17 L 885.38 667.70 C 885.30 667.73 885.22 667.75 885.13 667.74 Z M 881.30 625.50 L 885.60 666.28 L 904.31 655.46 C 897.49 644.85 889.80 634.82 881.30 625.50 Z" fill="#231f20" fill-rule="nonzero" node-id="477" stroke="none" target-height="44.409973" target-width="25.630005" target-x="879.97" target-y="623.34"></path><path d="M 874.85 744.00 L 892.83 744.00 L 892.83 823.94 L 874.85 823.94 Z" fill="#fbb040" fill-rule="nonzero" node-id="479" stroke="none" target-height="79.94" target-width="17.980042" target-x="874.85" target-y="744"></path><path d="M 892.83 824.49 L 874.83 824.49 C 874.53 824.49 874.28 824.24 874.28 823.94 L 874.28 744.00 C 874.28 743.70 874.53 743.45 874.83 743.45 L 892.83 743.45 C 893.13 743.45 893.38 743.70 893.38 744.00 L 893.38 823.94 C 893.38 824.24 893.13 824.49 892.83 824.49 Z M 875.40 823.39 L 892.28 823.39 L 892.28 744.55 L 875.40 744.55 Z" fill="#231f20" fill-rule="nonzero" node-id="481" stroke="none" target-height="81.03998" target-width="19.099976" target-x="874.28" target-y="743.45"></path><path d="M 894.02 674.51 L 885.66 672.23" fill="#ffffff" fill-rule="nonzero" node-id="483" stroke="none" target-height="2.2800293" target-width="8.360046" target-x="885.66" target-y="672.23"></path><path d="M 894.00 675.06 C 893.95 675.07 893.91 675.07 893.86 675.06 L 885.50 672.78 C 885.36 672.74 885.24 672.65 885.16 672.53 C 885.09 672.40 885.07 672.25 885.11 672.11 C 885.15 671.97 885.24 671.85 885.37 671.77 C 885.50 671.70 885.65 671.68 885.79 671.72 L 894.15 674.00 C 894.42 674.07 894.59 674.33 894.55 674.61 C 894.51 674.88 894.28 675.08 894.00 675.08 Z" fill="#231f20" fill-rule="nonzero" node-id="485" stroke="none" target-height="3.4000244" target-width="9.52002" target-x="885.07" target-y="671.68"></path><path d="M 1151.48 190.00 L 1151.48 393.21 L 1102.37 427.08 L 976.24 427.08 L 976.24 190.00 L 1151.48 190.00 Z" fill="#ffffff" fill-rule="nonzero" node-id="487" stroke="none" target-height="237.07999" target-width="175.23999" target-x="976.24" target-y="190"></path><path d="M 1102.37 427.63 L 976.24 427.63 C 975.94 427.63 975.69 427.38 975.69 427.08 L 975.69 190.00 C 975.69 189.70 975.94 189.45 976.24 189.45 L 1151.48 189.45 C 1151.79 189.45 1152.03 189.69 1152.04 190.00 L 1152.04 393.21 C 1152.04 393.39 1151.95 393.57 1151.80 393.67 L 1102.69 427.53 C 1102.60 427.60 1102.48 427.63 1102.37 427.63 Z M 976.80 426.53 L 1102.20 426.53 L 1150.93 392.92 L 1150.93 190.56 L 976.80 190.56 Z" fill="#231f20" fill-rule="nonzero" node-id="489" stroke="none" target-height="238.18001" target-width="176.35004" target-x="975.69" target-y="189.45"></path><path d="M 1017.44 255.30 C 1017.44 264.27 1010.16 271.55 1001.19 271.55 C 992.22 271.55 984.94 264.27 984.94 255.30 C 984.94 246.33 992.22 239.05 1001.19 239.05 C 1010.16 239.05 1017.44 246.33 1017.44 255.30 Z" fill="#ffffff" fill-rule="nonzero" node-id="491" stroke="none" target-height="32.499985" target-width="32.5" target-x="984.94" target-y="239.05"></path><path d="M 1001.19 272.11 C 991.91 272.11 984.38 264.58 984.38 255.30 C 984.38 246.02 991.91 238.49 1001.19 238.49 C 1010.47 238.49 1018.00 246.02 1018.00 255.30 C 1017.99 264.58 1010.47 272.10 1001.19 272.11 Z M 1001.19 239.60 C 992.52 239.60 985.49 246.63 985.49 255.30 C 985.49 263.97 992.52 271.00 1001.19 271.00 C 1009.86 271.00 1016.89 263.97 1016.89 255.30 C 1016.88 246.63 1009.86 239.61 1001.19 239.60 Z" fill="#231f20" fill-rule="nonzero" node-id="493" stroke="none" target-height="33.61998" target-width="33.619995" target-x="984.38" target-y="238.49"></path><path d="M 997.43 263.41 C 996.84 263.41 996.28 263.18 995.87 262.76 L 989.97 256.86 C 989.36 256.31 989.10 255.47 989.29 254.68 C 989.49 253.88 990.11 253.26 990.91 253.06 C 991.70 252.87 992.54 253.13 993.09 253.74 L 997.43 258.07 L 1015.88 239.62 C 1016.74 238.76 1018.15 238.76 1019.01 239.62 C 1019.87 240.48 1019.87 241.89 1019.01 242.75 L 999.01 262.75 C 998.59 263.18 998.02 263.41 997.43 263.41 Z" fill="#231f20" fill-rule="nonzero" node-id="495" stroke="none" target-height="24.65001" target-width="30.77002" target-x="989.1" target-y="238.76"></path><path d="M 1035.01 251.19 L 1133.95 251.19 L 1133.95 261.20 L 1035.01 261.20 Z" fill="#ffffff" fill-rule="nonzero" node-id="497" stroke="none" target-height="10.01001" target-width="98.93994" target-x="1035.01" target-y="251.19"></path><path d="M 1134.00 261.75 L 1035.00 261.75 C 1034.85 261.75 1034.71 261.70 1034.61 261.59 C 1034.50 261.49 1034.45 261.35 1034.45 261.20 L 1034.45 251.20 C 1034.45 250.90 1034.70 250.65 1035.00 250.65 L 1134.00 250.65 C 1134.30 250.65 1134.55 250.90 1134.55 251.20 L 1134.55 261.20 C 1134.55 261.35 1134.50 261.49 1134.39 261.59 C 1134.29 261.70 1134.15 261.75 1134.00 261.75 Z M 1035.61 260.65 L 1133.45 260.65 L 1133.45 251.74 L 1035.61 251.74 Z" fill="#231f20" fill-rule="nonzero" node-id="499" stroke="none" target-height="11.100006" target-width="100.1001" target-x="1034.45" target-y="250.65"></path><path d="M 1017.44 297.75 C 1017.44 306.72 1010.16 314.00 1001.19 314.00 C 992.22 314.00 984.94 306.72 984.94 297.75 C 984.94 288.78 992.22 281.50 1001.19 281.50 C 1010.16 281.50 1017.44 288.78 1017.44 297.75 Z" fill="#ffffff" fill-rule="nonzero" node-id="501" stroke="none" target-height="32.5" target-width="32.5" target-x="984.94" target-y="281.5"></path><path d="M 1001.19 314.55 C 994.39 314.55 988.26 310.45 985.66 304.17 C 983.06 297.89 984.50 290.66 989.31 285.85 C 994.12 281.04 1001.35 279.61 1007.63 282.21 C 1013.91 284.82 1018.00 290.95 1018.00 297.75 C 1017.99 307.03 1010.47 314.54 1001.19 314.55 Z M 1001.19 282.04 C 994.83 282.04 989.10 285.86 986.67 291.73 C 984.23 297.60 985.58 304.36 990.07 308.86 C 994.56 313.35 1001.32 314.70 1007.19 312.27 C 1013.06 309.83 1016.89 304.11 1016.89 297.75 C 1016.90 289.07 1009.87 282.02 1001.19 282.00 Z" fill="#231f20" fill-rule="nonzero" node-id="503" stroke="none" target-height="35.090027" target-width="34.940002" target-x="983.06" target-y="279.61"></path><path d="M 997.43 305.86 C 996.84 305.86 996.28 305.62 995.87 305.21 L 989.97 299.31 C 989.40 298.76 989.16 297.94 989.37 297.16 C 989.57 296.39 990.17 295.79 990.94 295.58 C 991.71 295.38 992.53 295.61 993.09 296.18 L 997.43 300.52 L 1015.88 282.07 C 1016.75 281.23 1018.13 281.24 1018.98 282.09 C 1019.83 282.94 1019.85 284.32 1019.01 285.19 L 999.01 305.19 C 998.59 305.61 998.02 305.86 997.43 305.86 Z" fill="#231f20" fill-rule="nonzero" node-id="505" stroke="none" target-height="24.629974" target-width="30.690002" target-x="989.16" target-y="281.23"></path><path d="M 1035.01 293.64 L 1133.95 293.64 L 1133.95 303.65 L 1035.01 303.65 Z" fill="#ffffff" fill-rule="nonzero" node-id="507" stroke="none" target-height="10.009979" target-width="98.93994" target-x="1035.01" target-y="293.64"></path><path d="M 1134.00 304.20 L 1035.00 304.20 C 1034.70 304.20 1034.45 303.95 1034.45 303.65 L 1034.45 293.65 C 1034.45 293.50 1034.50 293.36 1034.61 293.26 C 1034.71 293.15 1034.85 293.10 1035.00 293.10 L 1134.00 293.10 C 1134.15 293.10 1134.29 293.15 1134.39 293.26 C 1134.50 293.36 1134.55 293.50 1134.55 293.65 L 1134.55 303.65 C 1134.55 303.95 1134.30 304.20 1134.00 304.20 Z M 1035.61 303.09 L 1133.45 303.09 L 1133.45 294.19 L 1035.61 294.19 Z" fill="#231f20" fill-rule="nonzero" node-id="509" stroke="none" target-height="11.100006" target-width="100.1001" target-x="1034.45" target-y="293.1"></path><path d="M 1017.44 340.19 C 1017.44 349.16 1010.16 356.44 1001.19 356.44 C 992.22 356.44 984.94 349.16 984.94 340.19 C 984.94 331.22 992.22 323.94 1001.19 323.94 C 1010.16 323.94 1017.44 331.22 1017.44 340.19 Z" fill="#ffffff" fill-rule="nonzero" node-id="511" stroke="none" target-height="32.5" target-width="32.5" target-x="984.94" target-y="323.94"></path><path d="M 1001.19 357.00 C 991.91 357.00 984.38 349.47 984.38 340.19 C 984.38 330.91 991.91 323.38 1001.19 323.38 C 1010.47 323.38 1018.00 330.91 1018.00 340.19 C 1017.99 349.47 1010.47 356.99 1001.19 357.00 Z M 1001.19 324.49 C 992.52 324.49 985.49 331.52 985.49 340.19 C 985.49 348.86 992.52 355.89 1001.19 355.89 C 1009.86 355.89 1016.89 348.86 1016.89 340.19 C 1016.88 331.52 1009.86 324.50 1001.19 324.49 Z" fill="#231f20" fill-rule="nonzero" node-id="513" stroke="none" target-height="33.619995" target-width="33.619995" target-x="984.38" target-y="323.38"></path><path d="M 997.43 348.30 C 996.85 348.30 996.28 348.07 995.87 347.66 L 989.97 341.76 C 989.40 341.21 989.16 340.39 989.37 339.61 C 989.57 338.84 990.17 338.24 990.94 338.03 C 991.71 337.83 992.53 338.06 993.09 338.63 L 997.43 342.97 L 1015.88 324.51 C 1016.74 323.65 1018.15 323.65 1019.01 324.51 C 1019.87 325.37 1019.87 326.78 1019.01 327.64 L 999.01 347.64 C 998.59 348.06 998.02 348.30 997.43 348.30 Z" fill="#231f20" fill-rule="nonzero" node-id="515" stroke="none" target-height="24.649994" target-width="30.710022" target-x="989.16" target-y="323.65"></path><path d="M 1035.01 336.08 L 1133.95 336.08 L 1133.95 346.09 L 1035.01 346.09 Z" fill="#ffffff" fill-rule="nonzero" node-id="517" stroke="none" target-height="10.01001" target-width="98.93994" target-x="1035.01" target-y="336.08"></path><path d="M 1134.00 346.65 L 1035.00 346.65 C 1034.85 346.65 1034.71 346.59 1034.61 346.49 C 1034.50 346.38 1034.45 346.24 1034.45 346.09 L 1034.45 336.09 C 1034.45 335.94 1034.50 335.80 1034.61 335.69 C 1034.71 335.59 1034.85 335.53 1035.00 335.53 L 1134.00 335.53 C 1134.15 335.53 1134.29 335.59 1134.39 335.69 C 1134.50 335.80 1134.55 335.94 1134.55 336.09 L 1134.55 346.09 C 1134.55 346.24 1134.50 346.38 1134.39 346.49 C 1134.29 346.59 1134.15 346.65 1134.00 346.65 Z M 1035.61 345.54 L 1133.45 345.54 L 1133.45 336.64 L 1035.61 336.64 Z" fill="#231f20" fill-rule="nonzero" node-id="519" stroke="none" target-height="11.119995" target-width="100.1001" target-x="1034.45" target-y="335.53"></path><path d="M 1017.44 382.64 C 1017.44 391.61 1010.16 398.89 1001.19 398.89 C 992.22 398.89 984.94 391.61 984.94 382.64 C 984.94 373.67 992.22 366.39 1001.19 366.39 C 1010.16 366.39 1017.44 373.67 1017.44 382.64 Z" fill="#ffffff" fill-rule="nonzero" node-id="521" stroke="none" target-height="32.5" target-width="32.5" target-x="984.94" target-y="366.39"></path><path d="M 1001.19 399.45 C 991.91 399.45 984.38 391.92 984.38 382.64 C 984.38 373.36 991.91 365.83 1001.19 365.83 C 1010.47 365.83 1018.00 373.36 1018.00 382.64 C 1017.99 391.92 1010.47 399.44 1001.19 399.45 Z M 1001.19 366.94 C 992.52 366.94 985.49 373.97 985.49 382.64 C 985.49 391.31 992.52 398.34 1001.19 398.34 C 1009.86 398.34 1016.89 391.31 1016.89 382.64 C 1016.88 373.97 1009.86 366.95 1001.19 366.94 Z" fill="#231f20" fill-rule="nonzero" node-id="523" stroke="none" target-height="33.620026" target-width="33.619995" target-x="984.38" target-y="365.83"></path><path d="M 997.43 390.75 C 996.84 390.75 996.28 390.52 995.87 390.10 L 989.97 384.20 C 989.36 383.65 989.10 382.81 989.29 382.02 C 989.49 381.22 990.11 380.60 990.91 380.40 C 991.70 380.21 992.54 380.47 993.09 381.08 L 997.43 385.41 L 1015.88 367.00 C 1016.74 366.14 1018.15 366.14 1019.01 367.00 C 1019.87 367.86 1019.87 369.27 1019.01 370.13 L 999.01 390.13 C 998.59 390.54 998.02 390.76 997.43 390.75 Z" fill="#231f20" fill-rule="nonzero" node-id="525" stroke="none" target-height="24.619995" target-width="30.77002" target-x="989.1" target-y="366.14"></path><path d="M 1035.01 378.53 L 1133.95 378.53 L 1133.95 388.54 L 1035.01 388.54 Z" fill="#ffffff" fill-rule="nonzero" node-id="527" stroke="none" target-height="10.01001" target-width="98.93994" target-x="1035.01" target-y="378.53"></path><path d="M 1134.00 389.09 L 1035.00 389.09 C 1034.85 389.09 1034.71 389.04 1034.61 388.93 C 1034.50 388.83 1034.45 388.69 1034.45 388.54 L 1034.45 378.54 C 1034.45 378.24 1034.70 377.99 1035.00 377.99 L 1134.00 377.99 C 1134.30 377.99 1134.55 378.24 1134.55 378.54 L 1134.55 388.54 C 1134.55 388.69 1134.50 388.83 1134.39 388.93 C 1134.29 389.04 1134.15 389.09 1134.00 389.09 Z M 1035.61 387.99 L 1133.45 387.99 L 1133.45 379.08 L 1035.61 379.08 Z" fill="#231f20" fill-rule="nonzero" node-id="529" stroke="none" target-height="11.100006" target-width="100.1001" target-x="1034.45" target-y="377.99"></path><path d="M 1151.48 393.21 L 1102.37 427.08 C 1117.85 416.41 1127.50 399.14 1128.47 380.36 L 1128.91 371.87 Z" fill="#ffffff" fill-rule="nonzero" node-id="531" stroke="none" target-height="55.20999" target-width="49.109985" target-x="1102.37" target-y="371.87"></path><path d="M 1102.37 427.63 C 1102.19 427.63 1102.02 427.54 1101.92 427.39 C 1101.84 427.27 1101.80 427.12 1101.83 426.98 C 1101.86 426.83 1101.94 426.70 1102.06 426.62 L 1102.06 426.62 C 1117.35 416.00 1126.89 398.93 1127.91 380.34 L 1128.35 371.85 C 1128.36 371.64 1128.49 371.45 1128.69 371.37 C 1128.89 371.29 1129.12 371.33 1129.28 371.48 L 1151.85 392.82 C 1151.97 392.94 1152.04 393.10 1152.02 393.27 C 1152.01 393.43 1151.92 393.58 1151.79 393.68 L 1102.70 427.53 L 1102.70 427.53 C 1102.60 427.60 1102.49 427.63 1102.37 427.63 Z M 1129.37 373.10 L 1128.99 380.39 C 1128.17 395.32 1121.95 409.44 1111.48 420.11 L 1150.58 393.11 Z" fill="#231f20" fill-rule="nonzero" node-id="533" stroke="none" target-height="56.339996" target-width="50.23999" target-x="1101.8" target-y="371.29"></path><path d="M 976.24 190.00 L 1151.48 190.00 L 1151.48 226.64 L 976.24 226.64 Z" fill="#231f20" fill-rule="nonzero" node-id="535" stroke="none" target-height="36.64" target-width="175.23999" target-x="976.24" target-y="190"></path><path d="M 1151.48 227.20 L 976.24 227.20 C 975.94 227.20 975.69 226.95 975.69 226.65 L 975.69 190.00 C 975.69 189.70 975.94 189.45 976.24 189.45 L 1151.48 189.45 C 1151.79 189.45 1152.03 189.69 1152.04 190.00 L 1152.04 226.65 C 1152.03 226.96 1151.79 227.20 1151.48 227.20 Z M 976.80 226.09 L 1150.93 226.09 L 1150.93 190.56 L 976.80 190.56 Z" fill="#231f20" fill-rule="nonzero" node-id="537" stroke="none" target-height="37.75" target-width="176.35004" target-x="975.69" target-y="189.45"></path><path d="M 992.21 197.91 L 1010.18 197.91 C 1014.20 197.91 1017.45 201.16 1017.45 205.18 L 1017.45 209.96 C 1017.45 213.98 1014.20 217.23 1010.18 217.23 L 992.21 217.23 C 988.19 217.23 984.94 213.98 984.94 209.96 L 984.94 205.18 C 984.94 201.16 988.19 197.91 992.21 197.91 Z" fill="#ffffff" fill-rule="nonzero" node-id="539" stroke="none" target-height="19.319992" target-width="32.51001" target-x="984.94" target-y="197.91"></path><path d="M 1009.41 217.78 L 993.00 217.78 C 988.26 217.77 984.42 213.93 984.41 209.19 L 984.41 206.00 C 984.42 201.26 988.26 197.42 993.00 197.41 L 1009.43 197.41 C 1014.16 197.43 1017.99 201.27 1018.00 206.00 L 1018.00 209.24 C 1017.97 213.96 1014.13 217.77 1009.41 217.78 Z M 993.00 198.46 C 988.87 198.47 985.52 201.82 985.51 205.95 L 985.51 209.19 C 985.52 213.32 988.87 216.67 993.00 216.67 L 1009.43 216.67 C 1013.56 216.67 1016.91 213.32 1016.91 209.19 L 1016.91 206.00 C 1016.91 201.87 1013.56 198.52 1009.43 198.51 Z" fill="#231f20" fill-rule="nonzero" node-id="541" stroke="none" target-height="20.369995" target-width="33.590027" target-x="984.41" target-y="197.41"></path><path d="M 1035.01 204.62 L 1133.95 204.62 L 1133.95 210.51 L 1035.01 210.51 Z" fill="#ffffff" fill-rule="nonzero" node-id="543" stroke="none" target-height="5.8899994" target-width="98.93994" target-x="1035.01" target-y="204.62"></path><path d="M 1134.00 211.07 L 1035.00 211.07 C 1034.85 211.07 1034.71 211.01 1034.61 210.91 C 1034.50 210.80 1034.45 210.66 1034.45 210.51 L 1034.45 204.62 C 1034.45 204.32 1034.70 204.07 1035.00 204.07 L 1134.00 204.07 C 1134.30 204.07 1134.55 204.32 1134.55 204.62 L 1134.55 210.51 C 1134.55 210.66 1134.50 210.80 1134.39 210.91 C 1134.29 211.01 1134.15 211.07 1134.00 211.07 Z M 1035.56 210.00 L 1133.40 210.00 L 1133.40 205.22 L 1035.56 205.22 Z" fill="#231f20" fill-rule="nonzero" node-id="545" stroke="none" target-height="7" target-width="100.1001" target-x="1034.45" target-y="204.07"></path></svg>