<?xml version="1.0" standalone="no"?><!DOCTYPE svg PUBLIC "-//W3C//DTD SVG 1.1//EN" "http://www.w3.org/Graphics/SVG/1.1/DTD/svg11.dtd"><svg t="1692285933069" class="icon" viewBox="0 0 1024 1024" version="1.1" xmlns="http://www.w3.org/2000/svg" p-id="4245" xmlns:xlink="http://www.w3.org/1999/xlink" width="128" height="128"><path d="M907.2 552h-32.42c-11.88-53.88-38.56-102.82-77.6-142.28v-134.22c0-0.62-0.08-1.24-0.18-1.84 0-0.02 0-0.04-0.02-0.06-0.1-0.6-0.3-1.2-0.52-1.76 0-0.02-0.02-0.06-0.02-0.08a9.994 9.994 0 0 0-9.26-6.26c-1.28 0-2.5 0.26-3.64 0.72-0.04 0.02-0.1 0.02-0.14 0.04-0.56 0.22-1.08 0.5-1.58 0.82-0.04 0.04-0.1 0.06-0.16 0.1-0.58 0.38-1.1 0.8-1.58 1.3l-77.24 77.24c-36-15.24-74.22-22.96-113.74-22.96h-5.5c14.02-21.64 22.2-47.38 22.2-75 0-76.28-62.06-138.34-138.32-138.34-76.28 0-138.32 62.06-138.32 138.34 0 27.76 8.26 53.64 22.4 75.34-154.86 7.3-278.62 135.58-278.62 292.24 0 31.56 4.94 62.36 14.56 91.6 9.62 29.24 23.94 56.92 42.64 82.22 35.22 47.6 82.96 82.8 138.42 102.24v64.32c0 20.48 16.66 37.16 37.16 37.16h61.6c20.48 0 37.16-16.68 37.16-37.16v-47.8h145.68v47.8c0 20.48 16.68 37.16 37.18 37.16h61.58c20.5 0 37.18-16.68 37.18-37.16v-64.28c43.28-15.22 82.8-40.72 114.66-74.06 31.86-33.36 55.5-74.02 68.68-117.96h37.76c24.18 0 43.86-19.66 43.86-43.84v-59.72c0-24.18-19.68-43.86-43.86-43.86z m-130.02-252.34v91.56a290.654 290.654 0 0 0-55.04-36.52l55.04-55.04z m-428.02-51.9c0-65.26 53.08-118.34 118.32-118.34s118.32 53.08 118.32 118.34c0 65.24-53.08 118.32-118.32 118.32s-118.32-53.08-118.32-118.32z m35.32 707.96c0 9.46-7.7 17.16-17.16 17.16h-61.6c-9.46 0-17.16-7.7-17.16-17.16v-58.04c24.94 6.8 50.76 10.24 76.96 10.24h18.96v47.8z m281.62 0c0 9.46-7.7 17.16-17.18 17.16h-61.58c-9.48 0-17.18-7.7-17.18-17.16v-47.8h18.96c26.22 0 52.06-3.48 76.98-10.26v58.06z m186.14-268.9c-0.02 0.08-0.04 0.18-0.06 0.28-24.22 88.98-91.04 159.06-178.84 187.56-0.12 0.04-0.24 0.06-0.34 0.1-26.92 8.74-55.14 13.16-83.88 13.16h-223.6c-28.7 0-56.94-4.42-83.88-13.16-0.08-0.02-0.14-0.04-0.2-0.06-0.02 0-0.04 0-0.04-0.02-109.56-35.5-184.14-134.9-188.26-249.34h98.32c1.34 0 2.62-0.28 3.8-0.76 1.18 0.48 2.46 0.76 3.8 0.76 29.1 0 52.78-23.68 52.78-52.78 0-29.08-23.68-52.76-52.78-52.76s-52.76 23.68-52.76 52.76c0 5.54 4.48 10 10 10s10-4.46 10-10c0-18.06 14.7-32.76 32.76-32.76 18.08 0 32.78 14.7 32.78 32.76 0 18.08-14.7 32.78-32.78 32.78-1.34 0-2.62 0.28-3.8 0.76-1.18-0.48-2.46-0.76-3.8-0.76H93.14c5.28-145.68 125.44-262.58 272.38-262.58h1.56c25.24 26.64 60.9 43.32 100.4 43.32s75.16-16.68 100.38-43.32h21.24c39 0 76.64 8.06 111.88 23.94 0.1 0.06 0.24 0.12 0.36 0.16a272.494 272.494 0 0 1 78.84 54.06c39.74 39.06 66.26 88.5 76.66 142.96 3.22 16.78 4.86 34.1 4.86 51.46 0 24.2-3.18 48.24-9.46 71.48z m78.82-31.24c0 13.14-10.7 23.84-23.86 23.84h-32.58c4.68-20.98 7.08-42.48 7.08-64.08 0-14.56-1.08-29.08-3.2-43.34h28.7c13.16 0 23.86 10.7 23.86 23.86v59.72z" fill="#23130D" p-id="4246"></path><path d="M384.48 907.92v47.8c0 9.46-7.7 17.16-17.16 17.16h-61.6c-9.46 0-17.16-7.7-17.16-17.16v-58.04c24.94 6.8 50.76 10.24 76.96 10.24h18.96zM666.1 897.66v58.06c0 9.46-7.7 17.16-17.18 17.16h-61.58c-9.48 0-17.18-7.7-17.18-17.16v-47.8h18.96c26.22 0 52.06-3.48 76.98-10.26zM931.06 595.86v59.72c0 13.14-10.7 23.84-23.86 23.84h-32.58c4.68-20.98 7.08-42.48 7.08-64.08 0-14.56-1.08-29.08-3.2-43.34h28.7c13.16 0 23.86 10.7 23.86 23.86z" fill="#636368" p-id="4247"></path><path d="M298.56 910.476a303.544 303.544 0 0 0 66.96 7.444h8.96v37.8a7.168 7.168 0 0 1-7.16 7.16h-61.6a7.168 7.168 0 0 1-7.16-7.16v-45.244m-10-12.796v58.04c0 9.46 7.7 17.16 17.16 17.16h61.6c9.46 0 17.16-7.7 17.16-17.16v-47.8h-18.96c-26.2 0-52.02-3.44-76.96-10.24zM656.1 910.452v45.268c0 3.948-3.22 7.16-7.18 7.16h-61.58a7.178 7.178 0 0 1-7.18-7.16v-37.8h8.96a303.56 303.56 0 0 0 66.98-7.468m10-12.792a292.974 292.974 0 0 1-76.98 10.26h-18.96v47.8c0 9.46 7.7 17.16 17.18 17.16h61.58c9.48 0 17.18-7.7 17.18-17.16v-58.06zM907.2 582a13.876 13.876 0 0 1 13.86 13.86v59.72c0 7.632-6.218 13.84-13.86 13.84h-20.362a304.386 304.386 0 0 0 4.862-54.08c0-11.11-0.614-22.28-1.828-33.34h17.328m0-10h-28.7c2.12 14.26 3.2 28.78 3.2 43.34 0 21.6-2.4 43.1-7.08 64.08h32.58c13.16 0 23.86-10.7 23.86-23.84v-59.72c0-13.16-10.7-23.86-23.86-23.86z" opacity=".1" p-id="4248"></path><path d="M777.18 299.66v91.56a290.654 290.654 0 0 0-55.04-36.52l55.04-55.04z" fill="#636368" p-id="4249"></path><path d="M769.18 318.974v55.676a299.754 299.754 0 0 0-33.754-21.922l33.754-33.754m8-19.314l-55.04 55.04c19.7 10.06 38.12 22.28 55.04 36.52v-91.56z" opacity=".2" p-id="4250"></path><path d="M476.18 257.74h-8.22l27.2 27.18c0.78-2.18 1.22-4.52 1.22-6.96 0-11.14-9.06-20.22-20.2-20.22z m0 0h-8.22l27.2 27.18c0.78-2.18 1.22-4.52 1.22-6.96 0-11.14-9.06-20.22-20.2-20.22z m0 0h-8.22l27.2 27.18c0.78-2.18 1.22-4.52 1.22-6.96 0-11.14-9.06-20.22-20.2-20.22z m-8.7-128.32c-6.9 0-13.66 0.6-20.24 1.74a117.528 117.528 0 0 0-46.28 18.78c-8 5.46-15.3 11.88-21.72 19.08a118.506 118.506 0 0 0-16.12 23 117.576 117.576 0 0 0-6.2 13.6 117.486 117.486 0 0 0-7.76 42.14c0 0.34 0 0.68 0.02 1.02 0.54 64.44 52.84 116.74 117.28 117.28 0.34 0.02 0.68 0.02 1.02 0.02 14.84 0 29.04-2.74 42.14-7.76 4.68-1.78 9.22-3.86 13.6-6.2 8.3-4.48 16.02-9.9 23-16.14 7.2-6.42 13.62-13.72 19.06-21.72a117.528 117.528 0 0 0 18.78-46.28c1.14-6.58 1.74-13.32 1.74-20.22 0-65.26-53.08-118.34-118.32-118.34z m-17.26 69.8c-6.9 3.22-11.68 10.22-11.68 18.32 0 11.14 9.06 20.2 20.22 20.2h17.42c5.62 0 10.96 1.16 15.8 3.24 9.48 4.06 17.08 11.66 21.14 21.14 2.1 4.86 3.26 10.22 3.26 15.84 0 8.02-2.36 15.5-6.42 21.76-5.16 7.98-13.08 14.02-22.4 16.74-3.22 0.98-6.6 1.52-10.1 1.64v24.02c0 5.52-4.46 10-10 10-5.52 0-10-4.48-10-10v-23.94h-28.92c-5.52 0-10-4.48-10-10 0-5.54 4.48-10 10-10h38.9l0.02-0.02c0.02 0 0.04 0.02 0.04 0.02h8.68c8.7 0 16.12-5.54 18.98-13.26 0.78-2.18 1.22-4.52 1.22-6.96 0-11.14-9.06-20.22-20.2-20.22h-17.42c-22.18 0-40.22-18.04-40.22-40.2 0-2.86 0.3-5.66 0.88-8.36 2.14-10.08 8.08-18.78 16.26-24.52 6.2-4.36 13.7-7.02 21.78-7.28v-24c0-3.28 1.58-6.18 4.02-7.98 1.66-1.28 3.74-2.02 5.98-2.02 5.54 0 10 4.48 10 10v23.94h28.92c5.52 0 10 4.48 10 10 0 3.52-1.82 6.62-4.58 8.4-1.56 1.02-3.42 1.6-5.42 1.6h-47.62c-3.06 0-5.94 0.68-8.54 1.9z m25.96 58.52h-8.22l27.2 27.18c0.78-2.18 1.22-4.52 1.22-6.96 0-11.14-9.06-20.22-20.2-20.22z m0 0h-8.22l27.2 27.18c0.78-2.18 1.22-4.52 1.22-6.96 0-11.14-9.06-20.22-20.2-20.22z m0 0h-8.22l27.2 27.18c0.78-2.18 1.22-4.52 1.22-6.96 0-11.14-9.06-20.22-20.2-20.22z" fill="#F9C139" p-id="4251"></path><path d="M476.432 137.78c56.658 4.574 101.368 52.154 101.368 109.98 0 57.816-44.71 105.386-101.368 109.96a18.012 18.012 0 0 0 9.028-15.6v-16.882c22.358-4.294 38.92-23.756 38.92-47.278 0-26.588-21.622-48.22-48.2-48.22h-17.42c-6.738 0-12.22-5.472-12.22-12.2a12.234 12.234 0 0 1 12.22-12.22h47.62c9.926 0 18-8.074 18-18s-8.074-18-18-18h-20.92v-15.94a18.01 18.01 0 0 0-9.028-15.6m-17.952 0.004a18.008 18.008 0 0 0-9.02 15.596v16.868c-22.356 4.31-38.92 23.78-38.92 47.292 0 26.578 21.632 48.2 48.22 48.2h17.42c6.728 0 12.2 5.482 12.2 12.22s-5.472 12.22-12.2 12.22h-5.386l-0.02-0.02h-3.314l-3.334 0.02H428.54c-9.926 0-18 8.074-18 18s8.074 18 18 18h20.92v15.94a18.014 18.014 0 0 0 9.02 15.596c-56.638-4.594-101.32-52.156-101.32-109.956 0-57.812 44.684-105.382 101.32-109.976m9-8.364c-65.24 0-118.32 53.08-118.32 118.34 0 65.24 53.08 118.32 118.32 118.32s118.32-53.08 118.32-118.32c0-65.26-53.08-118.34-118.32-118.34z m-8.72 128.32c-22.18 0-40.22-18.04-40.22-40.2 0-21.74 17.36-39.46 38.92-40.16v-24c0-5.52 4.48-10 10-10 5.54 0 10 4.48 10 10v23.94h28.92c5.52 0 10 4.48 10 10s-4.48 10-10 10h-47.62c-11.16 0-20.22 9.08-20.22 20.22s9.06 20.2 20.22 20.2h17.42c22.18 0 40.2 18.04 40.2 40.22 0 21.74-17.34 39.46-38.92 40.14v24.02c0 5.52-4.46 10-10 10-5.52 0-10-4.48-10-10v-23.94h-28.92c-5.52 0-10-4.48-10-10 0-5.54 4.48-10 10-10h38.9l0.02-0.02c0.02 0 0.04 0.02 0.04 0.02h8.68c11.14 0 20.2-9.08 20.2-20.22s-9.06-20.22-20.2-20.22h-17.42z" opacity=".2" p-id="4252"></path><path d="M856.84 563.88c-10.4-54.46-36.92-103.9-76.66-142.96-23-22.6-49.54-40.8-78.84-54.06a1.964 1.964 0 0 1-0.36-0.16c-35.24-15.88-72.88-23.94-111.88-23.94h-21.24c-25.22 26.64-60.88 43.32-100.38 43.32s-75.16-16.68-100.4-43.32h-1.56c-20.54 0-40.56 2.28-59.8 6.6-28.58 6.42-55.46 17.36-79.88 31.98-14.42 8.64-27.96 18.58-40.5 29.62a277.23 277.23 0 0 0-32.82 34.48c-5.06 6.34-9.86 12.92-14.34 19.7a270.95 270.95 0 0 0-29.26 58.28 270.714 270.714 0 0 0-15.78 81.92h98.32c1.34 0 2.62 0.28 3.8 0.76 1.18-0.48 2.46-0.76 3.8-0.76 18.08 0 32.78-14.7 32.78-32.78 0-18.06-14.7-32.76-32.78-32.76-18.06 0-32.76 14.7-32.76 32.76 0 2.3-0.78 4.44-2.12 6.12a9.88 9.88 0 0 1-7.88 3.88c-5.52 0-10-4.46-10-10 0-3.64 0.38-7.22 1.1-10.66 4.54-22.12 22.98-39.24 45.78-41.76 1.92-0.22 3.9-0.34 5.88-0.34 29.1 0 52.78 23.68 52.78 52.76 0 2-0.12 3.96-0.34 5.9-2.54 22.78-19.64 41.22-41.76 45.78-3.46 0.72-7.02 1.1-10.68 1.1-1.34 0-2.62-0.28-3.8-0.76-1.18 0.48-2.46 0.76-3.8 0.76H93.14c4.12 114.44 78.7 213.84 188.26 249.34 0 0.02 0.02 0.02 0.04 0.02 0.06 0.02 0.12 0.04 0.2 0.06 26.94 8.74 55.18 13.16 83.88 13.16h223.6c1.94 0 3.86-0.02 5.8-0.08 20.22-0.4 40.14-3.02 59.5-7.8 6.26-1.52 12.46-3.3 18.58-5.28 0.1-0.04 0.22-0.06 0.34-0.1 11.3-3.66 22.24-8.02 32.8-13.02 24.68-11.68 47.2-26.84 66.98-44.9 37.54-34.24 65.24-78.86 79.06-129.64 0.02-0.1 0.04-0.2 0.06-0.28 6.28-23.24 9.46-47.28 9.46-71.48 0-17.36-1.64-34.68-4.86-51.46z m-511.96-140.1c-5.54 0-10-4.46-10-10 0-5.52 4.46-10 10-10h245.2c5.54 0 10 4.48 10 10 0 5.54-4.46 10-10 10h-245.2zM730.1 572c-25.86 0-46.92-21.04-46.92-46.92s21.06-46.92 46.92-46.92c25.88 0 46.94 21.04 46.94 46.92S755.98 572 730.1 572z" fill="#E1E1E5" p-id="4253"></path><path d="M589.1 352.76c37.462 0 73.63 7.716 107.504 22.936 0.29 0.144 0.586 0.278 0.89 0.4a262.474 262.474 0 0 1 75.676 51.956c38.296 37.64 63.832 85.258 73.848 137.712a263.68 263.68 0 0 1 4.68 49.576c0 23.32-3.066 46.492-9.114 68.872l-0.026 0.094-0.024 0.094-0.082 0.354c-23.364 85.464-87.608 152.84-172.002 180.332a10.388 10.388 0 0 0-0.664 0.206c-25.86 8.382-53 12.632-80.668 12.632h-223.6c-27.31 0-54.122-4.146-79.716-12.324l-1.322-0.428-0.592-0.192-0.82-0.274h-0.018c-51.11-16.876-95.118-48.354-127.338-91.106-30.374-40.3-48.248-87.904-52.01-138.254H191.46c1.278 0 2.548-0.124 3.8-0.368a19.688 19.688 0 0 0 3.8 0.368c34.616 0 62.78-28.162 62.78-62.78 0-34.606-28.162-62.76-62.78-62.76-34.606 0-62.76 28.154-62.76 62.76 0 11.028 8.972 20 20 20s20-8.972 20-20c0-12.55 10.21-22.76 22.76-22.76 12.56 0 22.78 10.21 22.78 22.76 0 12.56-10.22 22.78-22.78 22.78-1.278 0-2.548 0.124-3.8 0.37a19.69 19.69 0 0 0-3.8-0.37H103.712c4.836-64.066 32.81-123.646 79.446-168.73 48.628-47.01 112.354-73.17 179.718-73.836 21.726 21.67 48.822 35.762 78.344 41.006h-96.34c-11.028 0-20 8.972-20 20s8.972 20 20 20h245.2c11.028 0 20-8.972 20-20s-8.972-20-20-20h-96.338c29.53-5.246 56.624-19.342 78.336-41.02h17.022M730.1 582c31.396 0 56.94-25.534 56.94-56.92 0-31.386-25.544-56.92-56.94-56.92-31.386 0-56.92 25.534-56.92 56.92 0 31.386 25.534 56.92 56.92 56.92m-141-239.24h-21.24c-25.22 26.64-60.88 43.32-100.38 43.32s-75.16-16.68-100.4-43.32h-1.56c-146.94 0-267.1 116.9-272.38 262.58h98.32c1.34 0 2.62 0.28 3.8 0.76 1.18-0.48 2.46-0.76 3.8-0.76 18.08 0 32.78-14.7 32.78-32.78 0-18.06-14.7-32.76-32.78-32.76-18.06 0-32.76 14.7-32.76 32.76 0 5.54-4.48 10-10 10s-10-4.46-10-10c0-29.08 23.66-52.76 52.76-52.76 29.1 0 52.78 23.68 52.78 52.76 0 29.1-23.68 52.78-52.78 52.78-1.34 0-2.62-0.28-3.8-0.76-1.18 0.48-2.46 0.76-3.8 0.76H93.14c4.12 114.44 78.7 213.84 188.26 249.34 0 0.02 0.02 0.02 0.04 0.02 0.06 0.02 0.12 0.04 0.2 0.06 26.94 8.74 55.18 13.16 83.88 13.16h223.6c28.74 0 56.96-4.42 83.88-13.16 0.1-0.04 0.22-0.06 0.34-0.1 87.8-28.5 154.62-98.58 178.84-187.56 0.02-0.1 0.04-0.2 0.06-0.28 6.28-23.24 9.46-47.28 9.46-71.48 0-17.36-1.64-34.68-4.86-51.46-10.4-54.46-36.92-103.9-76.66-142.96-23-22.6-49.54-40.8-78.84-54.06a1.964 1.964 0 0 1-0.36-0.16c-35.24-15.88-72.88-23.94-111.88-23.94z m-244.22 81.02c-5.54 0-10-4.46-10-10 0-5.52 4.46-10 10-10h245.2c5.54 0 10 4.48 10 10 0 5.54-4.46 10-10 10h-245.2zM730.1 572c-25.86 0-46.92-21.04-46.92-46.92s21.06-46.92 46.92-46.92c25.88 0 46.94 21.04 46.94 46.92S755.98 572 730.1 572z" opacity=".2" p-id="4254"></path><path d="M730.1 478.16c-25.86 0-46.92 21.04-46.92 46.92S704.24 572 730.1 572c25.88 0 46.94-21.04 46.94-46.92s-21.06-46.92-46.94-46.92z m0 73.84c-14.84 0-26.92-12.08-26.92-26.92 0-14.84 12.08-26.92 26.92-26.92 14.86 0 26.94 12.08 26.94 26.92 0 14.84-12.08 26.92-26.94 26.92z" fill="#23130D" p-id="4255"></path><path d="M757.04 525.08c0 14.84-12.08 26.92-26.94 26.92-14.84 0-26.92-12.08-26.92-26.92 0-14.84 12.08-26.92 26.92-26.92 14.86 0 26.94 12.08 26.94 26.92z" fill="#636368" p-id="4256"></path><path d="M600.08 413.78c0 5.54-4.46 10-10 10h-245.2c-5.54 0-10-4.46-10-10 0-5.52 4.46-10 10-10h245.2c5.54 0 10 4.48 10 10zM516.38 277.96c0 21.74-17.34 39.46-38.92 40.14v24.02c0 5.52-4.46 10-10 10-5.52 0-10-4.48-10-10v-23.94h-28.92c-5.52 0-10-4.48-10-10 0-5.54 4.48-10 10-10h38.9l0.02-0.02c0.02 0 0.04 0.02 0.04 0.02h8.68c11.14 0 20.2-9.08 20.2-20.22s-9.06-20.22-20.2-20.22h-17.42c-22.18 0-40.22-18.04-40.22-40.2 0-21.74 17.36-39.46 38.92-40.16v-24c0-5.52 4.48-10 10-10 5.54 0 10 4.48 10 10v23.94h28.92c5.52 0 10 4.48 10 10s-4.48 10-10 10h-47.62c-11.16 0-20.22 9.08-20.22 20.22s9.06 20.2 20.22 20.2h17.42c22.18 0 40.2 18.04 40.2 40.22zM467.48 84.334a10 10 0 0 0 10-10V41.116a10 10 0 0 0-20 0v33.218a10 10 0 0 0 10 10zM372.114 102.568a9.996 9.996 0 0 0 13.662 3.658 10.004 10.004 0 0 0 3.66-13.662L372.824 63.8a10.002 10.002 0 0 0-17.322 10.002l16.612 28.766zM283.53 153.092l28.77 16.608a9.998 9.998 0 0 0 13.66-3.66 10 10 0 0 0-3.66-13.66l-28.77-16.608a10 10 0 1 0-10 17.32zM617.668 171.042c1.696 0 3.414-0.432 4.99-1.34l28.774-16.608a9.998 9.998 0 0 0 3.66-13.66 10 10 0 0 0-13.66-3.662l-28.774 16.608a9.998 9.998 0 0 0 5.01 18.662zM549.184 106.226a9.998 9.998 0 0 0 13.662-3.658l16.616-28.766a10 10 0 0 0-17.32-10.004l-16.616 28.766a10 10 0 0 0 3.658 13.662z" fill="#23130D" p-id="4257"></path><path d="M193.18 520.14c-22.8 2.52-41.24 19.64-45.78 41.76l-38.48-38.48c7.42-20.7 17.3-40.24 29.26-58.28l55 55zM199.06 605.34c-1.34 0-2.62 0.28-3.8 0.76-1.18-0.48-2.46-0.76-3.8-0.76h-0.62l-26.66-26.66c1.34-1.68 2.12-3.82 2.12-6.12 0-18.06 14.7-32.76 32.76-32.76 18.08 0 32.78 14.7 32.78 32.76 0 18.08-14.7 32.78-32.78 32.78zM560.96 887.92h-87.54L209.74 624.24c22.12-4.56 39.22-23 41.76-45.78l309.46 309.46zM654.42 880.04c-19.36 4.78-39.28 7.4-59.5 7.8l-442.4-442.4c9.94-12.42 20.92-23.96 32.82-34.48l469.08 469.08zM773.12 816.74a271.49 271.49 0 0 1-66.98 44.9L225.84 381.34c24.42-14.62 51.3-25.56 79.88-31.98l54.42 54.42h-15.26c-5.54 0-10 4.48-10 10 0 5.54 4.46 10 10 10h35.26l392.98 392.96z" fill="#FFFFFF" opacity=".4" p-id="4258"></path><path d="M509.62 358.32a117.486 117.486 0 0 1-42.14 7.76c-0.34 0-0.68 0-1.02-0.02l-117.28-117.28c-0.02-0.34-0.02-0.68-0.02-1.02 0-14.84 2.74-29.04 7.76-42.14l92.56 92.56h-20.94c-5.52 0-10 4.46-10 10 0 5.52 4.48 10 10 10h28.92v23.94c0 5.52 4.48 10 10 10 5.54 0 10-4.48 10-10v-15.96l32.16 32.16zM476.18 298.18h-6.9l-106.16-106.16c4.46-8.32 9.88-16.02 16.12-23l40.18 40.16c-0.58 2.7-0.88 5.5-0.88 8.36 0 22.16 18.04 40.2 40.22 40.2h9.2l27.2 27.18c-2.86 7.72-10.28 13.26-18.98 13.26zM546.22 335.98a120.092 120.092 0 0 1-23 16.14l-35.66-35.66c9.32-2.72 17.24-8.76 22.4-16.74l36.26 36.26zM457.46 177.38c-8.08 0.26-15.58 2.92-21.78 7.28l-34.72-34.72a117.528 117.528 0 0 1 46.28-18.78l14.24 14.24c-2.44 1.8-4.02 4.7-4.02 7.98v24zM493.38 177.32h-15.92V161.4zM584.06 267.98a117.528 117.528 0 0 1-18.78 46.28l-52.16-52.14-62.9-62.9c2.6-1.22 5.48-1.9 8.54-1.9h47.62c2 0 3.86-0.58 5.42-1.6l72.26 72.26z" fill="#FFFFFF" opacity=".4" p-id="4259"></path><path d="M562.76 257.75a10 10 0 0 1-10-10c0-47.034-38.266-85.3-85.3-85.3a10 10 0 0 1 0-20c58.064 0 105.3 47.238 105.3 105.3a10 10 0 0 1-10 10z" fill="#FFFFFF" opacity=".8" p-id="4260"></path></svg>